<svg width="135" height="44" viewBox="0 0 135 44" fill="none" xmlns="http://www.w3.org/2000/svg">
<g clip-path="url(#clip0_6893_10815)">
<rect x="53.6533" y="1.37451" width="54.8238" height="15.1214" rx="2" fill="#B2B7FF" fill-opacity="0.2"/>
<path d="M70.823 5.49854L68.3794 12.3719H67.4283L65.444 7.12934C65.4257 7.07817 65.4075 7.02381 65.3893 6.96626C65.3747 6.9087 65.3583 6.84794 65.3401 6.78399C65.3219 6.84794 65.3036 6.9087 65.2854 6.96626C65.2672 7.02381 65.249 7.07817 65.2308 7.12934L63.2355 12.3719H62.2843L59.8408 5.49854H60.7209C60.8157 5.49854 60.894 5.51932 60.956 5.56089C61.0216 5.60246 61.0635 5.65522 61.0817 5.71917L62.6998 10.4965C62.7253 10.5828 62.749 10.6755 62.7708 10.7747C62.7964 10.8738 62.82 10.9793 62.8419 11.0912C62.8674 10.9793 62.8929 10.8738 62.9184 10.7747C62.9476 10.6723 62.9786 10.5796 63.0114 10.4965L64.8536 5.71917C64.8754 5.66481 64.9173 5.61525 64.9793 5.57048C65.0449 5.52252 65.1233 5.49854 65.2144 5.49854H65.5205C65.6152 5.49854 65.6918 5.51932 65.7501 5.56089C65.8084 5.60246 65.8521 5.65522 65.8813 5.71917L67.718 10.4965C67.7508 10.5796 67.78 10.6691 67.8055 10.7651C67.8346 10.861 67.862 10.9617 67.8875 11.0672C67.9057 10.9617 67.9257 10.861 67.9476 10.7651C67.9695 10.6691 67.9931 10.5796 68.0187 10.4965L69.6422 5.71917C69.6604 5.66162 69.7005 5.61045 69.7625 5.56569C69.8281 5.52092 69.9064 5.49854 69.9975 5.49854H70.823Z" fill="#787EDA"/>
<path d="M75.6792 9.82016L74.4493 7.02381C74.4128 6.94067 74.3746 6.84475 74.3345 6.73603C74.2944 6.62411 74.2561 6.50579 74.2197 6.38109C74.1432 6.6401 74.0648 6.85594 73.9846 7.02861L72.7547 9.82016H75.6792ZM77.8877 12.3719H77.0677C76.973 12.3719 76.8964 12.3511 76.8381 12.3095C76.7798 12.268 76.7361 12.2152 76.7069 12.1512L75.9744 10.4917H72.4595L71.727 12.1512C71.7051 12.2088 71.6632 12.26 71.6012 12.3047C71.5393 12.3495 71.4628 12.3719 71.3717 12.3719H70.5517L73.684 5.49854H74.7554L77.8877 12.3719Z" fill="#787EDA"/>
<path d="M83.3624 11.5901V12.3719H78.9182V5.49854H79.9732V11.5901H83.3624Z" fill="#787EDA"/>
<path d="M88.9784 11.5901V12.3719H84.5341V5.49854H85.5892V11.5901H88.9784Z" fill="#787EDA"/>
<path d="M94.9824 11.614L94.977 12.3719H90.1501V5.49854H94.977V6.25638H91.2106V8.5395H94.2609V9.26856H91.2106V11.614H94.9824Z" fill="#787EDA"/>
<path d="M101.757 6.28036H99.2206V12.3719H98.1656V6.28036H95.6236V5.49854H101.757V6.28036Z" fill="#787EDA"/>
<path d="M61.95 22.8116C63.1874 22.8116 64.1999 22.9954 64.9873 23.3629C65.7935 23.712 66.506 24.1254 67.1247 24.6032C67.4997 24.8788 67.7809 24.9156 67.9684 24.7134C68.1746 24.4929 68.3152 23.9876 68.3902 23.1975H69.0371C68.9996 23.8774 68.9715 24.7043 68.9527 25.6781C68.934 26.652 68.9246 27.9382 68.9246 29.5368H68.2778C68.1465 28.7467 68.0246 28.122 67.9121 27.6626C67.7997 27.1849 67.659 26.7806 67.4903 26.4499C67.3403 26.1191 67.1341 25.7884 66.8716 25.4576C66.2904 24.7043 65.5592 24.1622 64.678 23.8314C63.7968 23.4823 62.8687 23.3078 61.8938 23.3078C60.9751 23.3078 60.1408 23.5375 59.3908 23.9968C58.6596 24.4378 58.0221 25.0809 57.4784 25.9262C56.9535 26.7714 56.541 27.7912 56.241 28.9856C55.9598 30.18 55.8192 31.5213 55.8192 33.0097C55.8192 34.5532 55.9785 35.9221 56.2973 37.1165C56.616 38.2925 57.0566 39.2847 57.619 40.0932C58.2003 40.9017 58.8752 41.5173 59.6439 41.9399C60.4314 42.3441 61.2751 42.5462 62.175 42.5462C63.0187 42.5462 63.8999 42.3809 64.8186 42.0501C65.7373 41.7194 66.4591 41.1865 66.9841 40.4515C67.3966 39.9186 67.6778 39.3398 67.8278 38.7151C67.9965 38.0903 68.1465 37.2175 68.2778 36.0967H68.9246C68.9246 37.7688 68.934 39.1193 68.9527 40.1483C68.9715 41.1589 68.9996 42.0134 69.0371 42.7116H68.3902C68.3152 41.9215 68.184 41.4254 67.9965 41.2233C67.8278 41.0211 67.5372 41.0487 67.1247 41.3059C66.431 41.7837 65.6904 42.2063 64.903 42.5738C64.1343 42.9229 63.1406 43.0975 61.9219 43.0975C60.1408 43.0975 58.5752 42.7024 57.2253 41.9123C55.8942 41.1222 54.8536 39.983 54.1036 38.4946C53.3724 37.0062 53.0068 35.2147 53.0068 33.1199C53.0068 31.062 53.3912 29.2612 54.1599 27.7177C54.9286 26.1742 55.9785 24.9707 57.3097 24.1071C58.6596 23.2435 60.2064 22.8116 61.95 22.8116Z" fill="#787EDA"/>
<path d="M76.1657 21.1028V40.1483C76.1657 40.9201 76.325 41.4438 76.6438 41.7194C76.9812 41.995 77.5343 42.1328 78.303 42.1328V42.7116C77.9843 42.6932 77.4968 42.6749 76.8406 42.6565C76.2032 42.6197 75.5563 42.6014 74.9001 42.6014C74.2627 42.6014 73.6158 42.6197 72.9596 42.6565C72.3034 42.6749 71.8159 42.6932 71.4972 42.7116V42.1328C72.2659 42.1328 72.8096 41.995 73.1283 41.7194C73.4658 41.4438 73.6346 40.9201 73.6346 40.1483V24.4103C73.6346 23.5834 73.4846 22.977 73.1846 22.5911C72.8846 22.1869 72.3221 21.9848 71.4972 21.9848V21.406C72.0972 21.4611 72.6784 21.4887 73.2408 21.4887C73.7846 21.4887 74.3002 21.4611 74.7876 21.406C75.2938 21.3325 75.7532 21.2314 76.1657 21.1028Z" fill="#787EDA"/>
<path d="M92.509 28.2139V39.7349C92.509 40.5618 92.659 41.1773 92.959 41.5816C93.2777 41.9674 93.8402 42.1604 94.6464 42.1604V42.7392C94.0651 42.6841 93.4839 42.6565 92.9027 42.6565C92.359 42.6565 91.834 42.6841 91.3278 42.7392C90.8404 42.7943 90.3904 42.8954 89.9779 43.0424V39.79C89.5092 40.9844 88.8436 41.8388 87.9812 42.3533C87.1375 42.8494 86.2656 43.0975 85.3657 43.0975C84.7095 43.0975 84.1376 43.0056 83.6502 42.8219C83.1627 42.6381 82.7596 42.3809 82.4409 42.0501C82.0847 41.6826 81.8409 41.2049 81.7097 40.6169C81.5784 40.0289 81.5128 39.3031 81.5128 38.4395V31.5213C81.5128 30.6945 81.3628 30.0881 81.0628 29.7022C80.7629 29.298 80.2004 29.0958 79.3754 29.0958V28.517C79.9754 28.5722 80.5566 28.5997 81.1191 28.5997C81.6628 28.5997 82.1784 28.5722 82.6659 28.517C83.1721 28.4435 83.6314 28.3425 84.0439 28.2139V39.0458C84.0439 39.6155 84.0814 40.1391 84.1564 40.6169C84.2314 41.0946 84.4189 41.4805 84.7189 41.7745C85.0188 42.0685 85.5063 42.2155 86.1813 42.2155C86.9125 42.2155 87.5593 41.995 88.1218 41.554C88.703 41.113 89.153 40.5158 89.4717 39.7625C89.8092 39.0091 89.9779 38.1638 89.9779 37.2267V31.5213C89.9779 30.6945 89.8279 30.0881 89.5279 29.7022C89.2279 29.298 88.6655 29.0958 87.8405 29.0958V28.517C88.4405 28.5722 89.0217 28.5997 89.5842 28.5997C90.1279 28.5997 90.6435 28.5722 91.131 28.517C91.6372 28.4435 92.0965 28.3425 92.509 28.2139Z" fill="#787EDA"/>
<path d="M100.61 23.9417V28.5446H104.772V29.0958H100.61V39.7625C100.61 40.6261 100.769 41.2324 101.088 41.5816C101.407 41.9307 101.847 42.1052 102.41 42.1052C102.972 42.1052 103.46 41.8847 103.872 41.4438C104.285 40.9844 104.641 40.2218 104.941 39.1561L105.503 39.2939C105.316 40.3596 104.941 41.26 104.379 41.995C103.835 42.73 102.991 43.0975 101.847 43.0975C101.21 43.0975 100.685 43.0148 100.273 42.8494C99.8601 42.7024 99.4945 42.4819 99.1757 42.1879C98.7633 41.7653 98.4727 41.26 98.3039 40.672C98.1539 40.084 98.0789 39.3031 98.0789 38.3292V29.0958H95.3791V28.5446H98.0789V24.3276C98.5476 24.3092 98.9976 24.2724 99.4288 24.2173C99.8601 24.1622 100.254 24.0703 100.61 23.9417Z" fill="#787EDA"/>
<path d="M113.055 28.1312C113.655 28.1312 114.236 28.2047 114.799 28.3517C115.361 28.4987 115.867 28.7192 116.317 29.0132C116.749 29.2888 117.077 29.6103 117.302 29.9778C117.527 30.327 117.639 30.7128 117.639 31.1355C117.639 31.6316 117.498 32.0174 117.217 32.2931C116.936 32.5503 116.58 32.6789 116.149 32.6789C115.736 32.6789 115.37 32.5595 115.052 32.3206C114.752 32.0818 114.602 31.7418 114.602 31.3008C114.602 30.8782 114.714 30.5383 114.939 30.281C115.183 30.0238 115.464 29.8584 115.783 29.7849C115.595 29.4542 115.258 29.1785 114.771 28.958C114.302 28.7375 113.796 28.6273 113.252 28.6273C112.783 28.6273 112.314 28.7375 111.846 28.958C111.377 29.1785 110.946 29.546 110.552 30.0605C110.158 30.5566 109.84 31.2457 109.596 32.1277C109.352 32.9913 109.23 34.0754 109.23 35.38C109.23 36.997 109.418 38.2833 109.793 39.2388C110.168 40.1943 110.655 40.8833 111.255 41.3059C111.874 41.7102 112.549 41.9123 113.28 41.9123C113.767 41.9123 114.264 41.8204 114.771 41.6367C115.277 41.4529 115.755 41.1589 116.205 40.7547C116.655 40.3321 117.039 39.7716 117.358 39.0734L117.892 39.2663C117.705 39.8543 117.395 40.4515 116.964 41.0579C116.533 41.6459 115.97 42.1328 115.277 42.5187C114.583 42.9046 113.73 43.0975 112.718 43.0975C111.555 43.0975 110.505 42.8035 109.568 42.2155C108.63 41.6275 107.88 40.7914 107.318 39.7073C106.774 38.6048 106.502 37.3002 106.502 35.7935C106.502 34.2867 106.774 32.9638 107.318 31.8245C107.88 30.6669 108.658 29.7665 109.652 29.1234C110.646 28.4619 111.78 28.1312 113.055 28.1312Z" fill="#787EDA"/>
<path d="M124.117 21.1303V31.4386C124.604 30.1892 125.279 29.3255 126.142 28.8478C127.023 28.37 127.941 28.1312 128.898 28.1312C129.61 28.1312 130.201 28.223 130.669 28.4068C131.157 28.5905 131.56 28.8478 131.879 29.1785C132.235 29.546 132.488 30.0054 132.638 30.5566C132.788 31.1079 132.863 31.8521 132.863 32.7892V40.1483C132.863 40.9201 133.022 41.4438 133.341 41.7194C133.679 41.995 134.232 42.1328 135 42.1328V42.7116C134.682 42.6932 134.194 42.6749 133.538 42.6565C132.882 42.6197 132.244 42.6014 131.626 42.6014C131.007 42.6014 130.397 42.6197 129.798 42.6565C129.216 42.6749 128.776 42.6932 128.476 42.7116V42.1328C129.151 42.1328 129.629 41.995 129.91 41.7194C130.191 41.4438 130.332 40.9201 130.332 40.1483V32.1828C130.332 31.6132 130.285 31.0895 130.191 30.6118C130.098 30.134 129.882 29.7482 129.544 29.4542C129.226 29.1602 128.729 29.0132 128.054 29.0132C127.285 29.0132 126.601 29.2245 126.001 29.6471C125.42 30.0697 124.96 30.6577 124.623 31.4111C124.285 32.1644 124.117 33.0281 124.117 34.0019V40.1483C124.117 40.9201 124.257 41.4438 124.538 41.7194C124.82 41.995 125.298 42.1328 125.973 42.1328V42.7116C125.673 42.6932 125.223 42.6749 124.623 42.6565C124.042 42.6197 123.442 42.6014 122.823 42.6014C122.204 42.6014 121.567 42.6197 120.911 42.6565C120.254 42.6749 119.767 42.6932 119.448 42.7116V42.1328C120.217 42.1328 120.761 41.995 121.079 41.7194C121.417 41.4438 121.586 40.9201 121.586 40.1483V24.4378C121.586 23.611 121.436 23.0046 121.136 22.6187C120.836 22.2145 120.273 22.0123 119.448 22.0123V21.4335C120.048 21.4887 120.629 21.5162 121.192 21.5162C121.736 21.5162 122.251 21.4887 122.739 21.4335C123.245 21.36 123.704 21.259 124.117 21.1303Z" fill="#787EDA"/>
<path d="M38.8455 43.7884H0.414625C0.340557 43.7884 0.27707 43.7461 0.234745 43.6826C0.203002 43.6191 0.203002 43.545 0.234745 43.4816L19.4502 11.9336C19.4819 11.8701 19.556 11.8384 19.6195 11.8384C19.6935 11.8384 19.757 11.8701 19.7888 11.9336L39.0042 43.4816C39.0465 43.545 39.0465 43.6191 39.0042 43.6826C38.983 43.7461 38.9195 43.7884 38.8455 43.7884ZM0.774385 43.3864H38.4857L19.63 12.4308L0.774385 43.3864Z" fill="#787EDA"/>
<path d="M38.8449 43.9999H0.414055C0.265918 43.9999 0.128363 43.9152 0.0542947 43.7883C-0.0197735 43.6613 -0.0197735 43.5026 0.0648759 43.3757L19.2803 11.8277C19.3544 11.7008 19.4919 11.6267 19.6295 11.6267C19.7776 11.6267 19.9046 11.7008 19.9786 11.8277L39.1941 43.3757C39.2681 43.5026 39.2787 43.6613 39.2046 43.7883C39.1306 43.9152 38.993 43.9999 38.8449 43.9999ZM1.15474 43.1747H38.1148L19.6295 12.8328L1.15474 43.1747Z" fill="#787EDA"/>
<path d="M0.413933 23.7192C0.29754 23.7192 0.212891 23.6239 0.212891 23.5182V19.6355C0.212891 17.0118 0.731368 14.4727 1.73658 12.0817C2.71005 9.76485 4.11734 7.69127 5.89498 5.91392C7.67262 4.13657 9.75711 2.7295 12.0638 1.75619C14.4657 0.740562 17.0052 0.222168 19.6293 0.222168C19.7457 0.222168 19.8304 0.317383 19.8304 0.423178C19.8304 0.528973 19.7352 0.624188 19.6293 0.624188C17.0581 0.624188 14.5715 1.132 12.2331 2.11589C9.96873 3.06804 7.93715 4.44338 6.19125 6.18899C4.43478 7.9346 3.06981 9.97644 2.10692 12.2404C1.11229 14.5891 0.614975 17.0753 0.614975 19.6355V23.5182C0.614975 23.6345 0.530326 23.7192 0.413933 23.7192Z" fill="#787EDA"/>
<path d="M0.414619 23.9307C0.181833 23.9307 0.00195312 23.7402 0.00195312 23.5181V19.6354C0.00195312 16.9905 0.520431 14.4197 1.5468 11.997C2.53085 9.65897 3.94873 7.56424 5.75811 5.75515C7.55691 3.95664 9.66257 2.53899 12.001 1.54452C14.4135 0.528892 16.9847 0.010498 19.63 0.010498C19.8628 0.010498 20.0427 0.200928 20.0427 0.423097C20.0427 0.645266 19.8522 0.835696 19.63 0.835696C17.0906 0.835696 14.6251 1.33293 12.3079 2.31682C10.0647 3.25839 8.05423 4.62315 6.3295 6.3476C4.60476 8.07205 3.25037 10.0821 2.29807 12.325C1.31402 14.6419 0.816704 17.1069 0.816704 19.646V23.5287C0.827285 23.7508 0.647405 23.9307 0.414619 23.9307Z" fill="#787EDA"/>
<path d="M4.25475 37.5254C4.13836 37.5254 4.05371 37.4302 4.05371 37.3244V19.6355C4.05371 15.4777 5.67263 11.5633 8.6142 8.62225C11.5558 5.68116 15.4708 4.0625 19.6292 4.0625C19.7456 4.0625 19.8302 4.15772 19.8302 4.26351C19.8302 4.37988 19.735 4.46452 19.6292 4.46452C15.5766 4.46452 11.7674 6.04086 8.89989 8.9079C6.03239 11.7749 4.4558 15.5835 4.4558 19.6355V37.3244C4.4558 37.4302 4.37115 37.5254 4.25475 37.5254Z" fill="#787EDA"/>
<path d="M4.25544 37.7368C4.02265 37.7368 3.84277 37.5464 3.84277 37.3242V19.6354C3.84277 15.4248 5.48286 11.4575 8.46675 8.47405C11.4506 5.49065 15.408 3.85083 19.6299 3.85083C19.8627 3.85083 20.0426 4.04126 20.0426 4.26343C20.0426 4.4856 19.8521 4.67603 19.6299 4.67603C15.6302 4.67603 11.8739 6.23121 9.04871 9.05593C6.22354 11.8806 4.6681 15.6363 4.6681 19.6354V37.3242C4.6681 37.5464 4.48823 37.7368 4.25544 37.7368Z" fill="#787EDA"/>
<path d="M8.09557 31.0719C7.97918 31.0719 7.89453 30.9766 7.89453 30.8709V19.6355C7.89453 16.5039 9.11137 13.5628 11.3334 11.3412C13.5449 9.13005 16.497 7.90283 19.6291 7.90283C19.7454 7.90283 19.8301 7.99805 19.8301 8.10384C19.8301 8.22022 19.7349 8.30485 19.6291 8.30485C16.6028 8.30485 13.7565 9.47917 11.6191 11.6268C9.48171 13.7639 8.29662 16.6097 8.29662 19.6355V30.8709C8.29662 30.9766 8.21197 31.0719 8.09557 31.0719Z" fill="#787EDA"/>
<path d="M8.09626 31.2834C7.86347 31.2834 7.68359 31.0929 7.68359 30.8708V19.6354C7.68359 16.451 8.92159 13.4464 11.186 11.193C13.4398 8.93954 16.4448 7.69116 19.6297 7.69116C19.8625 7.69116 20.0424 7.88159 20.0424 8.10376C20.0424 8.32593 19.8519 8.51636 19.6297 8.51636C16.6564 8.51636 13.8736 9.66952 11.7679 11.7748C9.67285 13.8696 8.50893 16.6625 8.50893 19.6354V30.8708C8.50893 31.0929 8.32905 31.2834 8.09626 31.2834Z" fill="#787EDA"/>
<path d="M11.9491 24.7455C11.8327 24.7455 11.748 24.6503 11.748 24.5445V19.6356C11.748 15.2874 15.2822 11.7539 19.631 11.7539C19.7474 11.7539 19.8321 11.8491 19.8321 11.9549C19.8321 12.0607 19.7368 12.1559 19.631 12.1559C15.5044 12.1559 12.1501 15.5096 12.1501 19.6356V24.5445C12.1501 24.6503 12.0549 24.7455 11.9491 24.7455Z" fill="#787EDA"/>
<path d="M11.9498 24.957C11.717 24.957 11.5371 24.7666 11.5371 24.5444V19.6355C11.5371 15.171 15.1665 11.5422 19.6317 11.5422C19.8645 11.5422 20.0444 11.7327 20.0444 11.9548C20.0444 12.177 19.8539 12.3674 19.6317 12.3674C15.6214 12.3674 12.3624 15.6259 12.3624 19.6355V24.5444C12.3624 24.7666 12.172 24.957 11.9498 24.957Z" fill="#787EDA"/>
<path d="M38.8461 23.7192C38.7297 23.7192 38.6451 23.6239 38.6451 23.5181V19.6355C38.6451 17.0647 38.1372 14.5785 37.1531 12.2404C36.2008 9.97643 34.8253 7.94518 33.0794 6.19957C31.3229 4.44337 29.2913 3.07862 27.027 2.11589C24.6779 1.12142 22.1914 0.624188 19.6307 0.624188C19.5143 0.624188 19.4297 0.528972 19.4297 0.423178C19.4297 0.317383 19.5249 0.222168 19.6307 0.222168C22.2549 0.222168 24.7943 0.740562 27.1857 1.74561C29.503 2.71892 31.5769 4.12599 33.3545 5.90334C35.1427 7.69127 36.5394 9.76484 37.5129 12.0712C38.5287 14.4621 39.0366 17.0118 39.0366 19.6249V23.5076C39.0472 23.6345 38.9519 23.7192 38.8461 23.7192Z" fill="#787EDA"/>
<path d="M38.8467 23.9308C38.6139 23.9308 38.434 23.7403 38.434 23.5182V19.6355C38.434 17.0964 37.9367 14.6314 36.9526 12.3145C36.0109 10.0717 34.6459 8.06155 32.9212 6.3371C31.1965 4.61265 29.1861 3.25848 26.9428 2.30632C24.6256 1.32243 22.1602 0.825198 19.6207 0.825198C19.3879 0.825198 19.208 0.634768 19.208 0.412599C19.208 0.19043 19.3985 0 19.6207 0C22.266 0 24.8372 0.518394 27.2603 1.5446C29.5987 2.52849 31.6938 3.94614 33.5032 5.75523C35.302 7.55374 36.7199 9.65905 37.7145 11.9971C38.7409 14.4198 39.2593 16.9906 39.2593 19.6355V23.5182C39.2593 23.7509 39.0689 23.9308 38.8467 23.9308Z" fill="#787EDA"/>
<path d="M35.0052 37.5256C34.8888 37.5256 34.8041 37.4304 34.8041 37.3246V19.6357C34.8041 15.5838 33.2275 11.7752 30.36 8.90814C27.4925 6.04111 23.6833 4.46476 19.6307 4.46476C19.5143 4.46476 19.4297 4.36955 19.4297 4.26375C19.4297 4.14738 19.5249 4.06274 19.6307 4.06274C23.7891 4.06274 27.7042 5.6814 30.6457 8.6225C33.5873 11.5636 35.2062 15.478 35.2062 19.6357V37.3246C35.2062 37.4304 35.111 37.5256 35.0052 37.5256Z" fill="#787EDA"/>
<path d="M35.0059 37.7371C34.7731 37.7371 34.5932 37.5467 34.5932 37.3245V19.6356C34.5932 15.6366 33.0378 11.8809 30.2126 9.05617C27.3874 6.23145 23.6311 4.67627 19.6314 4.67627C19.3986 4.67627 19.2188 4.48584 19.2188 4.26367C19.2188 4.0415 19.4092 3.85107 19.6314 3.85107C23.8427 3.85107 27.8107 5.49089 30.7946 8.4743C33.7784 11.4577 35.4185 15.4144 35.4185 19.6356V37.3245C35.4185 37.5467 35.2281 37.7371 35.0059 37.7371Z" fill="#787EDA"/>
<path d="M31.1535 31.0719C31.0371 31.0719 30.9524 30.9766 30.9524 30.8708V19.6355C30.9524 16.6097 29.7779 13.7639 27.6299 11.6268C25.4925 9.48975 22.6462 8.30485 19.62 8.30485C19.5036 8.30485 19.4189 8.20964 19.4189 8.10384C19.4189 7.98747 19.5142 7.90283 19.62 7.90283C22.752 7.90283 25.6936 9.11947 27.9156 11.3412C30.1271 13.5523 31.3545 16.5039 31.3545 19.6355V30.8708C31.3545 30.9766 31.2699 31.0719 31.1535 31.0719Z" fill="#787EDA"/>
<path d="M31.1542 31.2834C30.9214 31.2834 30.7415 31.0929 30.7415 30.8708V19.6354C30.7415 16.6625 29.5881 13.8801 27.4825 11.7748C25.3874 9.6801 22.594 8.51636 19.6207 8.51636C19.3879 8.51636 19.208 8.32593 19.208 8.10376C19.208 7.88159 19.3985 7.69116 19.6207 7.69116C22.8056 7.69116 25.8107 8.92896 28.0645 11.193C30.3182 13.4464 31.5668 16.451 31.5668 19.6354V30.8708C31.5668 31.0929 31.3869 31.2834 31.1542 31.2834Z" fill="#787EDA"/>
<path d="M27.3127 24.7455C27.1963 24.7455 27.1116 24.6503 27.1116 24.5445V19.6356C27.1116 15.5096 23.7574 12.1559 19.6307 12.1559C19.5143 12.1559 19.4297 12.0607 19.4297 11.9549C19.4297 11.8491 19.5249 11.7539 19.6307 11.7539C23.9796 11.7539 27.5137 15.2874 27.5137 19.6356V24.5445C27.5137 24.6503 27.4291 24.7455 27.3127 24.7455Z" fill="#787EDA"/>
<path d="M27.3133 24.957C27.0806 24.957 26.9007 24.7666 26.9007 24.5444V19.6355C26.9007 15.6259 23.6417 12.3674 19.6314 12.3674C19.3986 12.3674 19.2188 12.177 19.2188 11.9548C19.2188 11.7327 19.4092 11.5422 19.6314 11.5422C24.0967 11.5422 27.726 15.171 27.726 19.6355V24.5444C27.726 24.7666 27.5461 24.957 27.3133 24.957Z" fill="#787EDA"/>
<path d="M0.413933 43.7884C0.29754 43.7884 0.212891 43.6932 0.212891 43.5874V23.5181C0.212891 23.4018 0.308121 23.3171 0.413933 23.3171C0.519745 23.3171 0.614976 23.4124 0.614976 23.5181V43.5874C0.614976 43.6932 0.530326 43.7884 0.413933 43.7884Z" fill="#787EDA"/>
<path d="M0.414619 43.9999C0.181833 43.9999 0.00195312 43.8095 0.00195312 43.5873V23.5181C0.00195312 23.2853 0.192414 23.1055 0.414619 23.1055C0.636824 23.1055 0.827285 23.2959 0.827285 23.5181V43.5873C0.827285 43.8095 0.647405 43.9999 0.414619 43.9999Z" fill="#787EDA"/>
<path d="M38.8426 43.7884C38.7263 43.7884 38.6416 43.6932 38.6416 43.5874V23.5181C38.6416 23.4018 38.7368 23.3171 38.8426 23.3171C38.9485 23.3171 39.0437 23.4124 39.0437 23.5181V43.5874C39.0437 43.6932 38.9485 43.7884 38.8426 43.7884Z" fill="#787EDA"/>
<path d="M38.8433 43.9999C38.6105 43.9999 38.4307 43.8095 38.4307 43.5873V23.5181C38.4307 23.2853 38.6211 23.1055 38.8433 23.1055C39.0655 23.1055 39.256 23.2959 39.256 23.5181V43.5873C39.256 43.8095 39.0655 43.9999 38.8433 43.9999Z" fill="#787EDA"/>
</g>
<defs>
<clipPath id="clip0_6893_10815">
<rect width="135" height="44" fill="white"/>
</clipPath>
</defs>
</svg>
