<?xml version="1.0" encoding="utf-8"?>
<!-- Generator: Adobe Adobe Illustrator 24.2.0, SVG Export Plug-In . SVG Version: 6.00 Build 0)  -->
<svg version="1.1" id="Layer_1" xmlns="http://www.w3.org/2000/svg" xmlns:xlink="http://www.w3.org/1999/xlink" x="0px" y="0px"
	 width="205px" height="78.1px" viewBox="0 0 205 78.1" style="enable-background:new 0 0 205 78.1;" xml:space="preserve">
<style type="text/css">
	.st0{fill:#FFFFFF;}
	.st1{fill:#231F20;}
	.st2{fill:#F1F1F8;}
	.st3{fill:#787EDA;}
	.st4{opacity:0.2;fill:#B2B7FF;enable-background:new    ;}
	.st5{fill:#B2B7FF;}
</style>
<path class="st2" d="M80.11,64.04V53.09c0-2.15,1.75-3.9,3.9-3.9h113.35c2.15,0,3.9,1.75,3.9,3.9v10.95c0,2.15-1.75,3.9-3.9,3.9
	H84.01C81.86,67.94,80.11,66.19,80.11,64.04z"/>
<g>
	<path class="st3" d="M112.38,53.55l-3.13,10.03h-1.22l-2.54-7.65c-0.02-0.07-0.04-0.15-0.07-0.24c-0.02-0.08-0.04-0.17-0.07-0.27
		c-0.02,0.09-0.05,0.18-0.07,0.27c-0.02,0.08-0.05,0.16-0.07,0.24l-2.55,7.65h-1.22l-3.13-10.03h1.13c0.12,0,0.22,0.03,0.3,0.09
		s0.13,0.14,0.16,0.23l2.07,6.97c0.03,0.13,0.06,0.26,0.09,0.41s0.06,0.3,0.09,0.46c0.03-0.16,0.07-0.32,0.1-0.47
		c0.04-0.15,0.07-0.28,0.12-0.4l2.36-6.97c0.03-0.08,0.08-0.15,0.17-0.22c0.08-0.07,0.18-0.1,0.3-0.1h0.39
		c0.12,0,0.22,0.03,0.29,0.09c0.07,0.06,0.13,0.14,0.17,0.23l2.35,6.97c0.04,0.12,0.08,0.25,0.12,0.39c0.03,0.14,0.07,0.29,0.1,0.44
		c0.02-0.15,0.05-0.3,0.08-0.44s0.06-0.27,0.09-0.39l2.08-6.97c0.02-0.08,0.08-0.16,0.16-0.22c0.08-0.07,0.18-0.1,0.3-0.1
		L112.38,53.55L112.38,53.55z"/>
	<path class="st3" d="M127.73,63.58h-1.05c-0.12,0-0.22-0.03-0.29-0.09c-0.07-0.06-0.13-0.14-0.17-0.23l-0.94-2.42h-4.5l-0.94,2.42
		c-0.03,0.08-0.08,0.16-0.16,0.22c-0.08,0.07-0.18,0.1-0.29,0.1h-1.05l4.01-10.03h1.37L127.73,63.58z M124.9,59.86l-1.58-4.08
		c-0.05-0.12-0.1-0.26-0.15-0.42c-0.05-0.16-0.1-0.33-0.15-0.51c-0.1,0.38-0.2,0.69-0.3,0.95l-1.58,4.07h3.76V59.86z"/>
	<path class="st3" d="M141.04,62.44v1.14h-5.69V53.55h1.35v8.89H141.04z"/>
	<path class="st3" d="M154.53,62.44v1.14h-5.69V53.55h1.35v8.89H154.53z"/>
	<path class="st3" d="M168.52,62.47l-0.01,1.11h-6.18V53.55h6.18v1.11h-4.82v3.33h3.91v1.06h-3.91v3.42H168.52z"/>
	<path class="st3" d="M183.5,54.69h-3.25v8.89h-1.35v-8.89h-3.25v-1.14h7.85V54.69z"/>
</g>
<path class="st3" d="M94.15,12.72c1.8,0,3.27,0.27,4.41,0.8c1.17,0.51,2.2,1.11,3.1,1.8c0.54,0.4,0.95,0.45,1.22,0.16
	c0.3-0.32,0.5-1.06,0.61-2.21h0.94c-0.05,0.99-0.1,2.19-0.12,3.61c-0.03,1.42-0.04,3.29-0.04,5.61h-0.94
	c-0.19-1.15-0.37-2.06-0.53-2.73c-0.16-0.7-0.37-1.28-0.61-1.76c-0.22-0.48-0.52-0.96-0.9-1.44c-0.84-1.1-1.91-1.88-3.18-2.37
	c-1.28-0.51-2.63-0.76-4.04-0.76c-1.33,0-2.55,0.33-3.63,1c-1.06,0.64-1.99,1.58-2.78,2.81c-0.76,1.23-1.36,2.71-1.8,4.45
	c-0.41,1.74-0.61,3.69-0.61,5.85c0,2.25,0.23,4.24,0.69,5.97c0.46,1.71,1.1,3.16,1.92,4.33c0.84,1.18,1.82,2.07,2.94,2.69
	c1.14,0.59,2.37,0.88,3.67,0.88c1.22,0,2.5-0.24,3.84-0.72c1.33-0.48,2.38-1.26,3.14-2.33c0.6-0.78,1.01-1.62,1.22-2.53
	c0.24-0.91,0.46-2.18,0.65-3.81h0.94c0,2.43,0.01,4.4,0.04,5.89c0.03,1.47,0.07,2.71,0.12,3.73h-0.94c-0.11-1.15-0.3-1.87-0.57-2.17
	c-0.24-0.29-0.67-0.25-1.27,0.12c-1.01,0.7-2.08,1.31-3.23,1.85c-1.12,0.51-2.56,0.76-4.33,0.76c-2.59,0-4.86-0.57-6.82-1.72
	c-1.93-1.15-3.44-2.81-4.53-4.97c-1.06-2.17-1.59-4.77-1.59-7.82c0-2.99,0.56-5.61,1.67-7.86c1.12-2.25,2.64-4,4.57-5.25
	C89.38,13.34,91.62,12.72,94.15,12.72z"/>
<path class="st3" d="M114.79,10.23v27.71c0,1.12,0.23,1.89,0.69,2.29c0.49,0.4,1.29,0.6,2.41,0.6v0.84
	c-0.46-0.03-1.17-0.05-2.12-0.08c-0.93-0.05-1.86-0.08-2.82-0.08c-0.93,0-1.86,0.03-2.82,0.08c-0.95,0.03-1.66,0.05-2.12,0.08v-0.84
	c1.12,0,1.91-0.2,2.37-0.6c0.49-0.4,0.73-1.16,0.73-2.29v-22.9c0-1.2-0.22-2.09-0.65-2.65c-0.44-0.59-1.25-0.88-2.45-0.88v-0.84
	c0.87,0.08,1.71,0.12,2.53,0.12c0.79,0,1.54-0.04,2.25-0.12C113.53,10.56,114.19,10.42,114.79,10.23z"/>
<path class="st3" d="M138.52,20.58v16.76c0,1.2,0.22,2.1,0.65,2.69c0.46,0.56,1.28,0.84,2.45,0.84v0.84
	c-0.84-0.08-1.69-0.12-2.53-0.12c-0.79,0-1.55,0.04-2.29,0.12c-0.71,0.08-1.36,0.23-1.96,0.44v-4.73c-0.68,1.74-1.65,2.98-2.9,3.73
	c-1.22,0.72-2.49,1.08-3.8,1.08c-0.95,0-1.78-0.13-2.49-0.4s-1.29-0.64-1.76-1.12c-0.52-0.53-0.87-1.23-1.06-2.08
	s-0.29-1.91-0.29-3.17V25.39c0-1.2-0.22-2.09-0.65-2.65c-0.44-0.59-1.25-0.88-2.45-0.88v-0.84c0.87,0.08,1.71,0.12,2.53,0.12
	c0.79,0,1.54-0.04,2.25-0.12c0.74-0.11,1.4-0.25,2-0.44v15.76c0,0.83,0.05,1.59,0.16,2.29c0.11,0.69,0.38,1.26,0.82,1.68
	c0.44,0.43,1.14,0.64,2.12,0.64c1.06,0,2-0.32,2.82-0.96c0.84-0.64,1.5-1.51,1.96-2.61c0.49-1.1,0.73-2.33,0.73-3.69v-8.3
	c0-1.2-0.22-2.09-0.65-2.65c-0.44-0.59-1.25-0.88-2.45-0.88v-0.84c0.87,0.08,1.71,0.12,2.53,0.12c0.79,0,1.54-0.04,2.25-0.12
	C137.25,20.91,137.92,20.76,138.52,20.58z"/>
<path class="st3" d="M150.28,14.36v6.7h6.04v0.8h-6.04v15.52c0,1.26,0.23,2.14,0.69,2.65s1.1,0.76,1.92,0.76
	c0.82,0,1.52-0.32,2.12-0.96c0.6-0.67,1.12-1.78,1.55-3.33l0.82,0.2c-0.27,1.55-0.82,2.86-1.63,3.93c-0.79,1.07-2.01,1.6-3.67,1.6
	c-0.93,0-1.69-0.12-2.29-0.36c-0.6-0.21-1.13-0.54-1.59-0.96c-0.6-0.62-1.02-1.35-1.27-2.21c-0.22-0.86-0.33-1.99-0.33-3.41V21.86
	h-3.92v-0.8h3.92v-6.14c0.68-0.03,1.33-0.08,1.96-0.16C149.19,14.68,149.76,14.55,150.28,14.36z"/>
<path class="st3" d="M168.35,20.46c0.87,0,1.71,0.11,2.53,0.32c0.82,0.21,1.55,0.53,2.2,0.96c0.63,0.4,1.1,0.87,1.43,1.4
	c0.33,0.51,0.49,1.07,0.49,1.68c0,0.72-0.2,1.28-0.61,1.68c-0.41,0.37-0.93,0.56-1.55,0.56c-0.6,0-1.13-0.17-1.59-0.52
	c-0.44-0.35-0.65-0.84-0.65-1.48c0-0.61,0.16-1.11,0.49-1.48c0.35-0.37,0.76-0.61,1.22-0.72c-0.27-0.48-0.76-0.88-1.47-1.2
	c-0.68-0.32-1.42-0.48-2.2-0.48c-0.68,0-1.36,0.16-2.04,0.48s-1.31,0.86-1.88,1.6c-0.57,0.72-1.03,1.72-1.39,3.01
	c-0.35,1.26-0.53,2.83-0.53,4.73c0,2.35,0.27,4.22,0.82,5.61s1.25,2.39,2.12,3.01c0.9,0.59,1.88,0.88,2.94,0.88
	c0.71,0,1.43-0.13,2.16-0.4c0.73-0.27,1.43-0.69,2.08-1.28c0.65-0.61,1.21-1.43,1.67-2.45l0.78,0.28c-0.27,0.86-0.72,1.72-1.35,2.61
	c-0.63,0.86-1.44,1.56-2.45,2.12c-1.01,0.56-2.25,0.84-3.72,0.84c-1.69,0-3.21-0.43-4.57-1.28c-1.36-0.86-2.45-2.07-3.27-3.65
	c-0.79-1.6-1.18-3.5-1.18-5.69s0.39-4.12,1.18-5.77c0.82-1.68,1.95-2.99,3.39-3.93C164.85,20.94,166.5,20.46,168.35,20.46z"/>
<path class="st3" d="M184.41,10.27v15c0.71-1.82,1.69-3.07,2.94-3.77c1.28-0.7,2.61-1.04,4-1.04c1.03,0,1.89,0.13,2.57,0.4
	c0.71,0.27,1.29,0.64,1.76,1.12c0.52,0.53,0.88,1.2,1.1,2.01c0.22,0.8,0.33,1.88,0.33,3.25v10.71c0,1.12,0.23,1.89,0.69,2.29
	c0.49,0.4,1.29,0.6,2.41,0.6v0.84c-0.46-0.03-1.17-0.05-2.12-0.08c-0.95-0.05-1.88-0.08-2.78-0.08s-1.78,0.03-2.65,0.08
	c-0.84,0.03-1.48,0.05-1.92,0.08v-0.84c0.98,0,1.67-0.2,2.08-0.6s0.61-1.16,0.61-2.29V26.36c0-0.83-0.07-1.59-0.2-2.29
	s-0.45-1.26-0.94-1.68c-0.46-0.43-1.18-0.64-2.16-0.64c-1.12,0-2.11,0.31-2.98,0.92c-0.84,0.61-1.51,1.47-2,2.57
	s-0.74,2.35-0.74,3.77v8.94c0,1.12,0.2,1.89,0.61,2.29s1.1,0.6,2.08,0.6v0.84c-0.44-0.03-1.09-0.05-1.96-0.08
	c-0.84-0.05-1.71-0.08-2.61-0.08s-1.82,0.03-2.78,0.08c-0.95,0.03-1.66,0.05-2.12,0.08v-0.84c1.12,0,1.91-0.2,2.37-0.6
	c0.49-0.4,0.73-1.16,0.73-2.29V15.08c0-1.2-0.22-2.09-0.65-2.65c-0.44-0.59-1.25-0.88-2.45-0.88v-0.84
	c0.87,0.08,1.71,0.12,2.53,0.12c0.79,0,1.54-0.04,2.25-0.12C183.14,10.6,183.81,10.46,184.41,10.27z"/>
<path class="st3" d="M60.02,67.68H4.12c-0.11,0-0.2-0.06-0.26-0.15c-0.05-0.09-0.05-0.2,0-0.29l27.95-45.9
	c0.05-0.09,0.15-0.14,0.25-0.14c0.11,0,0.2,0.05,0.25,0.14l27.95,45.9c0.06,0.09,0.06,0.2,0,0.29
	C60.22,67.62,60.12,67.68,60.02,67.68z M4.64,67.09H59.5L32.07,22.05L4.64,67.09z"/>
<path class="st3" d="M60.02,67.98H4.12c-0.22,0-0.42-0.12-0.52-0.31c-0.11-0.18-0.11-0.42,0.02-0.6l27.95-45.9
	c0.11-0.18,0.31-0.29,0.51-0.29c0.22,0,0.4,0.11,0.51,0.29l27.95,45.9c0.11,0.18,0.12,0.42,0.02,0.6
	C60.43,67.86,60.23,67.98,60.02,67.98z M5.19,66.78h53.76L32.06,22.64L5.19,66.78z"/>
<path class="st3" d="M4.11,38.48c-0.17,0-0.29-0.14-0.29-0.29v-5.65c0-3.82,0.75-7.51,2.22-10.99c1.42-3.37,3.46-6.39,6.05-8.97
	c2.59-2.59,5.62-4.63,8.97-6.05c3.49-1.48,7.19-2.23,11.01-2.23c0.17,0,0.29,0.14,0.29,0.29s-0.14,0.29-0.29,0.29
	c-3.74,0-7.36,0.74-10.76,2.17c-3.29,1.39-6.25,3.39-8.79,5.93c-2.56,2.54-4.54,5.51-5.94,8.8c-1.45,3.42-2.17,7.03-2.17,10.76v5.65
	C4.4,38.35,4.28,38.48,4.11,38.48z"/>
<path class="st3" d="M4.11,38.79c-0.34,0-0.6-0.28-0.6-0.6v-5.65c0-3.85,0.75-7.59,2.25-11.11c1.43-3.4,3.49-6.45,6.13-9.08
	c2.62-2.62,5.68-4.68,9.08-6.13c3.51-1.48,7.25-2.23,11.1-2.23c0.34,0,0.6,0.28,0.6,0.6s-0.28,0.6-0.6,0.6
	c-3.69,0-7.28,0.72-10.65,2.15c-3.26,1.37-6.19,3.36-8.7,5.86c-2.51,2.51-4.48,5.43-5.86,8.7c-1.43,3.37-2.15,6.96-2.15,10.65v5.65
	C4.71,38.52,4.45,38.79,4.11,38.79z"/>
<path class="st3" d="M9.7,58.56c-0.17,0-0.29-0.14-0.29-0.29V32.53c0-6.05,2.35-11.74,6.63-16.02s9.97-6.63,16.02-6.63
	c0.17,0,0.29,0.14,0.29,0.29c0,0.17-0.14,0.29-0.29,0.29c-5.9,0-11.44,2.29-15.61,6.46s-6.46,9.71-6.46,15.61v25.74
	C9.99,58.43,9.87,58.56,9.7,58.56z"/>
<path class="st3" d="M9.7,58.87c-0.34,0-0.6-0.28-0.6-0.6V32.53c0-6.13,2.39-11.9,6.73-16.24c4.34-4.34,10.1-6.73,16.24-6.73
	c0.34,0,0.6,0.28,0.6,0.6s-0.28,0.6-0.6,0.6c-5.82,0-11.28,2.26-15.39,6.37s-6.37,9.57-6.37,15.39v25.74
	C10.3,58.6,10.04,58.87,9.7,58.87z"/>
<path class="st3" d="M15.29,49.18c-0.17,0-0.29-0.14-0.29-0.29V32.54c0-4.56,1.77-8.83,5-12.07c3.22-3.22,7.51-5,12.07-5
	c0.17,0,0.29,0.14,0.29,0.29c0,0.17-0.14,0.29-0.29,0.29c-4.4,0-8.54,1.71-11.65,4.83c-3.11,3.11-4.83,7.25-4.83,11.65v16.35
	C15.58,49.04,15.46,49.18,15.29,49.18z"/>
<path class="st3" d="M15.29,49.48c-0.34,0-0.6-0.28-0.6-0.6V32.53c0-4.63,1.8-9,5.09-12.28c3.28-3.28,7.65-5.09,12.28-5.09
	c0.34,0,0.6,0.28,0.6,0.6c0,0.32-0.28,0.6-0.6,0.6c-4.33,0-8.37,1.68-11.44,4.74c-3.05,3.05-4.74,7.11-4.74,11.44v16.35
	C15.89,49.21,15.63,49.48,15.29,49.48z"/>
<path class="st3" d="M20.89,39.97c-0.17,0-0.29-0.14-0.29-0.29v-7.14c0-6.33,5.14-11.47,11.47-11.47c0.17,0,0.29,0.14,0.29,0.29
	s-0.14,0.29-0.29,0.29c-6,0-10.88,4.88-10.88,10.88v7.14C21.18,39.83,21.04,39.97,20.89,39.97z"/>
<path class="st3" d="M20.89,40.28c-0.34,0-0.6-0.28-0.6-0.6v-7.14c0-6.5,5.28-11.77,11.77-11.77c0.34,0,0.6,0.28,0.6,0.6
	s-0.28,0.6-0.6,0.6c-5.83,0-10.57,4.74-10.57,10.57v7.14C21.49,40,21.21,40.28,20.89,40.28z"/>
<path class="st3" d="M60.02,38.48c-0.17,0-0.29-0.14-0.29-0.29v-5.65c0-3.74-0.74-7.36-2.17-10.76c-1.39-3.29-3.39-6.25-5.93-8.79
	c-2.56-2.56-5.51-4.54-8.8-5.94C39.41,5.6,35.8,4.88,32.07,4.88c-0.17,0-0.29-0.14-0.29-0.29s0.14-0.29,0.29-0.29
	c3.82,0,7.51,0.75,10.99,2.22c3.37,1.42,6.39,3.46,8.97,6.05c2.6,2.6,4.63,5.62,6.05,8.97c1.48,3.48,2.22,7.19,2.22,10.99v5.65
	C60.31,38.35,60.17,38.48,60.02,38.48z"/>
<path class="st3" d="M60.02,38.79c-0.34,0-0.6-0.28-0.6-0.6v-5.65c0-3.69-0.72-7.28-2.15-10.65c-1.37-3.26-3.36-6.19-5.86-8.7
	c-2.51-2.51-5.43-4.48-8.7-5.86c-3.37-1.43-6.96-2.15-10.65-2.15c-0.34,0-0.6-0.28-0.6-0.6s0.28-0.6,0.6-0.6
	c3.85,0,7.59,0.75,11.11,2.25c3.4,1.43,6.45,3.49,9.08,6.13c2.62,2.62,4.68,5.68,6.13,9.08c1.49,3.52,2.25,7.27,2.25,11.11v5.65
	C60.62,38.52,60.34,38.79,60.02,38.79z"/>
<path class="st3" d="M54.43,58.56c-0.17,0-0.29-0.14-0.29-0.29V32.53c0-5.9-2.29-11.44-6.46-15.61s-9.71-6.46-15.61-6.46
	c-0.17,0-0.29-0.14-0.29-0.29c0-0.17,0.14-0.29,0.29-0.29c6.05,0,11.74,2.35,16.02,6.63s6.63,9.97,6.63,16.02v25.74
	C54.72,58.43,54.58,58.56,54.43,58.56z"/>
<path class="st3" d="M54.43,58.87c-0.34,0-0.6-0.28-0.6-0.6V32.53c0-5.82-2.26-11.28-6.37-15.39s-9.57-6.37-15.39-6.37
	c-0.34,0-0.6-0.28-0.6-0.6s0.28-0.6,0.6-0.6c6.13,0,11.9,2.39,16.24,6.73s6.73,10.1,6.73,16.24v25.74
	C55.03,58.6,54.75,58.87,54.43,58.87z"/>
<path class="st3" d="M48.83,49.18c-0.17,0-0.29-0.14-0.29-0.29V32.54c0-4.4-1.71-8.54-4.83-11.65c-3.11-3.11-7.25-4.83-11.65-4.83
	c-0.17,0-0.29-0.14-0.29-0.29c0-0.17,0.14-0.29,0.29-0.29c4.56,0,8.84,1.77,12.07,5c3.22,3.22,5,7.51,5,12.07V48.9
	C49.12,49.04,49,49.18,48.83,49.18z"/>
<path class="st3" d="M48.83,49.48c-0.34,0-0.6-0.28-0.6-0.6V32.53c0-4.33-1.68-8.37-4.74-11.44c-3.05-3.05-7.11-4.74-11.44-4.74
	c-0.34,0-0.6-0.28-0.6-0.6c0-0.32,0.28-0.6,0.6-0.6c4.63,0,9,1.8,12.28,5.09c3.28,3.28,5.09,7.65,5.09,12.28v16.35
	C49.43,49.21,49.16,49.48,48.83,49.48z"/>
<path class="st3" d="M43.24,39.97c-0.17,0-0.29-0.14-0.29-0.29v-7.14c0-6-4.88-10.88-10.88-10.88c-0.17,0-0.29-0.14-0.29-0.29
	s0.14-0.29,0.29-0.29c6.33,0,11.47,5.14,11.47,11.47v7.14C43.53,39.83,43.41,39.97,43.24,39.97z"/>
<path class="st3" d="M43.24,40.28c-0.34,0-0.6-0.28-0.6-0.6v-7.14c0-5.83-4.74-10.57-10.57-10.57c-0.34,0-0.6-0.28-0.6-0.6
	s0.28-0.6,0.6-0.6c6.5,0,11.77,5.28,11.77,11.77v7.14C43.84,40,43.58,40.28,43.24,40.28z"/>
<path class="st3" d="M4.11,67.68c-0.17,0-0.29-0.14-0.29-0.29v-29.2c0-0.17,0.14-0.29,0.29-0.29s0.29,0.14,0.29,0.29v29.2
	C4.4,67.54,4.28,67.68,4.11,67.68z"/>
<path class="st3" d="M4.11,67.98c-0.34,0-0.6-0.28-0.6-0.6v-29.2c0-0.34,0.28-0.6,0.6-0.6s0.6,0.28,0.6,0.6v29.2
	C4.71,67.71,4.45,67.98,4.11,67.98z"/>
<path class="st3" d="M60.02,67.68c-0.17,0-0.29-0.14-0.29-0.29v-29.2c0-0.17,0.14-0.29,0.29-0.29s0.29,0.14,0.29,0.29v29.2
	C60.31,67.54,60.17,67.68,60.02,67.68z"/>
<path class="st3" d="M60.02,67.98c-0.34,0-0.6-0.28-0.6-0.6v-29.2c0-0.34,0.28-0.6,0.6-0.6s0.6,0.28,0.6,0.6v29.2
	C60.62,67.71,60.34,67.98,60.02,67.98z"/>
</svg>