<svg width="17" height="19" viewBox="0 0 17 19" fill="none" xmlns="http://www.w3.org/2000/svg">
<path fill-rule="evenodd" clip-rule="evenodd" d="M1.83729 1.43697C1.73555 1.43697 1.63798 1.47693 1.56604 1.54804C1.4941 1.61915 1.45368 1.71561 1.45368 1.81618V17.1838C1.45368 17.2844 1.4941 17.3808 1.56604 17.452C1.63798 17.5231 1.73555 17.563 1.83729 17.563H14.0523C14.4485 17.563 14.8285 17.4074 15.1087 17.1305C15.3889 16.8535 15.5463 16.4778 15.5463 16.0861V2.91387C15.5463 2.52217 15.3889 2.14652 15.1087 1.86955C14.8285 1.59258 14.4485 1.43697 14.0523 1.43697H1.83729ZM0.538131 0.531946C0.882689 0.191347 1.35001 0 1.83729 0H14.0523C14.834 0 15.5838 0.306996 16.1366 0.853451C16.6894 1.39991 17 2.14106 17 2.91387V16.0861C17 16.8589 16.6894 17.6001 16.1366 18.1465C15.5838 18.693 14.834 19 14.0523 19H1.83729C1.35001 19 0.88269 18.8087 0.538131 18.4681C0.193571 18.1275 0 17.6655 0 17.1838V1.81618C0 1.3345 0.193572 0.872545 0.538131 0.531946ZM10 4.75C10 4.33579 10.3542 4 10.7912 4H13.2088C13.6458 4 14 4.33579 14 4.75C14 5.16421 13.6458 5.5 13.2088 5.5H10.7912C10.3542 5.5 10 5.16421 10 4.75ZM10.7912 7.5C10.3542 7.5 10 7.83579 10 8.25C10 8.66421 10.3542 9 10.7912 9H13.2088C13.6458 9 14 8.66421 14 8.25C14 7.83579 13.6458 7.5 13.2088 7.5H10.7912Z" fill="#6D6F96"/>
</svg>
