<svg width="18" height="18" viewBox="0 0 18 18" fill="none" xmlns="http://www.w3.org/2000/svg"><path d="M11.8216 10.1404C12.195 9.85582 12.4976 9.48772 12.7053 9.0652C12.9131 8.64268 13.0205 8.17733 13.0189 7.70588C13.0189 6.89073 12.6972 6.10897 12.1246 5.53257C11.5519 4.95617 10.7752 4.63235 9.96536 4.63235C9.1555 4.63235 8.37881 4.95617 7.80616 5.53257C7.2335 6.10897 6.91179 6.89073 6.91179 7.70588C6.91023 8.17733 7.01758 8.64268 7.22538 9.0652C7.43317 9.48772 7.73571 9.85582 8.10911 10.1404C7.15932 10.5009 6.33139 11.1266 5.7225 11.9441C5.64578 12.0471 5.61284 12.1765 5.63092 12.3039C5.649 12.4313 5.71663 12.5463 5.81893 12.6235C5.92123 12.7008 6.04981 12.7339 6.1764 12.7157C6.30299 12.6975 6.41721 12.6294 6.49393 12.5265C6.89812 11.984 7.42224 11.5438 8.02477 11.2405C8.62731 10.9373 9.29171 10.7794 9.96536 10.7794C10.639 10.7794 11.3034 10.9373 11.9059 11.2405C12.5085 11.5438 13.0326 11.984 13.4368 12.5265C13.4748 12.5775 13.5224 12.6204 13.5769 12.6529C13.6313 12.6853 13.6916 12.7067 13.7543 12.7157C13.817 12.7247 13.8808 12.7212 13.9422 12.7054C14.0035 12.6896 14.0611 12.6618 14.1118 12.6235C14.1624 12.5853 14.2051 12.5374 14.2374 12.4825C14.2696 12.4277 14.2908 12.367 14.2998 12.3039C14.3088 12.2408 14.3053 12.1766 14.2896 12.1149C14.2738 12.0531 14.2462 11.9951 14.2082 11.9441C13.5993 11.1266 12.7714 10.5009 11.8216 10.1404ZM7.87607 7.70588C7.87607 7.28996 7.99861 6.88338 8.22818 6.53755C8.45776 6.19172 8.78406 5.92218 9.16582 5.76302C9.54759 5.60385 9.96768 5.56221 10.373 5.64335C10.7782 5.72449 11.1505 5.92478 11.4427 6.21888C11.7349 6.51298 11.9339 6.88769 12.0145 7.29562C12.0951 7.70355 12.0537 8.12638 11.8956 8.51064C11.7375 8.89491 11.4697 9.22334 11.1261 9.45441C10.7825 9.68549 10.3786 9.80882 9.96536 9.80882C9.4119 9.80669 8.88171 9.58445 8.49035 9.19053C8.09899 8.79662 7.87819 8.26296 7.87607 7.70588ZM16.5 0.75H3.42857C3.1302 0.75 2.84405 0.869301 2.63308 1.08166C2.4221 1.29402 2.30357 1.58203 2.30357 1.88235V3.66176H0.857143C0.729271 3.66176 0.606636 3.71289 0.516216 3.8039C0.425797 3.89491 0.375 4.01835 0.375 4.14706C0.375 4.27577 0.425797 4.3992 0.516216 4.49021C0.606636 4.58122 0.729271 4.63235 0.857143 4.63235H2.30357V6.89706H0.857143C0.729271 6.89706 0.606636 6.94819 0.516216 7.0392C0.425797 7.13021 0.375 7.25365 0.375 7.38235C0.375 7.51106 0.425797 7.6345 0.516216 7.72551C0.606636 7.81652 0.729271 7.86765 0.857143 7.86765H2.30357V10.1324H0.857143C0.729271 10.1324 0.606636 10.1835 0.516216 10.2745C0.425797 10.3655 0.375 10.4889 0.375 10.6176C0.375 10.7464 0.425797 10.8698 0.516216 10.9608C0.606636 11.0518 0.729271 11.1029 0.857143 11.1029H2.30357V13.3676H0.857143C0.729271 13.3676 0.606636 13.4188 0.516216 13.5098C0.425797 13.6008 0.375 13.7242 0.375 13.8529C0.375 13.9816 0.425797 14.1051 0.516216 14.1961C0.606636 14.2871 0.729271 14.3382 0.857143 14.3382H2.30357V16.1176C2.30357 16.418 2.4221 16.706 2.63308 16.9183C2.84405 17.1307 3.1302 17.25 3.42857 17.25H16.5C16.7984 17.25 17.0845 17.1307 17.2955 16.9183C17.5065 16.706 17.625 16.418 17.625 16.1176V1.88235C17.625 1.58203 17.5065 1.29402 17.2955 1.08166C17.0845 0.869301 16.7984 0.75 16.5 0.75ZM16.6607 16.1176C16.6607 16.1606 16.6438 16.2017 16.6136 16.232C16.5835 16.2624 16.5426 16.2794 16.5 16.2794H3.42857C3.38595 16.2794 3.34507 16.2624 3.31493 16.232C3.28479 16.2017 3.26786 16.1606 3.26786 16.1176V1.88235C3.26786 1.83945 3.28479 1.7983 3.31493 1.76797C3.34507 1.73763 3.38595 1.72059 3.42857 1.72059H16.5C16.5426 1.72059 16.5835 1.73763 16.6136 1.76797C16.6438 1.7983 16.6607 1.83945 16.6607 1.88235V16.1176Z" fill="#9EA0B7"></path></svg>