<svg width="24" height="24" viewBox="0 0 24 24" fill="none" xmlns="http://www.w3.org/2000/svg" class="theme-dark-invert" style="display: flex;"><rect width="24" height="24" rx="12" fill="#fff"></rect><path d="M17.553 12.303c.01-.742.211-1.47.585-2.116a4.444 4.444 0 011.555-1.578 4.571 4.571 0 00-1.58-1.38 4.676 4.676 0 00-2.045-.54c-1.525-.156-3.003.895-3.78.895-.793 0-1.99-.879-3.278-.853a4.901 4.901 0 00-2.358.69 4.774 4.774 0 00-1.705 1.737c-1.756 2.979-.446 7.357 1.237 9.765.842 1.179 1.825 2.496 3.113 2.45 1.26-.052 1.73-.788 3.25-.788 1.507 0 1.949.787 3.262.758 1.352-.022 2.204-1.185 3.016-2.375a9.67 9.67 0 001.38-2.751 4.325 4.325 0 01-1.928-1.566 4.193 4.193 0 01-.724-2.348zM15.072 5.106A4.277 4.277 0 0016.084 2a4.534 4.534 0 00-2.913 1.477c-.365.407-.645.88-.823 1.394a4.047 4.047 0 00-.216 1.596 3.788 3.788 0 001.63-.35c.509-.235.957-.581 1.31-1.011z" fill="#000"></path></svg>