<svg width="20" height="16" viewBox="0 0 20 16" fill="none" xmlns="http://www.w3.org/2000/svg">
<path d="M6.18704 12.658L2.01662 8.48307C1.90757 8.37256 1.77769 8.28483 1.63451 8.22495C1.49134 8.16507 1.33771 8.13423 1.18254 8.13423C1.02737 8.13423 0.873744 8.16507 0.730567 8.22495C0.58739 8.28483 0.45751 8.37256 0.348456 8.48307C0.238071 8.59224 0.150431 8.72226 0.0906156 8.86559C0.0308004 9.00893 0 9.16272 0 9.31806C0 9.4734 0.0308004 9.62719 0.0906156 9.77053C0.150431 9.91386 0.238071 10.0439 0.348456 10.1531L5.34104 15.1511C5.80575 15.6163 6.55642 15.6163 7.02113 15.1511L19.6515 2.51882C19.7619 2.40965 19.8496 2.27963 19.9094 2.1363C19.9692 1.99296 20 1.83917 20 1.68383C20 1.52849 19.9692 1.3747 19.9094 1.23136C19.8496 1.08803 19.7619 0.958009 19.6515 0.848836C19.5425 0.738331 19.4126 0.650595 19.2694 0.590714C19.1263 0.530834 18.9726 0.5 18.8175 0.5C18.6623 0.5 18.5087 0.530834 18.3655 0.590714C18.2223 0.650595 18.0924 0.738331 17.9834 0.848836L6.18704 12.658Z" fill="#1DB981"/>
</svg>
