<svg width="14" height="14" viewBox="0 0 14 14" fill="none" xmlns="http://www.w3.org/2000/svg">
<path d="M13 1.00002C12.5858 0.585816 11.9142 0.585813 11.5 1.00002L7 5.50003L2.49999 1.00002C2.08577 0.585804 1.41421 0.585791 0.999983 1.00002C0.585781 1.41422 0.585768 2.08581 0.999982 2.50002L5.5 7.00003L0.999982 11.5C0.585756 11.9143 0.585765 12.5859 0.999967 13.0001C1.41419 13.4143 2.08576 13.4143 2.49999 13.0001L7 8.50004L11.5 13.0001C11.9142 13.4143 12.5858 13.4143 13 13.0001C13.4142 12.5858 13.4142 11.9143 13 11.5L8.5 7.00003L13 2.50002C13.4142 2.08582 13.4142 1.41424 13 1.00002Z" fill="#3F4271"/>
</svg>
