<svg width="40" height="40" viewBox="0 0 40 40" fill="none" xmlns="http://www.w3.org/2000/svg"><path d="M0 9C0 4.02944 4.02944 0 9 0H31C35.9706 0 40 4.02944 40 9V31C40 35.9706 35.9706 40 31 40H9C4.02944 40 0 35.9706 0 31V9Z" fill="#B2B7FF" fill-opacity="0.2"></path><path d="M18.875 19.125H19.125V18.875V12.125C19.125 11.6418 19.5168 11.25 20 11.25C20.4833 11.25 20.875 11.6418 20.875 12.125V18.875V19.125H21.125H27.875C28.3582 19.125 28.75 19.5167 28.75 20C28.75 20.4832 28.3582 20.875 27.875 20.875H21.125H20.875V21.125V27.875C20.875 28.3583 20.4833 28.75 20 28.75C19.5168 28.75 19.125 28.3583 19.125 27.875V21.125V20.875H18.875H12.125C11.6418 20.875 11.25 20.4832 11.25 20C11.25 19.5167 11.6417 19.125 12.125 19.125H18.875Z" fill="#3F4271" stroke="#F0F1FF" stroke-width="0.5"></path></svg>