<svg width="28" height="28" viewBox="0 0 28 28" fill="none" xmlns="http://www.w3.org/2000/svg"><path d="M0 14C0 6.26801 6.26801 0 14 0C21.732 0 28 6.26801 28 14C28 21.732 21.732 28 14 28C6.26801 28 0 21.732 0 14Z" fill="#B2B7FF" fill-opacity="0.2"></path><path d="M20.5112 11.3195V12.3011V14.5884V17.2143V19.2165V19.6749V19.7138V19.7203C20.5112 19.7365 20.5112 19.751 20.5096 19.7656C20.5079 19.785 20.5079 19.8029 20.5063 19.8223C20.5047 19.8401 20.5047 19.8369 20.5079 19.8126C20.5063 19.8272 20.5031 19.8417 20.4998 19.8563C20.4934 19.892 20.4836 19.9276 20.4723 19.9616C20.4674 19.9762 20.4642 19.9892 20.4593 20.0021C20.4577 20.0086 20.4286 20.0734 20.4512 20.0248C20.4367 20.0572 20.4205 20.0896 20.4026 20.1204C20.3962 20.1333 20.3881 20.1447 20.38 20.156C20.3751 20.1625 20.3346 20.2208 20.3492 20.2014C20.3702 20.1738 20.3265 20.2273 20.3281 20.2257C20.3168 20.2386 20.3038 20.2516 20.2925 20.2645C20.2682 20.2905 20.2423 20.3131 20.2147 20.3374C20.205 20.3455 20.1678 20.3731 20.205 20.3455C20.1904 20.3553 20.1759 20.3666 20.1613 20.3763C20.1289 20.3974 20.0949 20.4168 20.0592 20.4346C20.0528 20.4379 19.9896 20.467 20.0398 20.446C20.0268 20.4508 20.0123 20.4557 19.9993 20.4605C19.9653 20.4735 19.9296 20.4832 19.8956 20.4913C19.8746 20.4962 19.8519 20.501 19.8308 20.5043C19.8211 20.5059 19.7838 20.5091 19.8292 20.5043C19.7919 20.5075 19.7547 20.5108 19.7158 20.5108H19.6964H19.5603H18.9415H16.7595H14.1223H11.9922H11.4285H11.3183H11.3118C11.2891 20.5108 11.2665 20.5108 11.2438 20.5091C11.2292 20.5075 11.2146 20.5059 11.1984 20.5059C11.2519 20.5108 11.1758 20.501 11.1644 20.4994C11.1288 20.4913 11.0931 20.4832 11.0591 20.4719C11.0445 20.467 10.9619 20.433 11.0057 20.4541C10.9733 20.4395 10.9409 20.4233 10.9101 20.4055C10.8923 20.3941 10.8728 20.3828 10.8566 20.3715C10.8518 20.3682 10.7967 20.3277 10.8372 20.3585C10.7821 20.3148 10.7335 20.2629 10.6865 20.2095C10.6412 20.1593 10.7092 20.2483 10.6736 20.1916C10.6655 20.1803 10.6574 20.169 10.6493 20.156C10.6266 20.1204 10.6072 20.0815 10.5861 20.0442C10.5651 20.0037 10.5813 20.0329 10.5845 20.0426C10.5764 20.0232 10.5683 20.0021 10.5618 19.9811C10.5505 19.9471 10.5408 19.9114 10.5327 19.8758C10.5294 19.8612 10.5278 19.8466 10.5246 19.832C10.51 19.7624 10.5262 19.879 10.5213 19.8077C10.5197 19.777 10.5181 19.7478 10.5181 19.717V19.6425V19.1274V17.075V14.4345V12.1959V11.5285V11.3568V11.3211V11.3146C10.5181 11.292 10.5181 11.2693 10.5197 11.2466C10.5197 11.2401 10.5294 11.1672 10.5213 11.2223C10.5246 11.2012 10.5294 11.1786 10.5327 11.1575C10.5408 11.1219 10.5505 11.0862 10.5618 11.0522C10.5683 11.0344 10.5732 11.0182 10.5796 11.002C10.5942 10.9631 10.5537 11.0506 10.5845 10.9907C10.6007 10.9599 10.6169 10.9275 10.6363 10.8967C10.646 10.8821 10.6558 10.8675 10.6655 10.8513C10.672 10.8432 10.6768 10.8335 10.6833 10.8254C10.6671 10.8465 10.6671 10.8465 10.6849 10.8238C10.7319 10.7704 10.7805 10.7201 10.8356 10.6748C10.7967 10.7056 10.8777 10.6472 10.8906 10.6391C10.9247 10.6181 10.9587 10.6003 10.9943 10.5841C11.0316 10.5662 10.9409 10.6019 11.0057 10.5792C11.0235 10.5727 11.0397 10.5662 11.0575 10.5614C11.0915 10.55 11.1272 10.5403 11.1628 10.5339C11.1806 10.5306 11.1984 10.5274 11.2179 10.5241C11.1725 10.5306 11.2098 10.5258 11.2195 10.5241C11.2503 10.5225 11.2794 10.5209 11.3102 10.5209H11.3313H11.7346H13.6526H16.2752H18.6127C18.9771 10.5209 19.3416 10.5177 19.7061 10.5209H19.7109C19.7417 10.5209 19.7709 10.5225 19.8017 10.5241C19.8503 10.5274 19.8146 10.5258 19.8033 10.5241C19.8243 10.5274 19.847 10.5322 19.8681 10.5355C19.9037 10.5436 19.9394 10.5533 19.9734 10.5646C19.9863 10.5695 20.0009 10.5743 20.0139 10.5792C20.0787 10.6019 19.975 10.5565 20.0349 10.5889C20.0657 10.6051 20.0981 10.6213 20.1289 10.6408C20.1418 10.6489 20.2228 10.7056 20.184 10.6764C20.239 10.7201 20.2876 10.772 20.3346 10.8254C20.3411 10.8319 20.3621 10.8627 20.3362 10.827C20.3492 10.8449 20.3605 10.8611 20.3719 10.8789C20.3913 10.908 20.4091 10.9404 20.4253 10.9712C20.4318 10.9842 20.4383 10.9971 20.4431 11.0101C20.4205 10.9615 20.448 11.0263 20.4512 11.0328C20.4626 11.0636 20.4723 11.0943 20.4804 11.1267C20.4853 11.1445 20.4885 11.1624 20.4917 11.1802C20.4917 11.1786 20.5015 11.2498 20.4982 11.2142C20.4934 11.1769 20.5015 11.2515 20.4998 11.2482C20.5112 11.2741 20.5112 11.2968 20.5112 11.3195C20.5128 11.4458 20.6213 11.569 20.7542 11.5625C20.8854 11.556 20.9988 11.4556 20.9971 11.3195C20.989 10.6181 20.4189 10.0463 19.7174 10.0398C19.6202 10.0382 19.523 10.0398 19.4275 10.0398H17.6067H14.976H12.5478C12.1428 10.0398 11.7378 10.0382 11.3329 10.0398C10.7789 10.0414 10.2929 10.3848 10.1066 10.9064C10.0386 11.0976 10.0386 11.2952 10.0386 11.4945V13.1516V15.7386V18.2446V19.6571C10.0386 20.0427 10.1698 20.4185 10.4678 20.676C10.706 20.8817 11.0024 20.9968 11.3183 21H11.4041H12.8783H15.3972H17.9679H19.5732C19.8227 21 20.0592 20.9757 20.2892 20.8656C20.7363 20.6517 20.9971 20.1803 20.9988 19.6944V18.4179V15.9654V13.346V11.5722V11.3179C20.9988 11.1915 20.887 11.0684 20.7558 11.0749C20.6229 11.083 20.5112 11.1834 20.5112 11.3195L20.5112 11.3195Z" fill="black"></path><path d="M8.27304 17.4717C8.25036 17.4717 8.22769 17.4717 8.20501 17.4701C8.20663 17.4701 8.13373 17.4636 8.17099 17.4685C8.20663 17.4733 8.13535 17.462 8.13697 17.462C8.11591 17.4571 8.09323 17.4523 8.07218 17.4474C8.03654 17.4377 8.00252 17.4263 7.9685 17.415C7.90371 17.3923 7.99442 17.428 7.95716 17.4101C7.93449 17.3988 7.91181 17.3875 7.89075 17.3761C7.85997 17.3583 7.83081 17.3389 7.80003 17.3194C7.74334 17.2822 7.83243 17.3502 7.78222 17.3065C7.77088 17.2968 7.76116 17.2887 7.74982 17.2789C7.7239 17.2546 7.69798 17.2303 7.6753 17.2044C7.66072 17.1882 7.64776 17.172 7.63481 17.1558C7.6672 17.1963 7.62185 17.1364 7.61699 17.1283C7.59593 17.0959 7.57649 17.0619 7.55867 17.0262C7.55219 17.0133 7.54571 17.0003 7.54085 16.9874C7.56353 17.036 7.53599 16.9712 7.53275 16.9647C7.51979 16.9307 7.51007 16.895 7.50197 16.861C7.49711 16.8432 7.49387 16.8254 7.49063 16.8076C7.48901 16.7962 7.48739 16.7865 7.48577 16.7752C7.48901 16.8027 7.48901 16.8027 7.48577 16.7735C7.48415 16.7395 7.48253 16.7055 7.48253 16.6699V16.273V14.2659V11.5429V9.18271V8.48291V8.31445V8.28367C7.48253 8.26423 7.48253 8.24479 7.48415 8.22373C7.48577 8.20429 7.48739 8.18648 7.48901 8.16703C7.48415 8.22211 7.49225 8.15084 7.49387 8.14436C7.50197 8.10224 7.51331 8.0585 7.52789 8.01801C7.53275 8.00505 7.53761 7.99047 7.54247 7.97751C7.56515 7.91271 7.51979 8.01639 7.55219 7.95645C7.56839 7.92567 7.58459 7.89327 7.60402 7.8625C7.61536 7.84468 7.62832 7.82686 7.63966 7.80904C7.64452 7.80094 7.6672 7.77178 7.63966 7.80742C7.66558 7.7734 7.69474 7.74262 7.72551 7.71346C7.74009 7.69888 7.75629 7.68431 7.77249 7.66973C7.77087 7.67135 7.82595 7.62761 7.79679 7.64867C7.76925 7.66973 7.82595 7.62923 7.82433 7.63085C7.84214 7.61951 7.85996 7.60817 7.87778 7.59683C7.90856 7.57901 7.94096 7.56282 7.97336 7.54824C7.93286 7.56767 7.96688 7.55148 7.97498 7.54824C8.00252 7.53852 8.03005 7.5288 8.05759 7.5207C8.09323 7.51098 8.12887 7.50288 8.16451 7.4964C8.23416 7.48182 8.11753 7.4964 8.1888 7.49316C8.20338 7.49316 8.21958 7.49154 8.23416 7.48992C8.25036 7.48992 8.26656 7.4883 8.28276 7.4883H8.31839H8.79141H10.8908H13.6398H15.9173H16.5442H16.6706H16.6803H16.6819C16.6965 7.4883 16.7127 7.4883 16.7273 7.48992C16.737 7.48992 16.8293 7.49964 16.7743 7.49154C16.8471 7.50288 16.9168 7.52232 16.9848 7.54662C17.0496 7.56929 16.9589 7.53366 16.9962 7.55148C17.0124 7.55958 17.0286 7.56767 17.0448 7.57577C17.082 7.59521 17.1177 7.61951 17.1533 7.64219C17.21 7.67945 17.1209 7.61141 17.1711 7.65515C17.1825 7.66487 17.1922 7.67297 17.2035 7.68269C17.2327 7.70861 17.2602 7.73614 17.2861 7.7653C17.2975 7.77826 17.3088 7.79122 17.3202 7.8058C17.2878 7.76368 17.3283 7.82038 17.3331 7.82524C17.3526 7.8544 17.372 7.88517 17.3882 7.91595L17.4076 7.95483C17.44 8.01477 17.3947 7.91109 17.4174 7.97589C17.4287 8.00991 17.4417 8.04393 17.4498 8.07956C17.4595 8.1152 17.466 8.15084 17.4724 8.1881C17.4643 8.13302 17.4724 8.20591 17.474 8.21239C17.4757 8.23507 17.4757 8.25775 17.4757 8.28043C17.4773 8.40678 17.5858 8.52989 17.7187 8.52341C17.8499 8.51693 17.9633 8.4165 17.9616 8.28043C17.9535 7.57901 17.3833 7.00721 16.6803 7.00072C16.5669 6.9991 16.4519 7.00072 16.3385 7.00072H14.3396H11.5582H9.1624H8.46423C8.24717 7.00072 8.03497 7.00234 7.82762 7.08496C7.3206 7.28582 7.00309 7.76369 7.00146 8.30797V8.76801V10.9079V13.7038V15.9911V16.584V16.6812C7.0047 17.0036 7.12296 17.3097 7.34003 17.5479C7.57816 17.8119 7.92807 17.9577 8.28118 17.9609C8.40753 17.9625 8.53064 17.8475 8.52416 17.7179C8.50958 17.5819 8.40915 17.4733 8.27307 17.4717L8.27304 17.4717Z" fill="black"></path></svg>