<svg width="40" height="32" viewBox="0 0 40 32" fill="none" xmlns="http://www.w3.org/2000/svg"><rect width="40" height="32" rx="8" fill="#B2B7FF" fill-opacity="0.2"></rect><g clip-path="url(#clip0_5547_3514)"><path d="M17.7392 6.59902C17.858 6.74342 17.9308 6.92014 17.9482 7.10634C17.9655 7.29254 17.9266 7.47967 17.8366 7.64354C17.1327 8.93577 16.7652 10.3842 16.7677 11.8557C16.7677 16.7508 20.7583 20.7147 25.6766 20.7147C26.3181 20.7147 26.9426 20.6477 27.5428 20.5199C27.7268 20.48 27.9184 20.4953 28.0938 20.5637C28.2692 20.6321 28.4205 20.7507 28.5289 20.9046C28.6433 21.0646 28.7017 21.258 28.6948 21.4546C28.688 21.6512 28.6164 21.84 28.4912 21.9917C27.5363 23.1646 26.3318 24.1096 24.9654 24.7579C23.599 25.4061 22.1051 25.7412 20.5927 25.7388C14.9806 25.7388 10.4348 21.2175 10.4348 15.6467C10.4348 11.454 13.0084 7.85781 16.6727 6.33363C16.8553 6.25649 17.0579 6.24065 17.2502 6.28851C17.4425 6.33637 17.6141 6.44533 17.7392 6.59902Z" fill="#B2B7FF"></path></g><defs><clipPath id="clip0_5547_3514"><rect width="19.4783" height="19.4783" fill="white" transform="translate(10.4348 6.26086)"></rect></clipPath></defs></svg>