<svg width="18" height="18" viewBox="0 0 18 18" fill="none" xmlns="http://www.w3.org/2000/svg"><path d="M1.5 15.8112V7.38049C1.50011 7.15941 1.55289 6.94161 1.65388 6.74548C1.75487 6.54935 1.9011 6.38065 2.08023 6.25364L8.60864 1.62501C8.72338 1.54365 8.86016 1.5 9.00034 1.5C9.14053 1.5 9.2773 1.54365 9.39205 1.62501L15.9198 6.25364C16.0989 6.38065 16.2451 6.54935 16.3461 6.74548C16.4471 6.94161 16.4999 7.15941 16.5 7.38049V15.8112C16.5 15.9939 16.4282 16.1691 16.3003 16.2983C16.1724 16.4274 15.999 16.5 15.8182 16.5H12.182C12.0012 16.5 11.8278 16.4274 11.6999 16.2983C11.5721 16.1691 11.5002 15.9939 11.5002 15.8112V11.9031C11.5002 11.7204 11.4284 11.5452 11.3005 11.416C11.1727 11.2868 10.9992 11.2143 10.8184 11.2143H7.18159C7.00076 11.2143 6.82734 11.2868 6.69947 11.416C6.57161 11.5452 6.49977 11.7204 6.49977 11.9031V15.8112C6.49977 15.9939 6.42794 16.1691 6.30007 16.2983C6.17221 16.4274 5.99878 16.5 5.81795 16.5H2.18182C2.00099 16.5 1.82757 16.4274 1.6997 16.2983C1.57183 16.1691 1.5 15.9939 1.5 15.8112Z" stroke="#9EA0B7"></path></svg>