<svg width="16" height="19" viewBox="0 0 16 19" fill="none" xmlns="http://www.w3.org/2000/svg">
<path d="M0.95 4.57898V4.62898H1H1.88333V15.3158C1.88333 16.0417 2.18414 16.7374 2.71883 17.2499C3.25346 17.7625 3.97813 18.05 4.73333 18.05H11.2667C12.0219 18.05 12.7465 17.7625 13.2812 17.2499C13.8159 16.7374 14.1167 16.0417 14.1167 15.3158V4.62898H15H15.05V4.57898V2.39477C15.05 2.09101 14.8038 1.84477 14.5 1.84477H10.8201L10.0463 1.103C9.94393 1.00484 9.80757 0.950031 9.66572 0.950031H6.33428C6.19243 0.950031 6.05607 1.00484 5.95367 1.103L5.17991 1.84477H1.5C1.19624 1.84477 0.95 2.09101 0.95 2.39477V4.57898ZM10.2987 2.8256L10.3132 2.8395H10.3333H14.0167V3.63424H1.98333V2.8395H5.66667H5.68676L5.70127 2.8256L6.62009 1.94477H9.37991L10.2987 2.8256ZM4.73333 6.31845H4.68333V6.36845V15.3158V15.3658H4.73333H5.66667H5.71667V15.3158V6.36845V6.31845H5.66667H4.73333ZM10.3333 6.31845H10.2833V6.36845V15.3158V15.3658H10.3333H11.2667H11.3167V15.3158V6.36845V6.31845H11.2667H10.3333ZM2.91667 15.3158V4.62898H13.0833V15.3158C13.0833 15.7765 12.8925 16.2187 12.552 16.5451C12.2115 16.8715 11.7491 17.0553 11.2667 17.0553H4.73333C4.25086 17.0553 3.78855 16.8715 3.448 16.5451C3.10753 16.2187 2.91667 15.7765 2.91667 15.3158Z" fill="#FF8585" stroke="#FF8585" stroke-width="0.1"/>
</svg>
