<svg width="32" height="32" viewBox="0 0 32 32" fill="none" xmlns="http://www.w3.org/2000/svg">
<path d="M13.6794 14.9025C12.8837 14.9025 12.2568 15.5998 12.2568 16.4513C12.2568 17.2999 12.8984 18.0002 13.6794 18.0002C14.4737 18.0002 15.1006 17.2999 15.1006 16.4513C15.1167 15.5984 14.4737 14.9025 13.6794 14.9025ZM18.7709 14.9025C17.9751 14.9025 17.3483 15.5998 17.3483 16.4513C17.3483 17.2999 17.9898 18.0002 18.7709 18.0002C19.5651 18.0002 20.192 17.2999 20.192 16.4513C20.1905 15.5984 19.5651 14.9025 18.7709 14.9025Z" fill="#B2B7FF"/>
<path d="M25.549 3.19995H6.85843C6.48209 3.20091 6.10963 3.27599 5.76231 3.4209C5.41498 3.56581 5.09961 3.77771 4.83418 4.0445C4.56875 4.31129 4.35847 4.62775 4.21534 4.97581C4.07221 5.32387 3.99904 5.69671 4.00001 6.07305V24.9295C4.00001 26.5195 5.28314 27.8026 6.85843 27.8026H22.6744L21.933 25.2202L23.7197 26.8806L25.4066 28.4427L28.4074 31.0941V6.07305C28.4084 5.69671 28.3352 5.32387 28.1921 4.97581C28.0489 4.62775 27.8386 4.31129 27.5732 4.0445C27.3078 3.77771 26.9924 3.56581 26.6451 3.4209C26.2978 3.27599 25.9253 3.20091 25.549 3.19995ZM20.1639 21.4148C20.1639 21.4148 19.6618 20.8158 19.2449 20.2829C21.0712 19.7661 21.7686 18.6239 21.7686 18.6239C21.196 18.9998 20.6528 19.267 20.1639 19.449C18.3841 20.1939 16.4241 20.3972 14.5293 20.0333C13.8292 19.8958 13.1431 19.6943 12.4798 19.4314C12.13 19.2985 11.79 19.141 11.4624 18.9601C11.4199 18.9293 11.3787 18.9176 11.3376 18.8897C11.3156 18.8792 11.2961 18.8642 11.2804 18.8456C11.0293 18.7076 10.8899 18.6107 10.8899 18.6107C10.8899 18.6107 11.5593 19.7265 13.3313 20.2565C12.9129 20.785 12.3961 21.4148 12.3961 21.4148C9.31458 21.3165 8.14449 19.2949 8.14449 19.2949C8.14449 14.8039 10.1529 11.1645 10.1529 11.1645C12.1613 9.65671 14.0713 9.69929 14.0713 9.69929L14.2107 9.86665C11.7003 10.5934 10.5419 11.6945 10.5419 11.6945C10.5419 11.6945 10.8502 11.5271 11.3655 11.2907C12.8571 10.6359 14.0419 10.4539 14.5308 10.4113C14.6145 10.3981 14.6849 10.3834 14.7686 10.3834C17.1869 10.0575 19.6459 10.5171 21.7833 11.6945C21.7833 11.6945 20.6807 10.6492 18.3097 9.92391L18.505 9.70076C18.505 9.70076 20.4165 9.65818 22.4234 11.1659C22.4234 11.1659 24.4317 14.8054 24.4317 19.2963C24.4317 19.2949 23.247 21.3165 20.1639 21.4148Z" fill="#D3D6E4"/>
</svg>
