<svg width="10" height="18" viewBox="0 0 10 18" fill="none" xmlns="http://www.w3.org/2000/svg">
<path d="M5.61404 1.26803C5.61404 0.935901 5.33912 0.666656 5 0.666656C4.66088 0.666656 4.38597 0.935901 4.38597 1.26803V3.24398H3.24561C2.38482 3.24398 1.55929 3.57887 0.950618 4.17499C0.341948 4.77112 0 5.57963 0 6.42267C0 7.26571 0.341948 8.07423 0.950618 8.67035C1.55929 9.26647 2.38482 9.60136 3.24561 9.60136H6.75439C7.28947 9.60136 7.80264 9.80954 8.18101 10.1801C8.55937 10.5507 8.77193 11.0533 8.77193 11.5773C8.77193 12.1014 8.55937 12.604 8.18101 12.9745C7.80264 13.3451 7.28947 13.5533 6.75439 13.5533H3.25975C2.86183 13.534 2.47852 13.3999 2.15824 13.1675C1.83464 12.9327 1.59017 12.6085 1.45631 12.2365C1.34359 11.9233 0.992925 11.7588 0.673086 11.8692C0.353247 11.9796 0.185348 12.3231 0.298073 12.6363C0.513416 13.2347 0.90668 13.7563 1.42725 14.134C1.94783 14.5116 2.57189 14.7281 3.21913 14.7554C3.22795 14.7558 3.23678 14.756 3.24561 14.756H4.38597V16.7319C4.38597 17.0641 4.66088 17.3333 5 17.3333C5.33912 17.3333 5.61404 17.0641 5.61404 16.7319V14.756H6.75439C7.61518 14.756 8.44071 14.4211 9.04938 13.825C9.65805 13.2289 10 12.4204 10 11.5773C10 10.7343 9.65805 9.92575 9.04938 9.32963C8.44071 8.73351 7.61518 8.39862 6.75439 8.39862H3.24561C2.71053 8.39862 2.19736 8.19044 1.81899 7.81988C1.44063 7.44931 1.22807 6.94672 1.22807 6.42267C1.22807 5.89862 1.44063 5.39603 1.81899 5.02547C2.19736 4.6549 2.71053 4.44673 3.24561 4.44673H6.74026C7.13817 4.46595 7.52148 4.60013 7.84176 4.83249C8.16537 5.06725 8.40983 5.39148 8.54369 5.76346C8.65641 6.07671 9.00708 6.24114 9.32691 6.13074C9.64675 6.02034 9.81465 5.67691 9.70193 5.36367C9.48658 4.76526 9.09332 4.24367 8.57275 3.86601C8.05217 3.48835 7.42811 3.27191 6.78087 3.24454C6.77205 3.24416 6.76322 3.24398 6.75439 3.24398H5.61404V1.26803Z" fill="#2C3E50"/>
</svg>
