<svg width="20" height="16" viewBox="0 0 20 16" fill="none" xmlns="http://www.w3.org/2000/svg">
<path d="M2.10001 6.9597V11.7485C2.10001 11.9149 2.03836 12.0759 1.92667 12.1955C1.81476 12.3154 1.66145 12.3842 1.5 12.3842C1.33856 12.3842 1.18524 12.3154 1.07334 12.1955M2.10001 6.9597L1.07334 12.1955M2.10001 6.9597L3.90003 8.06682V12.82H3.9L3.90005 12.8223C3.90214 12.9136 3.92181 13.0037 3.95802 13.0869C3.99409 13.1697 4.04589 13.2442 4.11056 13.3056C4.11082 13.3058 4.11109 13.3061 4.11135 13.3063L4.18003 13.2336M2.10001 6.9597L16.1001 12.8198M1.07334 12.1955C0.961652 12.0759 0.9 11.9149 0.9 11.7485L0.9 5.85506L1.07334 12.1955ZM4.18003 13.2336C4.3027 13.3544 4.43016 13.4695 4.56203 13.5786C4.92089 13.8741 5.30223 14.1369 5.70204 14.3641C7.02551 15.1163 8.50195 15.5065 10.0001 15.4999M4.18003 13.2336C4.12505 13.1817 4.08069 13.1181 4.04971 13.0469C4.01874 12.9758 4.00182 12.8985 4.00003 12.82L4.18003 13.2336ZM10.0001 15.4999L9.99964 15.5999C9.99978 15.5999 9.99993 15.5999 10.0001 15.5999C10.0002 15.5999 10.0004 15.5999 10.0005 15.5999L10.0001 15.4999ZM10.0001 15.4999C11.4982 15.5065 12.9746 15.1163 14.2981 14.3641M14.2981 14.3641L14.3475 14.451C14.3475 14.451 14.3475 14.451 14.3475 14.451C14.7527 14.221 15.1391 13.955 15.5027 13.6559L15.5029 13.6557C15.6074 13.5691 15.7094 13.4791 15.8086 13.3858L15.8086 13.3858L15.8105 13.3839L15.8905 13.3046L15.8905 13.3046L15.8917 13.3034L15.9128 13.2818L15.9141 13.2807L15.916 13.2796L15.9207 13.2745L15.9278 13.268L15.9299 13.2646C15.984 13.2058 16.0266 13.1367 16.0557 13.0611C16.0852 12.9845 16.1002 12.9026 16.1001 12.82C16.1001 12.8199 16.1001 12.8199 16.1001 12.8198M14.2981 14.3641C14.6983 14.1369 15.0799 13.8742 15.4391 13.5786L14.2981 14.3641ZM16.1001 12.8198L16.1001 8.06682L18.8015 6.40521L18.8016 6.40518C18.8933 6.34869 18.9687 6.26781 19.0208 6.17138C19.0728 6.07497 19.1 5.96605 19.1 5.85552C19.1 5.745 19.0728 5.63607 19.0208 5.53967C18.9687 5.44323 18.8933 5.36235 18.8016 5.30586L18.8016 5.30584L11.5465 0.841808C11.0764 0.552536 10.5432 0.4 10.0001 0.4C9.45696 0.4 8.92375 0.552534 8.45367 0.841802C8.45366 0.841804 8.45366 0.841806 8.45366 0.841808L1.20847 5.29888C1.11407 5.35446 1.0362 5.43563 0.98227 5.5332C0.928189 5.63104 0.899935 5.74217 0.9 5.85499L16.1001 12.8198ZM11.5465 10.8682L11.5941 10.8389V10.8378L14.9001 8.80488V12.5346C14.5507 12.8389 14.1748 13.1063 13.7777 13.3331C12.6139 13.9931 11.3165 14.3345 10.0006 14.3273H10.0001C8.36906 14.3273 7.09104 13.8291 6.22271 13.3322L6.22255 13.3321C5.82547 13.1059 5.44956 12.8392 5.10003 12.5356V8.80492L8.45366 10.8682C8.45366 10.8682 8.45366 10.8682 8.45366 10.8682C8.92375 11.1574 9.45695 11.31 10.0001 11.31C10.5432 11.31 11.0764 11.1574 11.5465 10.8682ZM10.9437 1.94224L11.0961 2.03602V2.03493L17.3053 5.85499L10.9437 9.7688L10.9437 9.76881C10.656 9.9458 10.3307 10.0386 10.0001 10.0386C9.66942 10.0386 9.34411 9.9458 9.05648 9.76881L9.05647 9.7688L2.69487 5.855L9.05646 1.94225L9.05648 1.94224C9.34411 1.76524 9.66942 1.67242 10.0001 1.67242C10.3307 1.67242 10.656 1.76524 10.9437 1.94224Z" fill="#9EA0B7" stroke="#9EA0B7" stroke-width="0.2"/>
</svg>
