<svg width="22" height="19" viewBox="0 0 22 19" fill="none" xmlns="http://www.w3.org/2000/svg">
<path fill-rule="evenodd" clip-rule="evenodd" d="M11.251 0.555044C11.0899 0.481652 10.9101 0.481652 10.749 0.555044L0.424794 5.2581C0.168233 5.37497 0 5.65796 0 5.97265C0 6.28734 0.168233 6.57032 0.424794 6.6872L4.12969 8.37491V14.2031C4.12969 15.5777 5.07215 16.6765 6.31759 17.3856C7.59464 18.1128 9.27924 18.5 11 18.5C12.7208 18.5 14.4054 18.1128 15.6824 17.3856C16.9279 16.6765 17.8703 15.5777 17.8703 14.2031V8.37491L20.6485 7.10936V13.0272C20.6485 13.4523 20.951 13.7968 21.3242 13.7968C21.6974 13.7968 22 13.4523 22 13.0272V5.97265C22 5.65796 21.8318 5.37497 21.5752 5.2581L11.251 0.555044ZM16.9537 7.13473C16.947 7.13763 16.9404 7.14064 16.9338 7.14378L11 9.84683L5.06625 7.1438C5.05965 7.14065 5.053 7.13762 5.0463 7.13471L2.49533 5.97265L11 2.09847L19.5047 5.97265L16.9537 7.13473ZM5.48123 8.99058L10.749 11.3903C10.9101 11.4636 11.0899 11.4636 11.251 11.3903L16.5188 8.99058V14.2031C16.5188 14.6995 16.156 15.3951 15.078 16.0089C14.0316 16.6048 12.565 16.9608 11 16.9608C9.43497 16.9608 7.96836 16.6048 6.92201 16.0089C5.84405 15.3951 5.48123 14.6995 5.48123 14.2031V8.99058Z" fill="#6D6F96"/>
</svg>
