<svg width="24" height="24" viewBox="0 0 24 24" fill="none" xmlns="http://www.w3.org/2000/svg" class="theme-dark-invert" style="display: flex;"><rect width="24" height="24" rx="12" fill="#fff"></rect><path d="M22 12c0-5.523-4.477-10-10-10S2 6.477 2 12c0 4.992 3.657 9.13 8.438 9.88V14.89h-2.54v-2.89h2.54V9.796c0-2.506 1.493-3.89 3.777-3.89 1.094 0 2.239.195 2.239.195v2.46h-1.261c-1.242 0-1.63.772-1.63 1.563V12h2.774l-.444 2.891h-2.33v6.988c4.78-.75 8.438-4.887 8.438-9.879z" fill="#1877F2"></path><path d="M15.893 14.891l.443-2.89h-2.773v-1.877c0-.79.387-1.561 1.63-1.561h1.26V6.102s-1.144-.196-2.238-.196c-2.284 0-3.777 1.385-3.777 3.891V12h-2.54v2.891h2.54v6.988a10.073 10.073 0 003.125 0v-6.988h2.33z" fill="#fff"></path></svg>