<svg width="32" height="32" viewBox="0 0 32 32" fill="none" xmlns="http://www.w3.org/2000/svg">
<path d="M26.0573 3.19995H5.94305C5.2156 3.19995 4.51794 3.48893 4.00356 4.00332C3.48917 4.5177 3.2002 5.21536 3.2002 5.94281L3.2002 26.0571C3.2002 26.7845 3.48917 27.4822 4.00356 27.9966C4.51794 28.511 5.2156 28.8 5.94305 28.8H13.7859V20.0965H10.1859V16H13.7859V12.8777C13.7859 9.32624 15.9002 7.36452 19.1385 7.36452C20.6893 7.36452 22.3111 7.64109 22.3111 7.64109V11.1268H20.5242C18.7636 11.1268 18.2145 12.2194 18.2145 13.34V16H22.1448L21.5162 20.0965H18.2145V28.8H26.0573C26.7848 28.8 27.4824 28.511 27.9968 27.9966C28.5112 27.4822 28.8002 26.7845 28.8002 26.0571V5.94281C28.8002 5.21536 28.5112 4.5177 27.9968 4.00332C27.4824 3.48893 26.7848 3.19995 26.0573 3.19995Z" fill="#D3D6E4"/>
</svg>
