<svg width="86" height="86" viewBox="0 0 86 86" fill="none" xmlns="http://www.w3.org/2000/svg">
<path d="M71.6321 18.2288H42.3357C42.46 17.6991 42.5224 17.1587 42.5224 16.6131C42.5224 12.7318 39.3643 9.57422 35.4836 9.57422C31.6029 9.57422 28.4447 12.7312 28.4447 16.6131C28.4447 17.1587 28.5072 17.6991 28.6315 18.2288H22.9377V47.5252C22.408 47.4009 21.867 47.3377 21.3221 47.3377C17.4413 47.3377 14.2832 50.4947 14.2832 54.3753C14.2832 58.2558 17.4413 61.4128 21.3221 61.4128C21.867 61.4128 22.408 61.3503 22.9377 61.2253V66.9204H28.6315C28.5072 67.4501 28.4447 67.9905 28.4447 68.5361C28.4447 72.4173 31.6029 75.575 35.4836 75.575C39.3643 75.575 42.5224 72.418 42.5224 68.5361C42.5224 67.9905 42.46 67.4501 42.3357 66.9204H48.0287V43.3186H52.2351C52.1102 43.8496 52.0477 44.3893 52.0477 44.9343C52.0477 48.815 55.2058 51.9718 59.0866 51.9718C62.9673 51.9718 66.1241 48.8148 66.1241 44.9343C66.1241 44.3893 66.0616 43.8483 65.9373 43.3186H71.6324L71.6321 18.2288ZM24.4267 36.6107V19.7176H30.7439L30.3371 18.6975C30.0693 18.0256 29.9344 17.3251 29.9344 16.6133C29.9344 13.5535 32.4247 11.0631 35.4845 11.0631C38.5443 11.0631 41.0347 13.5521 41.0347 16.6133C41.0347 17.3251 40.8984 18.0256 40.6319 18.6975L40.2252 19.7176H46.5416V23.924C46.0119 23.7997 45.4716 23.7366 44.9266 23.7366C41.0459 23.7366 37.8877 26.8935 37.8877 30.7741C37.8877 34.6548 41.0459 37.8116 44.9266 37.8116C45.4716 37.8116 46.0126 37.7491 46.5416 37.6242V41.8306H40.2252L40.6319 42.8507C40.8997 43.5226 41.0347 44.2231 41.0347 44.9349C41.0347 47.9947 38.5443 50.4837 35.4845 50.4837C32.4247 50.4837 29.9344 47.9947 29.9344 44.9349C29.9344 44.2231 30.0706 43.5226 30.3371 42.8507L30.7439 41.8306H24.4267V36.6107ZM46.5381 65.4307H40.2217L40.6284 66.4509C40.8963 67.1228 41.0312 67.8233 41.0312 68.5351C41.0312 71.5949 38.5408 74.0853 35.481 74.0853C32.4212 74.0853 29.9309 71.5963 29.9309 68.5351C29.9309 67.8233 30.0671 67.1228 30.3337 66.4509L30.7404 65.4307H24.4233V59.1156L23.4037 59.5204C22.7298 59.7882 22.028 59.9231 21.3189 59.9231C18.2591 59.9231 15.7687 57.4342 15.7687 54.3744C15.7687 51.3146 18.2591 48.8256 21.3189 48.8256C22.0293 48.8256 22.7305 48.9618 23.4037 49.2283L24.4233 49.6331L24.4246 43.3187H28.6296C28.5053 43.8484 28.4428 44.3887 28.4428 44.9343C28.4428 48.8151 31.601 51.9718 35.4817 51.9718C39.3624 51.9718 42.5206 48.8149 42.5206 44.9343C42.5206 44.3887 42.4581 43.8484 42.3338 43.3187H46.5381V65.4307ZM70.1417 41.8306H63.8252L64.23 42.8501C64.4978 43.5227 64.6327 44.2245 64.6327 44.935C64.6327 47.9948 62.1437 50.4838 59.084 50.4838C56.0242 50.4838 53.5338 47.9948 53.5338 44.935C53.5338 44.2265 53.6701 43.5247 53.9379 42.8501L54.3426 41.8306H48.0262V35.5135L47.0067 35.9202C46.3341 36.188 45.6329 36.3243 44.9225 36.3243C41.8627 36.3243 39.3723 33.8353 39.3723 30.7755C39.3723 27.7157 41.8627 25.2267 44.9225 25.2267C45.6329 25.2267 46.3341 25.363 47.0067 25.6295L48.0262 26.0355L48.0269 19.7184H70.14V41.8298L70.1417 41.8306Z" fill="#6871EA"/>
<path d="M25.3679 82.7245C25.3679 81.4291 24.3138 80.375 23.0184 80.375C21.723 80.375 20.6689 81.4291 20.6689 82.7245C20.6689 84.0199 21.723 85.0739 23.0184 85.0739C24.3138 85.0739 25.3679 84.0199 25.3679 82.7245ZM21.4135 82.7245C21.4135 81.8392 22.1339 81.1194 23.0185 81.1194C23.9031 81.1194 24.6235 81.8399 24.6235 82.7245C24.6235 83.6091 23.9031 84.3295 23.0185 84.3295C22.1339 84.3295 21.4135 83.6097 21.4135 82.7245Z" fill="#6871EA"/>
<path d="M1.31874 28.7797L3.4494 27.6592L5.58211 28.779L5.17604 26.405L6.89871 24.7236L4.51674 24.378L3.44939 22.2188L2.38468 24.378L0 24.7236L1.72607 26.405L1.31874 28.7797ZM1.60052 25.2447L2.87857 25.0593L3.44947 23.9008L4.02237 25.0593L5.29975 25.2447L4.37461 26.1459L4.59327 27.42L3.45013 26.8185L2.307 27.4179L2.52632 26.1445L1.60052 25.2447Z" fill="#6871EA"/>
<path d="M21.8481 4.37355L21.5584 6.06897L23.0797 5.26878L24.6029 6.06764L24.3138 4.37355L25.5467 3.1726L23.8426 2.92537L23.0803 1.38281L22.3193 2.92537L20.6172 3.1726L21.8481 4.37355ZM22.8138 3.60527L23.081 3.06427L23.3488 3.60527L23.9463 3.69167L23.5136 4.11237L23.6166 4.70786L23.0816 4.42674L22.5486 4.70654L22.651 4.11171L22.2183 3.691L22.8138 3.60527Z" fill="#6871EA"/>
<path d="M78.9707 62.3627L80.2016 63.5636L79.9118 65.2597L81.4331 64.4589L82.9544 65.2597L82.6646 63.5636L83.8955 62.3627L82.1941 62.1148L81.4318 60.5742L80.6695 62.1148L78.9707 62.3627ZM81.4338 62.2543L81.7017 62.7953L82.2998 62.8824L81.8671 63.3044L81.9682 63.8999L81.4345 63.6188L80.9008 63.8999L81.0018 63.3044L80.5692 62.8824L81.1673 62.7953L81.4338 62.2543Z" fill="#6871EA"/>
<path d="M81.4342 8.52344L80.4485 11.5574H77.2598L79.8391 13.4323L78.8548 16.4642L81.4355 14.5906L84.0148 16.4642L83.0305 13.4323L85.6098 11.5574H82.4211L81.4342 8.52344ZM82.1539 13.1485L82.5979 14.5163L81.4335 13.6709L80.2684 14.5176L80.7124 13.1492L79.548 12.3025H80.9882L81.4328 10.9347L81.8768 12.3025H83.317L82.1539 13.1485Z" fill="#6871EA"/>
<path d="M73.5379 0C72.2419 0 71.1885 1.05407 71.1885 2.34946C71.1885 3.64479 72.2425 4.69893 73.5379 4.69893C74.8333 4.69893 75.8874 3.64486 75.8874 2.34946C75.8874 1.05414 74.8333 0 73.5379 0ZM73.5379 3.95372C72.6527 3.95372 71.9329 3.23327 71.9329 2.34868C71.9329 1.46409 72.6533 0.743649 73.5379 0.743649C74.4225 0.743649 75.143 1.46409 75.143 2.34868C75.143 3.23327 74.4225 3.95372 73.5379 3.95372Z" fill="#6871EA"/>
<path d="M81.0615 43.5139C81.0615 44.56 81.9122 45.4106 82.9582 45.4106C84.0043 45.4106 84.855 44.5599 84.855 43.5139C84.855 42.4678 84.0043 41.6172 82.9582 41.6172C81.9122 41.6172 81.0615 42.4685 81.0615 43.5139ZM82.9582 42.3615C83.5943 42.3615 84.1107 42.8786 84.1107 43.5139C84.1107 44.1493 83.5936 44.6663 82.9582 44.6663C82.3229 44.6663 81.8058 44.1493 81.8058 43.5139C81.8058 42.8786 82.3222 42.3615 82.9582 42.3615Z" fill="#6871EA"/>
<path d="M9.84819 9.45703C8.48839 9.45703 7.38184 10.5636 7.38184 11.9234C7.38184 13.2838 8.48841 14.3904 9.84819 14.3904C11.208 14.3904 12.3145 13.2838 12.3145 11.9234C12.3145 10.5636 11.208 9.45703 9.84819 9.45703ZM9.84819 13.6474C8.89847 13.6474 8.1262 12.8745 8.1262 11.9247C8.1262 10.975 8.89848 10.2028 9.84819 10.2028C10.7979 10.2028 11.5702 10.975 11.5702 11.9247C11.5702 12.8745 10.7986 13.6474 9.84819 13.6474Z" fill="#6871EA"/>
<path d="M17.7767 83.0889L17.9215 82.3592C17.6019 82.2947 17.2842 82.223 16.9718 82.1445L16.7891 82.867C17.1147 82.948 17.443 83.0225 17.7767 83.0889H17.7767Z" fill="#6871EA"/>
<path d="M1.47363 63.2309C1.47363 63.5585 1.48161 63.8842 1.49623 64.2085L2.24059 64.1726C2.22597 63.8603 2.218 63.5452 2.218 63.2309C2.218 62.9085 2.22597 62.5835 2.24192 62.2592L1.49756 62.2227C1.48161 62.5596 1.47363 62.8952 1.47363 63.2309V63.2309Z" fill="#6871EA"/>
<path d="M4.35254 73.6165C4.68884 74.1781 5.06036 74.7338 5.45447 75.2688L6.05394 74.8261C5.67312 74.3111 5.31557 73.776 4.99322 73.2344L4.35254 73.6165Z" fill="#6871EA"/>
<path d="M8.61731 77.6644C8.14677 77.2364 7.69217 76.7798 7.26682 76.3086L6.71387 76.8077C7.15584 77.2969 7.62771 77.7707 8.11553 78.2154L8.61731 77.6644Z" fill="#6871EA"/>
<path d="M2.79868 67.9536C2.64516 67.3415 2.51955 66.7108 2.42584 66.0781L1.68945 66.1871C1.78782 66.8444 1.91741 67.4991 2.07826 68.1344L2.79868 67.9536Z" fill="#6871EA"/>
<path d="M11.6835 79.9488C11.1385 79.6212 10.6035 79.263 10.0924 78.8828L9.64844 79.4803C10.1775 79.8744 10.7331 80.2466 11.2987 80.5869L11.6835 79.9488Z" fill="#6871EA"/>
<path d="M4.09079 71.5492C3.82163 70.9783 3.57372 70.3828 3.35706 69.7812L2.65723 70.0331C2.88253 70.6572 3.13774 71.2746 3.41821 71.8674L4.09079 71.5492Z" fill="#6871EA"/>
<path d="M14.8891 82.2897L15.139 81.5892C14.5429 81.3759 13.948 81.1286 13.3704 80.8555L13.0527 81.5281C13.6515 81.8118 14.2696 82.0684 14.8891 82.2897H14.8891Z" fill="#6871EA"/>
<path d="M2.60113 59.3832L1.87072 59.2383C1.80493 59.5699 1.74644 59.9022 1.69727 60.2339L2.43365 60.3429C2.48083 60.0232 2.53666 59.7029 2.60113 59.3832L2.60113 59.3832Z" fill="#6871EA"/>
<path d="M84.1869 70.3402L83.4425 70.3242C83.4359 70.6485 83.4186 70.9702 83.3887 71.2899L84.129 71.3577C84.1609 71.0207 84.1796 70.6811 84.1869 70.3402Z" fill="#6871EA"/>
<path d="M80.0821 78.9088L80.639 79.4032C81.1334 78.8476 81.5847 78.2502 81.9828 77.6273L81.3548 77.2266C80.9793 77.8161 80.5499 78.383 80.082 78.9087L80.0821 78.9088Z" fill="#6871EA"/>
<path d="M79.0323 80.9466L78.5611 80.3711C78.0175 80.817 77.4346 81.2218 76.8291 81.5747L77.2053 82.2167C77.8433 81.8439 78.4594 81.4165 79.0322 80.9466H79.0323Z" fill="#6871EA"/>
<path d="M82.3477 75.3663L83.0302 75.6634C83.3253 74.9855 83.5679 74.277 83.7526 73.5565L83.0309 73.3711C82.8561 74.0523 82.6268 74.7242 82.3477 75.3663V75.3663Z" fill="#6871EA"/>
<path d="M74.9299 82.4883C74.2746 82.7422 73.5947 82.9449 72.9102 83.0904L73.065 83.8182C73.7888 83.6646 74.5072 83.45 75.1991 83.1808L74.9299 82.4883Z" fill="#6871EA"/>
<path d="M69.8311 84.1262C69.9281 84.1282 70.0238 84.1288 70.1202 84.1288C70.3654 84.1288 70.6086 84.1228 70.8506 84.1102L70.8114 83.3672C70.4937 83.3831 70.17 83.3878 69.8457 83.3818L69.8311 84.1262Z" fill="#6871EA"/>
<path d="M82.5859 34.9688H83.3303V36.9539H82.5859V34.9688Z" fill="#6871EA"/>
<path d="M82.5859 23.0625H83.3303V25.0477H82.5859V23.0625Z" fill="#6871EA"/>
<path d="M82.5859 27.0312H83.3303V29.0164H82.5859V27.0312Z" fill="#6871EA"/>
<path d="M82.5859 31H83.3303V32.9852H82.5859V31Z" fill="#6871EA"/>
</svg>