<svg width="86" height="86" viewBox="0 0 86 86" fill="none" xmlns="http://www.w3.org/2000/svg">
<path d="M32.4757 62.7922C32.4763 62.7922 32.4783 62.7929 32.4797 62.7929C33.3589 63.3445 34.2787 63.827 35.2158 64.2258C37.6703 65.2705 40.2754 65.8009 42.9611 65.8009C51.8934 65.8009 59.7477 59.7815 62.0643 51.163C62.5136 49.4848 62.7428 47.7536 62.7428 46.019C62.7428 39.1503 59.2564 32.8723 53.4177 29.229C50.2827 27.2731 46.6659 26.2383 42.9601 26.2383C40.2811 26.2383 37.6819 26.7653 35.2334 27.8054C27.9101 30.9157 23.1787 38.0657 23.1787 46.0205C23.1787 46.2957 23.1887 46.5681 23.1993 46.84C23.4638 53.3565 26.9323 59.32 32.4753 62.7925L32.4757 62.7922ZM52.2441 32.647C52.3624 32.5646 52.4781 32.4616 52.5924 32.3326C52.613 32.3087 52.6349 32.2788 52.6562 32.2535C52.7632 32.1213 52.8695 31.9697 52.9745 31.7923C52.9865 31.7724 52.9971 31.7577 53.0091 31.7365C53.1201 31.5411 53.2324 31.3105 53.3434 31.0599C53.356 31.0333 53.3673 31.0154 53.3793 30.9881C58.3259 34.4149 61.2528 39.9689 61.2528 46.0202C61.2528 47.4206 61.092 48.817 60.7743 50.182C60.7344 50.1794 60.6972 50.1774 60.6613 50.174C60.4486 49.7135 60.1243 48.6388 59.9375 48.0194C59.7043 47.2505 59.566 46.8025 59.4471 46.5692C59.2896 46.2575 58.9878 46.0721 58.6402 46.0721C58.6116 46.0721 58.5778 46.0721 58.5359 46.0761C58.2448 46.1027 57.6187 46.3153 56.3632 48.0153L55.1217 49.9479C55.0446 50.0682 55.0034 50.2078 55.0034 50.35V52.2083C54.919 52.4157 54.5814 52.946 54.3541 53.3029C53.8875 54.0346 53.5971 54.5019 53.5067 54.8641C53.4303 55.1592 52.7278 56.4073 52.3902 57.0068C52.1755 57.387 51.9954 57.7093 51.907 57.8861C51.7236 58.2543 51.3674 59.0445 51.1441 59.5443H49.2513L49.2931 59.1156C49.319 58.8378 49.3556 58.5952 49.3922 58.3626C49.5191 57.5279 49.6394 56.7396 49.2812 55.0275C48.9548 53.471 48.0942 53.2383 47.609 53.2383C47.193 53.2383 46.8301 53.4098 46.5849 53.568C45.4125 53.3726 44.1139 53.0755 43.6234 52.8575C43.6812 52.3006 44.0661 50.9821 44.2648 50.3088C44.4562 49.6529 44.5585 49.2986 44.6011 49.064C44.8204 48.8746 45.4139 48.527 45.8219 48.2891C46.2659 48.0299 46.7178 47.7641 47.0687 47.5182C47.1392 47.4683 47.3705 47.3514 47.9646 47.3514C48.8698 47.3514 49.884 47.6245 49.894 47.6272C50.0103 47.6577 50.1319 47.6617 50.2482 47.6358C50.4935 47.582 52.656 47.0629 53.0249 45.4048C53.3233 44.0569 52.1576 43.1418 50.9473 42.862C50.8915 42.8494 50.8363 42.8434 50.7799 42.8434H48.0403C47.3584 42.1835 46.7523 41.4517 46.6938 41.2424C46.7018 40.8357 47.2826 37.8954 47.8602 35.1865C49.0717 34.3092 51.0311 33.0238 51.7887 32.8583C51.9216 32.8297 52.0479 32.7699 52.1715 32.6955C52.1941 32.6775 52.22 32.6636 52.2439 32.6469L52.2441 32.647ZM35.5712 33.9868C36.0171 33.4551 36.4784 32.9048 36.4784 32.2681C36.4784 32.2056 36.4764 32.1232 36.4737 32.0268C36.473 31.9869 36.471 31.9384 36.4691 31.8946C36.4671 31.8321 36.4644 31.7696 36.4611 31.6978C36.4584 31.6321 36.4544 31.5589 36.4511 31.4865C36.4484 31.428 36.4451 31.3715 36.4425 31.3097C36.4378 31.2173 36.4318 31.1223 36.4265 31.0226C36.4239 30.9741 36.4205 30.9242 36.4179 30.8737C36.4119 30.7607 36.4052 30.6458 36.3979 30.5241C36.3953 30.4823 36.3933 30.4397 36.39 30.3972C36.3833 30.2782 36.3753 30.1593 36.3694 30.0357C36.3488 29.6861 36.3248 29.3272 36.3029 28.9776C41.3924 26.9858 47.3514 27.4264 52.1052 30.1785C52.0534 30.3055 52.0029 30.4244 51.957 30.5281C51.9431 30.5587 51.9311 30.582 51.9172 30.6105C51.8826 30.6856 51.8474 30.7594 51.8161 30.8219C51.7955 30.8638 51.7756 30.8983 51.7557 30.9342C51.7351 30.9728 51.7151 31.0113 51.6958 31.0445C51.6759 31.0784 51.6593 31.1083 51.6414 31.1356C51.6267 31.1595 51.6128 31.1841 51.5988 31.204C51.5842 31.228 51.5689 31.2506 51.5563 31.2698C51.5456 31.2845 51.5357 31.2997 51.5277 31.3117C51.5031 31.3463 51.4838 31.3702 51.4739 31.3841C51.4739 31.3848 51.4719 31.3868 51.4712 31.3881C51.4646 31.3968 51.4612 31.4028 51.4652 31.4028C50.0848 31.7065 47.0841 33.9029 46.7473 34.1529C46.6011 34.2599 46.4994 34.4181 46.4615 34.5955C46.1664 35.9739 45.2027 40.5257 45.2027 41.2389C45.2027 42.0783 46.3093 43.2753 47.2371 44.1333C47.3753 44.2603 47.5548 44.3307 47.7422 44.3307H50.6751C50.8784 44.3945 51.4799 44.6065 51.5656 44.9342C51.5783 44.9807 51.5802 45.0292 51.5683 45.0811C51.452 45.6041 50.6013 45.9903 50.0842 46.1391C49.6981 46.0468 48.8142 45.86 47.9602 45.86C47.1992 45.86 46.625 46.0042 46.2062 46.298C45.8866 46.5233 45.4705 46.7645 45.0658 47.0018C43.8588 47.7063 43.1304 48.1323 43.1325 48.7855C43.1145 48.9185 42.9577 49.4561 42.8308 49.8894C42.1562 52.1909 41.9774 53.0476 42.2433 53.5813C42.3782 53.8491 42.6919 54.4765 46.6596 55.088C46.8343 55.1139 47.0018 55.062 47.15 54.9717C47.1919 54.9477 47.2384 54.9338 47.2743 54.9032C47.3228 54.8607 47.3853 54.8181 47.4431 54.7842C47.4976 54.7517 47.5515 54.7218 47.5741 54.7164C47.5747 54.7171 47.7143 54.8274 47.8193 55.3325C47.9708 56.057 48.0246 56.5694 48.026 56.994C48.026 57.3124 47.9974 57.5835 47.9582 57.8587C47.9456 57.9497 47.9316 58.0434 47.9163 58.1378C47.8778 58.397 47.8372 58.6655 47.808 58.9746L47.689 60.2174C47.6684 60.4261 47.7375 60.6341 47.8784 60.7889C48.0193 60.9438 48.22 61.0329 48.4294 61.0329H51.6261C51.9212 61.0329 52.1877 60.8581 52.308 60.5882C52.3087 60.5862 52.966 59.0929 53.2358 58.5518C53.3182 58.389 53.487 58.0893 53.6851 57.737C54.1882 56.8438 54.585 56.126 54.799 55.6389C54.8694 55.476 54.9199 55.3391 54.9472 55.2288C55.0017 55.0534 55.3672 54.4805 55.6084 54.1016C56.2485 53.0961 56.491 52.6794 56.491 52.2827L56.4897 50.566L57.5856 48.8579C57.8289 48.5296 58.1133 48.1907 58.3539 47.9361C58.4064 48.1049 58.4603 48.2844 58.5094 48.4505C59.2279 50.8238 59.517 51.6446 60.3005 51.6446C60.3145 51.6446 60.3444 51.6465 60.3663 51.6472C57.9484 59.1486 50.9169 64.3125 42.9611 64.3125C40.6317 64.3125 38.368 63.8819 36.2253 63.0312L36.2106 62.772C36.8141 61.0381 37.6947 58.1364 37.2468 57.0929C37.1417 56.8457 37.1923 56.5479 37.2853 56.0827C37.4003 55.5098 37.5432 54.7987 37.2687 53.9759C36.9929 53.1484 36.2791 52.1814 35.6497 51.3287C35.3726 50.9539 34.9924 50.4381 34.9379 50.3052C34.7804 49.6678 34.0606 49.3415 33.2265 48.9634C33.0391 48.8783 32.7819 48.7607 32.6144 48.6703V45.3366C32.7998 44.9119 33.8093 43.3985 34.7032 42.1478C37.3044 39.7652 37.3044 39.322 37.3044 39.0282C37.3044 38.3164 36.3082 36.3359 34.9849 35.1602C34.8394 35.0313 34.7935 34.9117 35.5718 33.9865L35.5712 33.9868ZM24.667 46.0196C24.667 39.0187 28.6307 32.6916 34.852 29.6178C34.8527 29.6404 34.8547 29.6643 34.856 29.6876C34.9098 30.5283 34.947 31.1923 34.969 31.6456C34.9696 31.6522 34.9696 31.6602 34.9696 31.6675C34.9736 31.7439 34.9763 31.8124 34.9796 31.8762C34.9803 31.9088 34.9816 31.9387 34.9836 31.9672C34.9856 32.0111 34.9862 32.0556 34.9876 32.0922C34.9896 32.1527 34.9916 32.2085 34.9916 32.247C34.961 32.3966 34.6294 32.794 34.4306 33.03C33.8212 33.7564 32.6867 35.1082 33.9966 36.2752C34.9517 37.1226 35.6382 38.4664 35.7891 38.9229C35.4913 39.327 34.4977 40.3212 33.6424 41.1022C33.6039 41.1368 33.57 41.1766 33.5394 41.2185C31.1255 44.5881 31.1255 45.0121 31.1255 45.2401V48.9665C31.1255 49.6444 31.7814 49.9421 32.6122 50.3189C32.8993 50.4499 33.3645 50.6612 33.532 50.7915C33.655 51.1258 33.9487 51.5318 34.4511 52.2124C34.9868 52.9381 35.6541 53.842 35.8554 54.4475C36.0043 54.8941 35.9212 55.3102 35.8249 55.79C35.7126 56.3536 35.5836 56.9936 35.8734 57.6675C35.8913 57.7253 35.8973 57.8097 35.8953 57.9154C35.8947 57.9573 35.8854 58.0164 35.8814 58.0643C35.8767 58.1407 35.8734 58.2111 35.8608 58.3035C35.8528 58.358 35.8402 58.4278 35.8309 58.4869C35.8142 58.5913 35.8003 58.6916 35.7764 58.8106C35.7597 58.893 35.7378 58.9881 35.7185 59.0764C35.6959 59.1874 35.674 59.2938 35.6461 59.4127C35.6182 59.5337 35.5836 59.666 35.5497 59.7949C35.5251 59.8952 35.5019 59.9883 35.4753 60.092C35.4268 60.2734 35.3723 60.4635 35.3178 60.6529C35.3012 60.7107 35.2872 60.7652 35.2699 60.8224C35.1217 61.3255 34.9523 61.8525 34.7688 62.3756C34.396 62.1881 34.0271 61.9867 33.6662 61.7721L33.851 60.2329C33.865 60.1179 33.851 60.0016 33.8124 59.8926L32.5829 56.4792L31.7495 53.7072L30.6456 50.2566C30.6296 50.2061 30.6077 50.1562 30.5818 50.1104L28.5115 46.5308C28.3813 46.3068 28.144 46.1653 27.8855 46.1586L24.6681 46.0795C24.6668 46.0616 24.6668 46.0403 24.6668 46.0197L24.667 46.0196ZM27.4317 47.6405L29.2527 50.7895L30.3287 54.1511L31.1701 56.949L32.3524 60.2342L32.2773 60.8656C27.9454 57.7439 25.1859 52.893 24.7374 47.5742L27.4317 47.6405Z" fill="#6871EA"/>
<path d="M40.0121 38.3918C40.0926 38.3918 40.1736 38.3792 40.2534 38.3513L42.6678 37.5238C42.927 37.4355 43.1151 37.2122 43.161 36.9423C43.161 36.9423 43.5046 34.878 43.5817 34.4049C43.7405 34.0373 45.0684 32.5233 46.2076 31.3311C46.3851 31.1457 46.4548 30.8819 46.391 30.6333C46.3286 30.3854 46.1411 30.1867 45.8966 30.1083L43.0966 29.211C42.9152 29.1532 42.7158 29.1665 42.5436 29.2509L38.8577 31.0454C38.665 31.1398 38.5214 31.3125 38.465 31.5186C37.5657 34.8143 39.2917 37.8894 39.3648 38.0184C39.5024 38.2537 39.7523 38.3919 40.0122 38.3919L40.0121 38.3918ZM39.8247 32.2282L42.927 30.7176L44.3207 31.1642C42.2532 33.4098 42.1667 33.8944 42.1375 34.0666C42.1288 34.1151 42.1175 34.1769 42.1056 34.2473C42.0205 34.7405 41.8597 35.6975 41.766 36.2577L40.3955 36.7282C40.024 35.8629 39.4319 34.0865 39.8246 32.2282L39.8247 32.2282Z" fill="#6871EA"/>
<path d="M63.0069 65.4742L55.1167 67.9652L55.564 69.3855L60.0978 67.9546C55.2176 71.7648 49.2501 73.8376 42.9597 73.8376C35.5001 73.8376 28.4892 70.9327 23.2151 65.6584C13.4421 55.8854 12.2365 40.6904 20.3479 29.5276L19.1443 28.6523C10.5987 40.4125 11.8681 56.4173 22.1622 66.7125C27.8958 72.446 35.4278 75.3131 42.96 75.3131C49.7622 75.3131 56.5579 72.9671 62.036 68.2903L60.7261 74.6392L62.1842 74.941L63.9607 66.335C64.0145 66.0758 63.9268 65.8093 63.7314 65.6325C63.5353 65.457 63.2608 65.3972 63.0076 65.4756L63.0069 65.4742Z" fill="#6871EA"/>
<path d="M69.3499 19.6006C69.3499 14.0505 64.8339 9.53516 59.2845 9.53516C54.5492 9.53516 50.5795 12.8263 49.5127 17.2385C47.386 16.756 45.1927 16.5008 42.9596 16.5008C36.0397 16.5008 29.4887 18.8768 24.2273 23.238L25.8888 17.977L24.4699 17.5297L21.9789 25.4199C21.8998 25.6711 21.9583 25.9469 22.1357 26.1423C22.2786 26.2998 22.48 26.3882 22.6887 26.3882C22.7392 26.3882 22.7897 26.3836 22.8382 26.3723L31.4442 24.5964L31.1438 23.1382L25.2008 24.3637C30.19 20.2372 36.4021 17.9902 42.96 17.9902C45.1107 17.9902 47.2214 18.2394 49.2663 18.7099C49.2404 19.0037 49.2205 19.3008 49.2205 19.6012C49.2205 25.1513 53.7351 29.6659 59.2839 29.6659C61.2052 29.6659 62.9949 29.115 64.523 28.1779C72.5899 37.935 73.1456 51.8748 65.571 62.2993L66.7746 63.1745C74.7346 52.2198 74.1743 37.5839 65.7405 27.3109C67.943 25.4627 69.3487 22.6925 69.3487 19.6002L69.3499 19.6006ZM64.7715 26.1834C64.3807 26.5098 63.9586 26.7989 63.5127 27.0521C62.2632 27.7639 60.8225 28.1766 59.2839 28.1766C54.5559 28.1766 50.7092 24.3299 50.7092 19.6006C50.7092 19.4278 50.7252 19.259 50.7351 19.0882C50.765 18.5797 50.8382 18.0846 50.9538 17.6034C51.857 13.8357 55.2445 11.0231 59.2847 11.0231C64.014 11.0231 67.8614 14.8698 67.8614 19.5998C67.8614 22.2436 66.6571 24.6084 64.7716 26.1834L64.7715 26.1834Z" fill="#6871EA"/>
<path d="M61.7532 18.7998H60.0298V15.3784H63.2791V13.8897H60.0298V12.5312H58.5411V13.8897H57.2412C56.7467 13.8897 56.314 13.9708 55.9531 14.1336C55.5989 14.2945 55.3091 14.5178 55.0918 14.7996C54.8964 15.0534 54.7582 15.3386 54.6698 15.6768C54.5894 15.9912 54.5488 16.3534 54.5488 16.7508V17.4294C54.5488 17.8255 54.5894 18.1864 54.6711 18.5074C54.719 18.6888 54.7841 18.855 54.8639 19.0118C54.9296 19.1421 55.0041 19.2657 55.0918 19.382C55.3091 19.6618 55.5969 19.8851 55.9564 20.0493C56.3147 20.2088 56.7473 20.2905 57.2405 20.2905H58.5398V23.8243H55.5418V25.313H58.5398V26.6728H60.0285V25.313H61.7525C61.7691 25.313 61.7824 25.309 61.7984 25.309C62.4118 25.2971 62.9189 25.0678 63.2844 24.6677C63.6852 24.2277 63.9165 23.5857 63.9165 22.7941V21.3214C63.9158 19.7895 63.0671 18.7999 61.7531 18.7999L61.7532 18.7998ZM58.5391 18.7998H57.2411C56.8889 18.7998 56.6782 18.7393 56.5705 18.6908C56.4376 18.6303 56.3372 18.5558 56.2701 18.4694C56.1977 18.3751 56.1472 18.2667 56.1126 18.1352C56.0628 17.9384 56.0382 17.7005 56.0382 17.4287L56.0375 16.7501C56.0375 16.477 56.0621 16.239 56.1113 16.0476C56.1472 15.9107 56.1977 15.8024 56.2688 15.7093C56.3366 15.6229 56.4363 15.5485 56.5645 15.4907C56.6789 15.4388 56.8889 15.3784 57.2411 15.3784H58.5404V18.7997L58.5391 18.7998ZM62.4271 22.7914C62.4271 23.2074 62.3327 23.4832 62.1652 23.6467C62.0589 23.7517 61.928 23.8202 61.7525 23.8202H60.0292V20.2871H61.7532C62.2005 20.2871 62.4278 20.6347 62.4278 21.3185L62.4271 22.7914Z" fill="#6871EA"/>
<path d="M23.0184 80.3711C21.7224 80.3711 20.6689 81.4251 20.6689 82.7205C20.6689 84.0159 21.723 85.07 23.0184 85.07C24.3138 85.07 25.3678 84.0159 25.3678 82.7205C25.3678 81.4251 24.3144 80.3711 23.0184 80.3711ZM23.0184 84.3255C22.1331 84.3255 21.4134 83.605 21.4134 82.7204C21.4134 81.8359 22.1338 81.1154 23.0184 81.1154C23.903 81.1154 24.6234 81.8359 24.6234 82.7204C24.6234 83.605 23.9036 84.3255 23.0184 84.3255Z" fill="#6871EA"/>
<path d="M3.4494 27.66L5.58141 28.7791L5.17534 26.4052L6.898 24.7237L4.51605 24.3775L3.44937 22.2188L2.38467 24.378L0 24.7243L1.72606 26.4057L1.31933 28.7797L3.4494 27.66ZM1.6005 25.2441L2.87853 25.0587L3.44943 23.9003L4.02233 25.0587L5.2997 25.2441L4.37456 26.146L4.59323 27.4194L3.4501 26.8179L2.30697 27.4201L2.52629 26.1467L1.6005 25.2441Z" fill="#6871EA"/>
<path d="M23.8422 2.92536L23.0799 1.38281L22.3202 2.92536L20.6182 3.17325L21.8497 4.3742L21.5586 6.0696L23.0799 5.26942L24.6031 6.0696L24.314 4.3742L25.5456 3.17325L23.8422 2.92536ZM23.6162 4.70978L23.0812 4.42866L22.5482 4.70978L22.6492 4.11496L22.2172 3.69293L22.8147 3.60653L23.0819 3.06554L23.3497 3.60653L23.9478 3.69293L23.5139 4.11496L23.6162 4.70978Z" fill="#6871EA"/>
<path d="M81.4345 64.4595L82.9558 65.2597L82.666 63.5643L83.8975 62.3633L82.1954 62.1154L81.4331 60.5742L80.6708 62.1154L78.9688 62.3633L80.2003 63.5643L79.9105 65.2597L81.4345 64.4595ZM81.1666 62.796L81.4345 62.255L81.7023 62.796L82.2998 62.8824L81.8678 63.3044L81.9688 63.8999L81.4351 63.6188L80.9015 63.8999L81.0025 63.3044L80.5705 62.8824L81.1666 62.796Z" fill="#6871EA"/>
<path d="M81.4341 8.52344L80.4485 11.5574H77.2598L79.8391 13.4323L78.8548 16.4655L81.4355 14.5906L84.0148 16.4655L83.0305 13.4323L85.6098 11.5574H82.421L81.4341 8.52344ZM82.1539 13.1485L82.5979 14.5163L81.4335 13.6709L80.2684 14.5176L80.7124 13.1492L79.548 12.3024H80.9882L81.4328 10.934L81.8768 12.3024H83.3169L82.1539 13.1485Z" fill="#6871EA"/>
<path d="M73.5379 0C72.2419 0 71.1885 1.05406 71.1885 2.34945C71.1885 3.64477 72.2425 4.6989 73.5379 4.6989C74.8333 4.6989 75.8874 3.64484 75.8874 2.34945C75.8874 1.05413 74.8333 0 73.5379 0ZM73.5379 3.95369C72.6527 3.95369 71.9329 3.23325 71.9329 2.34867C71.9329 1.46408 72.6533 0.743643 73.5379 0.743643C74.4225 0.743643 75.1429 1.46408 75.1429 2.34867C75.1429 3.23325 74.4225 3.95369 73.5379 3.95369Z" fill="#6871EA"/>
<path d="M82.9592 41.6172C81.9131 41.6172 81.0625 42.4679 81.0625 43.5139C81.0625 44.56 81.9132 45.4106 82.9592 45.4106C84.0053 45.4106 84.8559 44.5599 84.8559 43.5139C84.8559 42.4672 84.0039 41.6172 82.9592 41.6172ZM82.9592 44.6657C82.3232 44.6657 81.8068 44.1487 81.8068 43.5133C81.8068 42.878 82.3239 42.3609 82.9592 42.3609C83.5946 42.3609 84.1116 42.878 84.1116 43.5133C84.1116 44.1487 83.5946 44.6657 82.9592 44.6657Z" fill="#6871EA"/>
<path d="M9.84817 9.45703C8.48839 9.45703 7.38184 10.5636 7.38184 11.924C7.38184 13.2845 8.4884 14.3911 9.84817 14.3911C11.208 14.3911 12.3145 13.2845 12.3145 11.924C12.3145 10.5636 11.2079 9.45703 9.84817 9.45703ZM9.84817 13.6474C8.89846 13.6474 8.12619 12.8744 8.12619 11.9247C8.12619 10.975 8.89847 10.2021 9.84817 10.2021C10.7979 10.2021 11.5701 10.975 11.5701 11.9247C11.5701 12.8738 10.7985 13.6474 9.84817 13.6474Z" fill="#6871EA"/>
<path d="M16.79 82.8663C17.1144 82.9487 17.4433 83.0218 17.7763 83.0889L17.9212 82.3592C17.6015 82.2947 17.2838 82.223 16.9715 82.1445L16.79 82.8663Z" fill="#6871EA"/>
<path d="M2.21799 63.2309C2.21799 62.9085 2.22597 62.5835 2.24192 62.2592L1.49756 62.2227C1.48161 62.559 1.47363 62.8959 1.47363 63.2309C1.47363 63.5592 1.48161 63.8848 1.49623 64.2085L2.24059 64.1726C2.22597 63.8603 2.21799 63.5459 2.21799 63.2309Z" fill="#6871EA"/>
<path d="M9.64941 79.4803C10.1784 79.8744 10.7341 80.2466 11.2996 80.5869L11.6838 79.9488C11.1388 79.6212 10.6038 79.263 10.0927 78.8828L9.64941 79.4803Z" fill="#6871EA"/>
<path d="M13.0518 81.5235C13.6512 81.8073 14.2693 82.0631 14.8887 82.2858L15.1386 81.5853C14.5425 81.3719 13.9477 81.1247 13.3701 80.8516L13.0518 81.5235Z" fill="#6871EA"/>
<path d="M6.71289 76.8077C7.15486 77.2969 7.62672 77.7708 8.11455 78.2154L8.61698 77.6644C8.14645 77.2364 7.69185 76.7798 7.2665 76.3086L6.71289 76.8077Z" fill="#6871EA"/>
<path d="M2.6582 70.0326C2.88151 70.654 3.13539 71.2721 3.41852 71.8668L4.0911 71.5492C3.81993 70.9756 3.57403 70.3808 3.3587 69.7812L2.6582 70.0326Z" fill="#6871EA"/>
<path d="M4.35254 73.6205C4.68884 74.182 5.06035 74.7377 5.45446 75.2727L6.05393 74.83C5.67311 74.315 5.31556 73.7799 4.99322 73.2383L4.35254 73.6205Z" fill="#6871EA"/>
<path d="M2.42681 66.0743L1.69043 66.1833C1.78879 66.8406 1.91838 67.4953 2.07923 68.1306L2.80099 67.9491C2.64614 67.3377 2.5212 66.7063 2.42683 66.0742L2.42681 66.0743Z" fill="#6871EA"/>
<path d="M2.43365 60.3429C2.4815 60.0232 2.53666 59.7028 2.60113 59.3832L1.87072 59.2383C1.80493 59.5699 1.74644 59.9022 1.69727 60.2339L2.43365 60.3429Z" fill="#6871EA"/>
<path d="M83.3896 71.2899L84.13 71.3577C84.1606 71.0221 84.1805 70.6831 84.1878 70.3402L83.4435 70.3242C83.4362 70.6499 83.4196 70.9715 83.3896 71.2899Z" fill="#6871EA"/>
<path d="M72.9102 83.0917L73.065 83.8195C73.7888 83.666 74.5072 83.4513 75.1991 83.1821L74.9299 82.4883C74.2746 82.7435 73.5947 82.9462 72.9102 83.0917H72.9102Z" fill="#6871EA"/>
<path d="M76.8292 81.5721L77.2054 82.2141C77.8447 81.8413 78.4601 81.4133 79.0323 80.9427L78.5611 80.3672C78.0175 80.8131 77.4346 81.2192 76.8291 81.5721L76.8292 81.5721Z" fill="#6871EA"/>
<path d="M82.3477 75.3669L83.0302 75.6627C83.3273 74.9801 83.5692 74.271 83.7526 73.5565L83.0309 73.3711C82.8567 74.0477 82.6274 74.7189 82.3477 75.3668V75.3669Z" fill="#6871EA"/>
<path d="M80.0821 78.9088L80.639 79.4032C81.1334 78.8476 81.5847 78.2502 81.9828 77.6273L81.3548 77.2266C80.9793 77.8161 80.5499 78.3817 80.082 78.9087L80.0821 78.9088Z" fill="#6871EA"/>
<path d="M69.846 83.3786L69.8301 84.1229C69.9271 84.1249 70.0228 84.1256 70.1192 84.1256C70.3644 84.1256 70.6077 84.1196 70.8496 84.107L70.811 83.3633C70.4934 83.3806 70.1697 83.3859 69.846 83.3786Z" fill="#6871EA"/>
<path d="M82.5859 23.0586H83.3303V25.0438H82.5859V23.0586Z" fill="#6871EA"/>
<path d="M82.5859 27.0312H83.3303V29.0164H82.5859V27.0312Z" fill="#6871EA"/>
<path d="M82.5859 34.9727H83.3303V36.9578H82.5859V34.9727Z" fill="#6871EA"/>
<path d="M82.5859 31H83.3303V32.9852H82.5859V31Z" fill="#6871EA"/>
</svg>