<svg width="86" height="47" viewBox="0 0 86 47" fill="none" xmlns="http://www.w3.org/2000/svg">
<path d="M43.7651 22.2381V5.03125H42.8062C32.7888 5.03125 24.6387 13.1814 24.6387 23.197C24.6387 33.2135 32.7888 41.3627 42.8062 41.3627C52.8235 41.3627 60.9736 33.2135 60.9736 23.197V22.2381H43.7651ZM42.8062 39.4449C33.8461 39.4449 26.5565 32.1561 26.5565 23.197C26.5565 14.5607 33.3315 7.47559 41.8472 6.97738V24.1559H59.0284C58.5301 32.6699 51.4442 39.4449 42.8062 39.4449Z" fill="#6871EA"/>
<path d="M60.9426 21.7217L60.7876 20.6283C59.6626 12.6779 53.3233 6.34017 45.3746 5.21356L44.2812 5.05859V21.7209H59.8389L60.9426 21.7217ZM46.1981 19.8038V7.30683C52.4286 8.63564 57.3662 13.5733 58.6933 19.8038H46.1981Z" fill="#6871EA"/>
<path d="M42.8048 0C19.6721 0 1.28696 21.6589 0.515431 22.5825L0 23.1981L0.513722 23.8129C1.28599 24.7358 19.6726 46.3954 42.8052 46.3954C65.9379 46.3954 84.323 24.7365 85.0946 23.8129L85.61 23.1973L85.0963 22.5825C84.324 21.6595 65.9374 0 42.8048 0ZM42.8048 44.4768C22.7082 44.4768 5.73201 26.7529 2.52754 23.1971C5.72806 19.6404 22.6916 1.91742 42.8048 1.91742C62.9013 1.91742 79.8775 19.6413 83.082 23.1971C79.8815 26.7538 62.9179 44.4768 42.8048 44.4768Z" fill="#6871EA"/>
</svg>