<svg width="86" height="86" viewBox="0 0 86 86" fill="none" xmlns="http://www.w3.org/2000/svg">
<path d="M43.665 27.5163V26.3167H45.2042C46.453 26.3167 47.2598 25.3809 47.2598 23.932V22.5696C47.2598 21.1208 46.453 20.1849 45.2042 20.1849H43.665V17.133H46.6118V15.6443H43.665V14.4453H42.1763V15.6443L41.0325 15.6429C40.5659 15.6429 40.1578 15.72 39.8156 15.8742C39.4833 16.0251 39.2095 16.2364 38.9968 16.5083C38.812 16.7482 38.6791 17.0273 38.6007 17.333C38.5236 17.6268 38.4844 17.9671 38.4844 18.3446V18.972C38.4844 19.3541 38.5223 19.6857 38.5994 19.9795C38.6784 20.2912 38.814 20.571 38.9995 20.8109C39.2061 21.0768 39.48 21.2881 39.8176 21.4423C40.1552 21.5938 40.5639 21.6716 41.0325 21.6716H42.1769V24.8265H39.4607V26.3152H42.1769V27.5148H43.665L43.665 27.5163ZM43.665 21.6724H45.2042C45.3451 21.6724 45.7711 21.6724 45.7711 22.5683V23.9307C45.7711 24.8266 45.3444 24.8266 45.2042 24.8266H43.665V21.6724ZM41.0324 20.1837C40.7147 20.1837 40.5293 20.1298 40.4329 20.0873C40.3186 20.0348 40.2322 19.971 40.1751 19.8986C40.1133 19.8195 40.0721 19.7278 40.0402 19.6068C39.9956 19.4353 39.9724 19.222 39.9724 18.9714V18.344C39.9724 18.0948 39.9943 17.8815 40.0408 17.706C40.0707 17.5891 40.1133 17.4967 40.1731 17.4202C40.2329 17.3451 40.318 17.28 40.429 17.2308C40.5293 17.1863 40.7147 17.1318 41.0311 17.1318H42.1756V20.1838L41.0324 20.1837Z" fill="#6871EA"/>
<path d="M43.7489 43.5347C43.9376 43.5433 44.139 43.5666 44.3205 43.5666C46.5615 43.5666 48.257 42.9066 49.3695 41.5974C51.673 38.8877 50.4947 34.4655 50.4435 34.278C50.3684 34.0062 50.1458 33.7995 49.8686 33.745C47.9093 33.3602 46.2658 33.6951 44.9758 34.7372C44.4826 35.136 44.0799 35.6118 43.7489 36.1216V32.3831C49.6713 31.9565 54.3613 27.0112 54.3613 20.9804C54.3613 14.6693 49.2292 9.53516 42.9208 9.53516C36.6097 9.53516 31.4744 14.6693 31.4744 20.9804C31.4744 27.0682 36.2561 32.0468 42.2597 32.3916V43.5796C41.7526 42.5615 41.0694 41.5839 40.1295 40.8249C38.468 39.4811 36.3412 39.0545 33.8092 39.5529C33.5321 39.6074 33.3101 39.8141 33.2343 40.0859C33.1679 40.3298 31.6266 46.1032 34.614 49.6196C36.0489 51.3097 38.2487 52.1612 41.1671 52.1612C41.5147 52.1612 41.8929 52.1246 42.2611 52.0993V57.2074L31.4174 57.2081V65.6273H28.21V75.5339H54.4182V67.116H57.6268V57.2081H43.7493L43.7489 43.5347ZM31.0143 74.0474H29.6984V67.1181H31.0143V74.0474ZM45.9161 35.8937C46.7469 35.2238 47.8149 34.9686 49.1083 35.1307C49.315 36.2134 49.6579 38.9655 48.2317 40.6383C47.3324 41.695 45.8198 42.1656 43.7488 42.0572V41.3069C43.7495 41.269 43.8459 37.5632 45.9161 35.8937L45.9161 35.8937ZM32.9636 20.9819C32.9636 15.4915 37.4304 11.0253 42.9213 11.0253C48.409 11.0253 52.8731 15.4915 52.8731 20.9819C52.8731 26.4723 48.409 30.9384 42.9213 30.9384C37.4304 30.9384 32.9636 26.4723 32.9636 20.9819ZM35.7517 48.6601C33.702 46.2523 34.2929 42.2693 34.5673 40.9327C36.4368 40.6609 37.9887 41.0111 39.1904 41.9808C42.0448 44.2836 42.1758 49.34 42.1765 49.3905L42.2596 49.3899V50.6214C39.2489 50.8387 37.0536 50.1887 35.7517 48.6602L35.7517 48.6601ZM35.7085 58.6983H36.8948V65.6287H35.7085V58.6983ZM33.6887 74.0467H32.5024V67.1175H33.6887V74.0467ZM34.2198 65.6287H32.9058V58.6983H34.2198V65.6287ZM52.9283 74.0467H35.1759V67.1175H52.9283V74.0467ZM56.1369 58.6983V65.6287H38.3829V58.6983H56.1369Z" fill="#6871EA"/>
<path d="M23.0174 80.3711C21.7214 80.3711 20.668 81.4251 20.668 82.7205C20.668 84.0159 21.722 85.07 23.0174 85.07C24.3128 85.07 25.3669 84.0159 25.3669 82.7205C25.3662 81.4252 24.3135 80.3711 23.0174 80.3711ZM23.0174 84.3255C22.1322 84.3255 21.4124 83.605 21.4124 82.7204C21.4124 81.8359 22.1328 81.1154 23.0174 81.1154C23.902 81.1154 24.6224 81.8359 24.6224 82.7204C24.6218 83.605 23.9027 84.3255 23.0174 84.3255Z" fill="#6871EA"/>
<path d="M3.4494 27.66L5.58141 28.7791L5.17534 26.4052L6.898 24.7237L4.51605 24.3775L3.44936 22.2188L2.38467 24.378L0 24.7243L1.72606 26.4057L1.31933 28.7797L3.4494 27.66ZM1.6005 25.2441L2.87853 25.0587L3.44943 23.9003L4.02233 25.0587L5.2997 25.2441L4.37457 26.146L4.59323 27.4194L3.4501 26.8179L2.30697 27.4201L2.52629 26.1467L1.6005 25.2441Z" fill="#6871EA"/>
<path d="M23.0799 1.38281L22.3183 2.92403L20.6162 3.17193L21.8477 4.37287L21.5566 6.06827L23.0779 5.26809L24.6012 6.06827L24.3121 4.37287L25.5436 3.17193L23.8402 2.92403L23.0799 1.38281ZM23.6149 4.70852L23.0799 4.4274L22.5469 4.70852L22.6479 4.1137L22.2159 3.69167L22.8134 3.60527L23.0806 3.06428L23.3484 3.60527L23.9466 3.69167L23.5126 4.1137L23.6149 4.70852Z" fill="#6871EA"/>
<path d="M81.4345 64.4595L82.9558 65.2597L82.666 63.5643L83.8975 62.3633L82.1954 62.1154L81.4331 60.5742L80.6708 62.1154L78.9688 62.3633L80.2003 63.5643L79.9105 65.2597L81.4345 64.4595ZM81.1666 62.796L81.4345 62.255L81.7023 62.796L82.2998 62.8824L81.8678 63.3044L81.9688 63.8999L81.4351 63.6188L80.9015 63.8999L81.0025 63.3044L80.5705 62.8824L81.1666 62.796Z" fill="#6871EA"/>
<path d="M81.4341 8.52344L80.4485 11.5574H77.2598L79.8391 13.4323L78.8548 16.4655L81.4355 14.5906L84.0148 16.4655L83.0305 13.4323L85.6098 11.5574H82.421L81.4341 8.52344ZM82.1532 13.1485L82.5972 14.5163L81.4328 13.6709L80.2677 14.5176L80.7117 13.1492L79.5473 12.3024H80.9875L81.4321 10.934L81.8761 12.3024H83.3163L82.1532 13.1485Z" fill="#6871EA"/>
<path d="M73.536 0C72.24 0 71.1865 1.05406 71.1865 2.34945C71.1865 3.64477 72.2406 4.6989 73.536 4.6989C74.8313 4.6989 75.8854 3.64484 75.8854 2.34945C75.8854 1.05413 74.8314 0 73.536 0ZM73.536 3.95369C72.6507 3.95369 71.931 3.23325 71.931 2.34867C71.931 1.46408 72.6514 0.743644 73.536 0.743644C74.4206 0.743644 75.141 1.46408 75.141 2.34867C75.141 3.23325 74.4199 3.95369 73.536 3.95369Z" fill="#6871EA"/>
<path d="M82.9592 41.6172C81.9131 41.6172 81.0625 42.4679 81.0625 43.5139C81.0625 44.56 81.9132 45.4106 82.9592 45.4106C84.0053 45.4106 84.8559 44.5599 84.8559 43.5139C84.8552 42.4672 84.0039 41.6172 82.9592 41.6172ZM82.9592 44.6657C82.3232 44.6657 81.8068 44.1487 81.8068 43.5133C81.8068 42.878 82.3239 42.3609 82.9592 42.3609C83.5946 42.3609 84.1116 42.878 84.1116 43.5133C84.111 44.1487 83.5939 44.6657 82.9592 44.6657Z" fill="#6871EA"/>
<path d="M9.84622 9.45703C8.48643 9.45703 7.37988 10.5636 7.37988 11.924C7.37988 13.2845 8.48645 14.3911 9.84622 14.3911C11.206 14.3911 12.3126 13.2845 12.3126 11.924C12.3126 10.5636 11.206 9.45703 9.84622 9.45703ZM9.84622 13.6474C8.8965 13.6474 8.12424 12.8744 8.12424 11.9247C8.12424 10.975 8.89652 10.2021 9.84622 10.2021C10.7959 10.2021 11.5682 10.975 11.5682 11.9247C11.5682 12.8738 10.7959 13.6474 9.84622 13.6474Z" fill="#6871EA"/>
<path d="M16.79 82.8663C17.1144 82.9487 17.4433 83.0218 17.7763 83.0889L17.9212 82.3592C17.6015 82.2947 17.2838 82.223 16.9715 82.1445L16.79 82.8663Z" fill="#6871EA"/>
<path d="M13.0508 81.5235C13.6502 81.8073 14.2683 82.0631 14.8878 82.2858L15.1377 81.5853C14.5415 81.3719 13.9467 81.1247 13.3691 80.8516L13.0508 81.5235Z" fill="#6871EA"/>
<path d="M2.65625 70.0326C2.87956 70.654 3.13344 71.2721 3.41657 71.8668L4.08914 71.5492C3.81798 70.9756 3.57208 70.3808 3.35675 69.7812L2.65625 70.0326Z" fill="#6871EA"/>
<path d="M2.42486 66.0743L1.68848 66.1833C1.78684 66.8406 1.91643 67.4953 2.07728 68.1306L2.79904 67.9491C2.64485 67.3377 2.51925 66.7063 2.42487 66.0742L2.42486 66.0743Z" fill="#6871EA"/>
<path d="M4.35254 73.6165C4.68884 74.1781 5.06035 74.7337 5.45446 75.2687L6.05393 74.8261C5.67311 74.311 5.31556 73.776 4.99321 73.2344L4.35254 73.6165Z" fill="#6871EA"/>
<path d="M9.64746 79.4803C10.1765 79.8744 10.7321 80.2466 11.2977 80.5869L11.6818 79.9488C11.1368 79.6212 10.6018 79.263 10.0907 78.8828L9.64746 79.4803Z" fill="#6871EA"/>
<path d="M6.71387 76.8077C7.15584 77.2969 7.6277 77.7708 8.11552 78.2154L8.61796 77.6644C8.14742 77.2364 7.69283 76.7798 7.26748 76.3086L6.71387 76.8077Z" fill="#6871EA"/>
<path d="M2.21604 63.2309C2.21604 62.9085 2.22401 62.5835 2.23996 62.2592L1.49561 62.2227C1.47899 62.5603 1.47168 62.8952 1.47168 63.2309C1.47168 63.5585 1.47966 63.8842 1.49428 64.2085L2.23863 64.1726C2.22401 63.8596 2.21604 63.5459 2.21604 63.2309Z" fill="#6871EA"/>
<path d="M2.43365 60.3389C2.4815 60.0193 2.53666 59.6989 2.60113 59.3793L1.87072 59.2344C1.80493 59.566 1.74644 59.8983 1.69727 60.23L2.43365 60.3389Z" fill="#6871EA"/>
<path d="M83.3896 71.2899L84.13 71.3577C84.1606 71.0221 84.1805 70.6831 84.1879 70.3402L83.4435 70.3242C83.4362 70.6499 83.4189 70.9715 83.3897 71.2899H83.3896Z" fill="#6871EA"/>
<path d="M72.9082 83.0917L73.0631 83.8195C73.7868 83.666 74.5053 83.4513 75.1971 83.1821L74.928 82.4883C74.2726 82.7435 73.5927 82.9462 72.9082 83.0917H72.9082Z" fill="#6871EA"/>
<path d="M76.8273 81.5721L77.2034 82.2141C77.8428 81.8413 78.4582 81.4133 79.0304 80.9427L78.5592 80.3672C78.0155 80.8131 77.4327 81.2192 76.8271 81.5721L76.8273 81.5721Z" fill="#6871EA"/>
<path d="M80.0801 78.9088L80.637 79.4032C81.1315 78.8476 81.5828 78.2502 81.9809 77.6273L81.3528 77.2266C80.9773 77.8161 80.5486 78.3817 80.0801 78.9087L80.0801 78.9088Z" fill="#6871EA"/>
<path d="M82.3467 75.3669L83.0292 75.6627C83.3263 74.9801 83.5682 74.271 83.7517 73.5565L83.0299 73.3711C82.8558 74.0477 82.6265 74.7189 82.3467 75.3668V75.3669Z" fill="#6871EA"/>
<path d="M69.846 83.3825L69.8301 84.1268C69.9271 84.1288 70.0228 84.1295 70.1192 84.1295C70.3644 84.1295 70.6077 84.1235 70.8496 84.1109L70.811 83.3672C70.492 83.3845 70.1684 83.3898 69.846 83.3825Z" fill="#6871EA"/>
<path d="M82.5859 27.0312H83.3303V29.0164H82.5859V27.0312Z" fill="#6871EA"/>
<path d="M82.5859 31H83.3303V32.9852H82.5859V31Z" fill="#6871EA"/>
<path d="M82.5859 34.9688H83.3303V36.9539H82.5859V34.9688Z" fill="#6871EA"/>
<path d="M82.5859 23.0586H83.3303V25.0438H82.5859V23.0586Z" fill="#6871EA"/>
</svg>