<svg width="24" height="24" viewBox="0 0 24 24" fill="none" xmlns="http://www.w3.org/2000/svg" class="theme-dark-invert" style="display: flex;"><rect width="24" height="24" rx="12" fill="#fff"></rect><path d="M22.002 12.138c0-.842-.068-1.457-.216-2.094h-9.594v3.8h5.632c-.114.945-.727 2.368-2.09 3.323l-.018.128 3.033 2.355.21.021c1.93-1.787 3.043-4.415 3.043-7.533z" fill="#4285F4"></path><path d="M12.192 22.152c2.759 0 5.075-.91 6.767-2.48l-3.225-2.504c-.863.603-2.02 1.024-3.542 1.024-2.702 0-4.996-1.786-5.813-4.255l-.12.01-3.154 2.446-.042.115c1.68 3.346 5.132 5.645 9.129 5.645z" fill="#34A853"></path><path d="M6.379 13.935a6.317 6.317 0 01-.34-2.025c0-.706.124-1.388.329-2.026l-.006-.135-3.194-2.486-.104.05a10.27 10.27 0 00-1.09 4.597c0 1.65.397 3.209 1.09 4.597l3.315-2.572z" fill="#FBBC05"></path><path d="M12.192 5.629c1.919 0 3.213.83 3.951 1.525l2.884-2.822c-1.771-1.65-4.076-2.663-6.835-2.663-3.997 0-7.448 2.299-9.129 5.644l3.304 2.572c.83-2.47 3.123-4.256 5.825-4.256z" fill="#EB4335"></path></svg>