<svg width="40" height="32" viewBox="0 0 40 32" fill="none" xmlns="http://www.w3.org/2000/svg"><rect width="40" height="32" rx="8" fill="#FFF3E0"></rect><g clip-path="url(#clip0_5547_4650)"><path d="M20 7.76533C20.1886 7.76533 20.3695 7.69041 20.5028 7.55705C20.6362 7.42369 20.7111 7.24282 20.7111 7.05422V4.55822C20.7111 4.36962 20.6362 4.18875 20.5028 4.05539C20.3695 3.92203 20.1886 3.84711 20 3.84711C19.8114 3.84711 19.6305 3.92203 19.4972 4.05539C19.3638 4.18875 19.2889 4.36962 19.2889 4.55822V7.05422C19.2889 7.24282 19.3638 7.42369 19.4972 7.55705C19.6305 7.69041 19.8114 7.76533 20 7.76533Z" fill="#FFC164"></path><path d="M20 24.2347C19.8114 24.2347 19.6305 24.3096 19.4972 24.443C19.3638 24.5763 19.2889 24.7572 19.2889 24.9458V27.4418C19.2889 27.6304 19.3638 27.8113 19.4972 27.9446C19.6305 28.078 19.8114 28.1529 20 28.1529C20.1886 28.1529 20.3695 28.078 20.5028 27.9446C20.6362 27.8113 20.7111 27.6304 20.7111 27.4418V24.9458C20.7111 24.7572 20.6362 24.5763 20.5028 24.443C20.3695 24.3096 20.1886 24.2347 20 24.2347Z" fill="#FFC164"></path><path d="M13.1734 10.176C13.3094 10.2925 13.4844 10.3534 13.6634 10.3465C13.8424 10.3396 14.0121 10.2654 14.1388 10.1388C14.2654 10.0121 14.3396 9.84234 14.3465 9.66337C14.3534 9.4844 14.2926 9.30941 14.1761 9.17338L12.4125 7.40982C12.2765 7.29332 12.1015 7.23245 11.9225 7.23936C11.7436 7.24627 11.5738 7.32047 11.4471 7.44711C11.3205 7.57376 11.2463 7.74353 11.2394 7.9225C11.2325 8.10147 11.2934 8.27645 11.4099 8.41249L13.1734 10.176Z" fill="#FFC164"></path><path d="M26.8266 21.824C26.6905 21.7075 26.5156 21.6466 26.3366 21.6535C26.1576 21.6605 25.9878 21.7347 25.8612 21.8613C25.7346 21.9879 25.6604 22.1577 25.6535 22.3367C25.6465 22.5156 25.7074 22.6906 25.8239 22.8267L27.5875 24.5902C27.7235 24.7067 27.8985 24.7676 28.0775 24.7607C28.2564 24.7538 28.4262 24.6796 28.5528 24.5529C28.6795 24.4263 28.7537 24.2565 28.7606 24.0776C28.7675 23.8986 28.7066 23.7236 28.5901 23.5876L26.8266 21.824Z" fill="#FFC164"></path><path d="M11.7653 16C11.7653 15.8114 11.6904 15.6305 11.557 15.4972C11.4237 15.3638 11.2428 15.2889 11.0542 15.2889H8.55822C8.36962 15.2889 8.18875 15.3638 8.05539 15.4972C7.92203 15.6305 7.84711 15.8114 7.84711 16C7.84711 16.1886 7.92203 16.3695 8.05539 16.5028C8.18875 16.6362 8.36962 16.7111 8.55822 16.7111H11.0542C11.2428 16.7111 11.4237 16.6362 11.557 16.5028C11.6904 16.3695 11.7653 16.1886 11.7653 16Z" fill="#FFC164"></path><path d="M31.4417 15.2889H28.9457C28.7571 15.2889 28.5762 15.3638 28.4428 15.4972C28.3095 15.6305 28.2346 15.8114 28.2346 16C28.2346 16.1886 28.3095 16.3695 28.4428 16.5028C28.5762 16.6362 28.7571 16.7111 28.9457 16.7111H31.4417C31.6303 16.7111 31.8111 16.6362 31.9445 16.5028C32.0779 16.3695 32.1528 16.1886 32.1528 16C32.1528 15.8114 32.0779 15.6305 31.9445 15.4972C31.8111 15.3638 31.6303 15.2889 31.4417 15.2889Z" fill="#FFC164"></path><path d="M13.1734 21.824L11.4099 23.5876C11.2934 23.7236 11.2325 23.8986 11.2394 24.0776C11.2463 24.2565 11.3205 24.4263 11.4471 24.5529C11.5738 24.6796 11.7436 24.7538 11.9225 24.7607C12.1015 24.7676 12.2765 24.7067 12.4125 24.5902L14.1761 22.8267C14.2926 22.6906 14.3534 22.5156 14.3465 22.3367C14.3396 22.1577 14.2654 21.9879 14.1388 21.8613C14.0121 21.7347 13.8424 21.6605 13.6634 21.6535C13.4844 21.6466 13.3094 21.7075 13.1734 21.824Z" fill="#FFC164"></path><path d="M26.8266 10.176L28.5901 8.41249C28.7066 8.27645 28.7675 8.10147 28.7606 7.9225C28.7537 7.74353 28.6795 7.57376 28.5528 7.44711C28.4262 7.32047 28.2564 7.24627 28.0775 7.23936C27.8985 7.23245 27.7235 7.29332 27.5875 7.40982L25.8239 9.17338C25.7074 9.30941 25.6465 9.4844 25.6535 9.66337C25.6604 9.84234 25.7346 10.0121 25.8612 10.1388C25.9878 10.2654 26.1576 10.3396 26.3366 10.3465C26.5156 10.3534 26.6905 10.2925 26.8266 10.176Z" fill="#FFC164"></path><path d="M20 23.1111C23.9274 23.1111 27.1111 19.9274 27.1111 16C27.1111 12.0727 23.9274 8.88892 20 8.88892C16.0726 8.88892 12.8889 12.0727 12.8889 16C12.8889 19.9274 16.0726 23.1111 20 23.1111Z" fill="#FFC164"></path></g><defs><clipPath id="clip0_5547_4650"><rect width="25.6" height="25.6" fill="white" transform="translate(7.19998 3.20001)"></rect></clipPath></defs></svg>