<svg width="18" height="18" viewBox="0 0 18 18" fill="none" xmlns="http://www.w3.org/2000/svg">
<path d="M10.3724 10.3724C11.1002 9.64433 11.509 8.65703 11.509 7.6276C11.509 6.59817 11.1002 5.61087 10.3724 4.8828L7.6276 2.13712C6.89952 1.40903 5.91203 1 4.88236 0.999999C3.85269 0.999999 2.8652 1.40903 2.13712 2.13712C1.40903 2.8652 1 3.85269 1 4.88236C1 5.91202 1.40903 6.89952 2.13712 7.6276L3.50952 9M7.6276 7.6276C6.89983 8.35567 6.491 9.34296 6.491 10.3724C6.491 11.4018 6.89983 12.3891 7.6276 13.1172L10.3724 15.8629C11.1005 16.591 12.088 17 13.1176 17C14.1473 17 15.1348 16.591 15.8629 15.8629C16.591 15.1348 17 14.1473 17 13.1176C17 12.088 16.591 11.1005 15.8629 10.3724L14.4905 9" stroke="#8087ED" stroke-width="1.6" stroke-linecap="round" stroke-linejoin="round"/>
</svg>
