<svg width="32" height="32" viewBox="0 0 32 32" fill="none" xmlns="http://www.w3.org/2000/svg">
<path fill-rule="evenodd" clip-rule="evenodd" d="M3.2002 5.33872C3.2002 4.77148 3.42553 4.22748 3.82662 3.82638C4.22772 3.42529 4.77172 3.19995 5.33896 3.19995H26.6591C26.9402 3.19949 27.2186 3.25449 27.4785 3.36178C27.7383 3.46907 27.9744 3.62655 28.1733 3.82522C28.3722 4.02388 28.5299 4.25982 28.6375 4.51953C28.7451 4.77924 28.8003 5.05761 28.8002 5.33872V26.6589C28.8005 26.94 28.7454 27.2185 28.6379 27.4783C28.5305 27.7381 28.3729 27.9742 28.1742 28.1731C27.9754 28.372 27.7394 28.5297 27.4796 28.6373C27.2199 28.7448 26.9414 28.8001 26.6603 28.8H5.33896C5.05799 28.8 4.77978 28.7446 4.52022 28.637C4.26066 28.5295 4.02483 28.3718 3.82621 28.1731C3.6276 27.9744 3.47008 27.7385 3.36267 27.4789C3.25525 27.2192 3.20004 26.941 3.2002 26.66V5.33872ZM13.3331 12.9605H16.7996V14.7013C17.3 13.7006 18.58 12.8 20.5035 12.8C24.191 12.8 25.0649 14.7933 25.0649 18.4506V25.2253H21.3331V19.2837C21.3331 17.2008 20.8328 16.0256 19.5621 16.0256C17.7992 16.0256 17.0661 17.2928 17.0661 19.2837V25.2253H13.3331V12.9605ZM6.93314 25.0658H10.6661V12.8H6.93314V25.0647V25.0658ZM11.2002 8.79937C11.2072 9.11899 11.1504 9.4368 11.0329 9.73414C10.9155 10.0315 10.7398 10.3024 10.5162 10.5309C10.2927 10.7594 10.0257 10.941 9.73105 11.065C9.43637 11.1889 9.11989 11.2528 8.8002 11.2528C8.4805 11.2528 8.16402 11.1889 7.86934 11.065C7.57466 10.941 7.3077 10.7594 7.08414 10.5309C6.86059 10.3024 6.68493 10.0315 6.56748 9.73414C6.45003 9.4368 6.39316 9.11899 6.4002 8.79937C6.41401 8.172 6.67293 7.57498 7.12152 7.13617C7.5701 6.69736 8.17267 6.45164 8.8002 6.45164C9.42772 6.45164 10.0303 6.69736 10.4789 7.13617C10.9275 7.57498 11.1864 8.172 11.2002 8.79937Z" fill="#D3D6E4"/>
</svg>
