<svg class="Nav_linkImg__EhBRW" width="18" height="18" viewBox="0 0 18 18" fill="none" xmlns="http://www.w3.org/2000/svg"><path d="M9.19634 0.75C11.7905 0.75 14.1924 1.90087 15.7851 3.8388C15.8305 3.89373 15.8644 3.95723 15.8847 4.02552C15.9051 4.09382 15.9115 4.1655 15.9035 4.23631C15.8956 4.30713 15.8735 4.37562 15.8386 4.43772C15.8037 4.49983 15.7566 4.55426 15.7002 4.5978C15.5854 4.68781 15.44 4.72954 15.295 4.71414C15.1499 4.69873 15.0166 4.62741 14.9232 4.5153C14.2267 3.67151 13.3517 2.99287 12.3612 2.52834C11.3707 2.06382 10.2895 1.82499 9.19552 1.8291C5.14144 1.8291 1.85446 5.04 1.85446 9C1.85446 12.96 5.14144 16.1709 9.19552 16.1709C11.4844 16.1709 13.5985 15.1413 14.9826 13.4129C15.0744 13.2997 15.2066 13.2266 15.3514 13.2092C15.4961 13.1918 15.6419 13.2314 15.7579 13.3197C15.8148 13.3625 15.8625 13.4163 15.8982 13.4779C15.9339 13.5395 15.9569 13.6076 15.9657 13.6783C15.9746 13.7489 15.9691 13.8206 15.9497 13.8891C15.9303 13.9576 15.8974 14.0215 15.8528 14.077C14.2625 16.0653 11.8284 17.25 9.19634 17.25C4.53023 17.25 0.75 13.5565 0.75 9C0.75 4.44353 4.53106 0.75 9.19634 0.75ZM14.8531 6.657L17.0851 8.89028C17.3012 9.1056 17.3053 9.45127 17.095 9.66248L14.9141 11.8429C14.8106 11.9442 14.6712 12.0003 14.5264 11.9987C14.3816 11.9972 14.2434 11.9382 14.1421 11.8347C14.0907 11.7846 14.0497 11.7248 14.0214 11.6588C13.9931 11.5928 13.9781 11.5219 13.9773 11.4501C13.9764 11.3783 13.9897 11.307 14.0165 11.2404C14.0432 11.1737 14.0828 11.113 14.133 11.0617L15.409 9.7854H6.90494C6.83323 9.78627 6.76205 9.77301 6.69547 9.74636C6.62889 9.71972 6.5682 9.68022 6.51689 9.63011C6.46557 9.58001 6.42462 9.52029 6.39638 9.45436C6.36814 9.38842 6.35316 9.31757 6.3523 9.24585C6.3523 8.9472 6.59975 8.70547 6.90494 8.70547H15.3752L14.0901 7.42013C13.9865 7.31892 13.9274 7.18071 13.9257 7.0359C13.924 6.8911 13.9799 6.75154 14.081 6.64792C14.1846 6.54675 14.3242 6.49087 14.4689 6.49257C14.6137 6.49427 14.7519 6.55342 14.8531 6.657Z" fill="#9EA0B7"></path></svg>