<svg width="40" height="40" viewBox="0 0 40 40" fill="none" xmlns="http://www.w3.org/2000/svg"><path d="M0 9C0 4.02944 4.02944 0 9 0H31C35.9706 0 40 4.02944 40 9V31C40 35.9706 35.9706 40 31 40H9C4.02944 40 0 35.9706 0 31V9Z" fill="#B2B7FF" fill-opacity="0.2"></path><path d="M11.5 12.9891C11.5005 12.9073 11.5075 12.8257 11.521 12.745C11.5977 12.3846 11.7984 12.0625 12.0883 11.8351C12.3781 11.6076 12.7386 11.4891 13.1069 11.5003H27C27.1326 11.5003 27.2598 11.4476 27.3536 11.3539C27.4473 11.2601 27.5 11.1329 27.5 11.0003C27.5 10.8677 27.4473 10.7405 27.3536 10.6468C27.2598 10.553 27.1326 10.5003 27 10.5003H13.1069C12.5017 10.4907 11.9123 10.6941 11.4419 11.0751C10.9715 11.4561 10.65 11.9903 10.5337 12.5843C10.5127 12.7135 10.5016 12.8441 10.5005 12.975L10.5 13.0003V27.0003C10.5008 27.6631 10.7644 28.2986 11.2331 28.7672C11.7018 29.2359 12.3372 29.4995 13 29.5003H27C27.6628 29.4995 28.2982 29.2359 28.7669 28.7672C29.2356 28.2986 29.4992 27.6631 29.5 27.0003V17.0003C29.4992 16.3375 29.2356 15.7021 28.7669 15.2334C28.2982 14.7647 27.6628 14.5011 27 14.5003H13C12.7825 14.5004 12.5676 14.4531 12.3702 14.3618C12.1728 14.2705 11.9977 14.1373 11.8569 13.9715C11.6308 13.7076 11.5044 13.3727 11.5 13.0252V12.9891ZM13 15.5003H27C27.3977 15.5008 27.779 15.6589 28.0602 15.9401C28.3414 16.2214 28.4996 16.6026 28.5 17.0003V27.0003C28.4996 27.398 28.3414 27.7793 28.0602 28.0605C27.779 28.3417 27.3977 28.4999 27 28.5003H13C12.6023 28.4999 12.221 28.3417 11.9398 28.0605C11.6586 27.7793 11.5004 27.398 11.5 27.0003V15.0003C11.9325 15.3253 12.459 15.5008 13 15.5003ZM23 24.5003C23.4945 24.5003 23.9778 24.3537 24.3889 24.079C24.8 23.8043 25.1205 23.4139 25.3097 22.957C25.4989 22.5002 25.5484 21.9976 25.452 21.5126C25.3555 21.0276 25.1174 20.5822 24.7678 20.2326C24.4181 19.8829 23.9727 19.6448 23.4877 19.5484C23.0028 19.4519 22.5001 19.5014 22.0433 19.6906C21.5865 19.8798 21.196 20.2003 20.9213 20.6114C20.6466 21.0225 20.5 21.5059 20.5 22.0003C20.5008 22.6631 20.7644 23.2986 21.2331 23.7672C21.7018 24.2359 22.3372 24.4995 23 24.5003ZM23 20.5003C23.2967 20.5003 23.5867 20.5883 23.8334 20.7531C24.08 20.9179 24.2723 21.1522 24.3858 21.4263C24.4993 21.7004 24.5291 22.002 24.4712 22.293C24.4133 22.5839 24.2704 22.8512 24.0607 23.061C23.8509 23.2708 23.5836 23.4136 23.2926 23.4715C23.0017 23.5294 22.7001 23.4997 22.426 23.3861C22.1519 23.2726 21.9176 23.0804 21.7528 22.8337C21.588 22.587 21.5 22.297 21.5 22.0003C21.5004 21.6026 21.6586 21.2214 21.9398 20.9401C22.221 20.6589 22.6023 20.5008 23 20.5003Z" fill="#3F4271"></path></svg>