<svg width="18" height="18" viewBox="0 0 18 18" fill="none" xmlns="http://www.w3.org/2000/svg">
<path d="M13.0008 0.300003C12.6142 0.300003 12.3008 0.613404 12.3008 1C12.3008 1.3866 12.6142 1.7 13.0008 1.7H16.3008V5C16.3008 5.3866 16.6142 5.7 17.0008 5.7C17.3874 5.7 17.7008 5.3866 17.7008 5V1C17.7008 0.613404 17.3874 0.300003 17.0008 0.300003H13.0008Z" fill="#6871EA"/>
<path d="M1.70078 13C1.70078 12.6134 1.38738 12.3 1.00078 12.3C0.614182 12.3 0.300781 12.6134 0.300781 13V17C0.300781 17.3866 0.614182 17.7 1.00078 17.7H5.00078C5.38738 17.7 5.70078 17.3866 5.70078 17C5.70078 16.6134 5.38738 16.3 5.00078 16.3H1.70078V13Z" fill="#6871EA"/>
<path d="M17.0008 12.3C17.3874 12.3 17.7008 12.6134 17.7008 13V17C17.7008 17.3866 17.3874 17.7 17.0008 17.7H13.0008C12.6142 17.7 12.3008 17.3866 12.3008 17C12.3008 16.6134 12.6142 16.3 13.0008 16.3H16.3008V13C16.3008 12.6134 16.6142 12.3 17.0008 12.3Z" fill="#6871EA"/>
<path d="M1.00078 0.300003C0.614182 0.300003 0.300781 0.613404 0.300781 1V5C0.300781 5.3866 0.614182 5.7 1.00078 5.7C1.38738 5.7 1.70078 5.3866 1.70078 5V1.7H5.00078C5.38738 1.7 5.70078 1.3866 5.70078 1C5.70078 0.613404 5.38738 0.300003 5.00078 0.300003H1.00078Z" fill="#6871EA"/>
</svg>
