<svg width="20" height="20" viewBox="0 0 20 20" fill="none" xmlns="http://www.w3.org/2000/svg">
<path fill-rule="evenodd" clip-rule="evenodd" d="M10.0002 0.345703C4.66819 0.345703 0.345703 4.66819 0.345703 10.0002C0.345703 15.3323 4.66819 19.6548 10.0002 19.6548C15.3323 19.6548 19.6548 15.3323 19.6548 10.0002C19.6548 4.66819 15.3323 0.345703 10.0002 0.345703ZM9.36914 1.6783C5.05488 2.00088 1.65479 5.6035 1.65479 10.0002C1.65479 14.4037 5.06531 18.0107 9.38898 18.3237C9.37601 18.2704 9.36914 18.2148 9.36914 18.1575V15.9155C6.32012 15.4349 4.00022 12.9693 4 10.0007L5.61061 8.50388C5.43846 8.98569 5.35051 9.49075 5.35088 9.99982C5.35088 12.6222 7.63725 14.7465 10.4572 14.7465C11.7168 14.7481 12.933 14.3155 13.8683 13.5324C14.1452 13.3005 14.5723 13.3209 14.8222 13.5779C15.0721 13.835 15.0501 14.2314 14.7731 14.4633C13.6669 15.3896 12.251 15.9286 10.7691 15.9936V18.1575C10.7691 18.2107 10.7632 18.2625 10.752 18.3123C15.0088 17.9323 18.3457 14.3559 18.3457 10.0002C18.3457 5.65041 15.0178 2.07785 10.7691 1.68974L10.7691 4.00692C12.2531 4.07213 13.6707 4.61261 14.7775 5.54119C15.0542 5.77336 15.0758 6.16976 14.8256 6.42659C14.5755 6.68341 14.1483 6.70341 13.8716 6.47124C12.936 5.68631 11.7193 5.25242 10.4581 5.25398C9.90956 5.25432 9.36504 5.33661 8.84613 5.49703L9.73117 4.67454C9.73127 4.67459 9.73108 4.67448 9.73117 4.67454L8.84613 5.49703C8.73042 5.53281 8.6153 5.57269 8.50232 5.6162C7.8825 5.85493 7.31941 6.20462 6.8452 6.64532C6.37099 7.08601 5.99496 7.60907 5.73856 8.18464C5.69183 8.28955 5.64901 8.39645 5.61061 8.50388L4 10.0007C3.99949 9.21334 4.16605 8.43322 4.49017 7.70563C4.81434 6.97791 5.28979 6.31658 5.88935 5.75939C6.48891 5.2022 7.20086 4.76006 7.98453 4.45823C8.43088 4.28632 8.89552 4.16184 9.36958 4.08643C9.36929 4.07811 9.36914 4.06976 9.36914 4.06138V1.6783Z" fill="#6D6F96"/>
</svg>
