<svg width="18" height="16" viewBox="0 0 18 16" fill="none" xmlns="http://www.w3.org/2000/svg"><path d="M14.8988 3.90909V6.63636C14.8988 6.81719 14.8259 6.99062 14.6961 7.11848C14.5662 7.24635 14.3901 7.31818 14.2065 7.31818C14.0229 7.31818 13.8468 7.24635 13.717 7.11848C13.5872 6.99062 13.5142 6.81719 13.5142 6.63636V4.59091H11.4373C11.2537 4.59091 11.0776 4.51907 10.9478 4.39121C10.8179 4.26334 10.745 4.08992 10.745 3.90909C10.745 3.72826 10.8179 3.55484 10.9478 3.42697C11.0776 3.29911 11.2537 3.22727 11.4373 3.22727H14.2065C14.3901 3.22727 14.5662 3.29911 14.6961 3.42697C14.8259 3.55484 14.8988 3.72826 14.8988 3.90909ZM6.56282 11.4091H4.4859V9.36364C4.4859 9.18281 4.41296 9.00938 4.28313 8.88152C4.15329 8.75365 3.9772 8.68182 3.79359 8.68182C3.60998 8.68182 3.43389 8.75365 3.30406 8.88152C3.17422 9.00938 3.10128 9.18281 3.10128 9.36364V12.0909C3.10128 12.2717 3.17422 12.4452 3.30406 12.573C3.43389 12.7009 3.60998 12.7727 3.79359 12.7727H6.56282C6.74643 12.7727 6.92253 12.7009 7.05236 12.573C7.18219 12.4452 7.25513 12.2717 7.25513 12.0909C7.25513 11.9101 7.18219 11.7367 7.05236 11.6088C6.92253 11.4809 6.74643 11.4091 6.56282 11.4091ZM17.6681 1.86364V14.1364C17.6681 14.498 17.5222 14.8449 17.2625 15.1006C17.0029 15.3563 16.6507 15.5 16.2835 15.5H1.71667C1.34945 15.5 0.997263 15.3563 0.737598 15.1006C0.477932 14.8449 0.332053 14.498 0.332053 14.1364V1.86364C0.332053 1.50198 0.477932 1.15513 0.737598 0.8994C0.997263 0.643668 1.34945 0.5 1.71667 0.5H16.2835C16.6507 0.5 17.0029 0.643668 17.2625 0.8994C17.5222 1.15513 17.6681 1.50198 17.6681 1.86364ZM16.2835 14.1364V1.86364H1.71667V14.1364H16.2835Z" fill="#9EA0B7"></path></svg>