<svg width="40" height="32" viewBox="0 0 40 32" fill="none" xmlns="http://www.w3.org/2000/svg">
<rect width="40" height="32" rx="8" fill="#F0F1FC"/>
<path fill-rule="evenodd" clip-rule="evenodd" d="M12.6236 8.05546C13.1393 7.53973 13.8388 7.25 14.5681 7.25H24.5681C25.0322 7.25 25.4774 7.43437 25.8056 7.76256C26.1337 8.09075 26.3181 8.53587 26.3181 9V11.25H26.5681C27.0322 11.25 27.4774 11.4344 27.8056 11.7626C28.1337 12.0908 28.3181 12.5359 28.3181 13V23C28.3181 23.4641 28.1337 23.9092 27.8056 24.2374C27.4774 24.5656 27.0322 24.75 26.5681 24.75H14.5681C13.8388 24.75 13.1393 24.4603 12.6236 23.9445C12.1078 23.4288 11.8181 22.7293 11.8181 22V10C11.8181 9.27065 12.1078 8.57118 12.6236 8.05546ZM13.3181 12.4495V22C13.3181 22.3315 13.4498 22.6495 13.6842 22.8839C13.9187 23.1183 14.2366 23.25 14.5681 23.25H26.5681C26.6344 23.25 26.698 23.2237 26.7449 23.1768C26.7918 23.1299 26.8181 23.0663 26.8181 23V13C26.8181 12.9337 26.7918 12.8701 26.7449 12.8232C26.698 12.7763 26.6344 12.75 26.5681 12.75H14.5681C14.1295 12.75 13.7017 12.6452 13.3181 12.4495ZM24.8181 11.25H14.5681C14.2366 11.25 13.9187 11.1183 13.6842 10.8839C13.4498 10.6495 13.3181 10.3315 13.3181 10C13.3181 9.66848 13.4498 9.35054 13.6842 9.11612C13.9187 8.8817 14.2366 8.75 14.5681 8.75H24.5681C24.6344 8.75 24.698 8.77634 24.7449 8.82322C24.7918 8.87011 24.8181 8.9337 24.8181 9V11.25Z" fill="#555ED0"/>
</svg>