<svg width="19" height="13" viewBox="0 0 19 13" fill="none" xmlns="http://www.w3.org/2000/svg">
<path d="M18.3808 5.98558C16.4238 2.00383 13.4656 0 9.49999 0C5.53233 0 2.5762 2.00383 0.619206 5.98758C0.54071 6.14812 0.5 6.32345 0.5 6.501C0.5 6.67854 0.54071 6.85388 0.619206 7.01442C2.5762 10.9962 5.5344 13 9.49999 13C13.4677 13 16.4238 10.9962 18.3808 7.01242C18.5397 6.68942 18.5397 6.31457 18.3808 5.98558ZM9.49999 11.5644C6.17021 11.5644 3.73223 9.93344 2.01264 6.5C3.73223 3.06656 6.17021 1.43558 9.49999 1.43558C12.8298 1.43558 15.2678 3.06656 16.9874 6.5C15.2698 9.93344 12.8318 11.5644 9.49999 11.5644ZM9.41742 2.9908C7.41088 2.9908 5.78418 4.56196 5.78418 6.5C5.78418 8.43804 7.41088 10.0092 9.41742 10.0092C11.424 10.0092 13.0507 8.43804 13.0507 6.5C13.0507 4.56196 11.424 2.9908 9.41742 2.9908ZM9.41742 8.73313C8.1396 8.73313 7.10536 7.7342 7.10536 6.5C7.10536 5.2658 8.1396 4.26687 9.41742 4.26687C10.6952 4.26687 11.7295 5.2658 11.7295 6.5C11.7295 7.7342 10.6952 8.73313 9.41742 8.73313Z" fill="white"/>
</svg>
