<svg width="14" height="14" viewBox="0 0 14 14" fill="none" xmlns="http://www.w3.org/2000/svg">
<mask id="path-1-inside-1_7651_5223" fill="white">
<path d="M4.45455 12.7273H1.90909C1.74032 12.7273 1.57846 12.6602 1.45911 12.5409C1.33977 12.4215 1.27273 12.2597 1.27273 12.0909V9.54545C1.27273 9.37668 1.20568 9.21482 1.08634 9.09548C0.966999 8.97614 0.805138 8.90909 0.636364 8.90909C0.467589 8.90909 0.305728 8.97614 0.186387 9.09548C0.0670452 9.21482 0 9.37668 0 9.54545V12.0909C0 12.5972 0.201136 13.0828 0.55916 13.4408C0.917184 13.7989 1.40277 14 1.90909 14H4.45455C4.62332 14 4.78518 13.933 4.90452 13.8136C5.02386 13.6943 5.09091 13.5324 5.09091 13.3636C5.09091 13.1949 5.02386 13.033 4.90452 12.9137C4.78518 12.7943 4.62332 12.7273 4.45455 12.7273ZM13.3636 8.90909C13.1949 8.90909 13.033 8.97614 12.9137 9.09548C12.7943 9.21482 12.7273 9.37668 12.7273 9.54545V12.0909C12.7273 12.2597 12.6602 12.4215 12.5409 12.5409C12.4215 12.6602 12.2597 12.7273 12.0909 12.7273H9.54545C9.37668 12.7273 9.21482 12.7943 9.09548 12.9137C8.97614 13.033 8.90909 13.1949 8.90909 13.3636C8.90909 13.5324 8.97614 13.6943 9.09548 13.8136C9.21482 13.933 9.37668 14 9.54545 14H12.0909C12.5972 14 13.0828 13.7989 13.4408 13.4408C13.7989 13.0828 14 12.5972 14 12.0909V9.54545C14 9.37668 13.933 9.21482 13.8136 9.09548C13.6943 8.97614 13.5324 8.90909 13.3636 8.90909ZM12.0909 0H9.54545C9.37668 0 9.21482 0.0670452 9.09548 0.186387C8.97614 0.305728 8.90909 0.467589 8.90909 0.636364C8.90909 0.805138 8.97614 0.966999 9.09548 1.08634C9.21482 1.20568 9.37668 1.27273 9.54545 1.27273H12.0909C12.2597 1.27273 12.4215 1.33977 12.5409 1.45911C12.6602 1.57846 12.7273 1.74032 12.7273 1.90909V4.45455C12.7273 4.62332 12.7943 4.78518 12.9137 4.90452C13.033 5.02386 13.1949 5.09091 13.3636 5.09091C13.5324 5.09091 13.6943 5.02386 13.8136 4.90452C13.933 4.78518 14 4.62332 14 4.45455V1.90909C14 1.40277 13.7989 0.917184 13.4408 0.55916C13.0828 0.201136 12.5972 0 12.0909 0ZM0.636364 5.09091C0.805138 5.09091 0.966999 5.02386 1.08634 4.90452C1.20568 4.78518 1.27273 4.62332 1.27273 4.45455V1.90909C1.27273 1.74032 1.33977 1.57846 1.45911 1.45911C1.57846 1.33977 1.74032 1.27273 1.90909 1.27273H4.45455C4.62332 1.27273 4.78518 1.20568 4.90452 1.08634C5.02386 0.966999 5.09091 0.805138 5.09091 0.636364C5.09091 0.467589 5.02386 0.305728 4.90452 0.186387C4.78518 0.0670452 4.62332 0 4.45455 0H1.90909C1.40277 0 0.917184 0.201136 0.55916 0.55916C0.201136 0.917184 0 1.40277 0 1.90909V4.45455C0 4.62332 0.0670452 4.78518 0.186387 4.90452C0.305728 5.02386 0.467589 5.09091 0.636364 5.09091ZM5.72727 2.54545H3.18182C3.01304 2.54545 2.85118 2.6125 2.73184 2.73184C2.6125 2.85118 2.54545 3.01304 2.54545 3.18182V5.72727C2.54545 5.89605 2.6125 6.05791 2.73184 6.17725C2.85118 6.29659 3.01304 6.36364 3.18182 6.36364H5.72727C5.89605 6.36364 6.05791 6.29659 6.17725 6.17725C6.29659 6.05791 6.36364 5.89605 6.36364 5.72727V3.18182C6.36364 3.01304 6.29659 2.85118 6.17725 2.73184C6.05791 2.6125 5.89605 2.54545 5.72727 2.54545ZM5.09091 5.09091H3.81818V3.81818H5.09091V5.09091ZM8.27273 6.36364H10.8182C10.987 6.36364 11.1488 6.29659 11.2682 6.17725C11.3875 6.05791 11.4545 5.89605 11.4545 5.72727V3.18182C11.4545 3.01304 11.3875 2.85118 11.2682 2.73184C11.1488 2.6125 10.987 2.54545 10.8182 2.54545H8.27273C8.10395 2.54545 7.94209 2.6125 7.82275 2.73184C7.70341 2.85118 7.63636 3.01304 7.63636 3.18182V5.72727C7.63636 5.89605 7.70341 6.05791 7.82275 6.17725C7.94209 6.29659 8.10395 6.36364 8.27273 6.36364ZM8.90909 3.81818H10.1818V5.09091H8.90909V3.81818ZM5.72727 7.63636H3.18182C3.01304 7.63636 2.85118 7.70341 2.73184 7.82275C2.6125 7.94209 2.54545 8.10395 2.54545 8.27273V10.8182C2.54545 10.987 2.6125 11.1488 2.73184 11.2682C2.85118 11.3875 3.01304 11.4545 3.18182 11.4545H5.72727C5.89605 11.4545 6.05791 11.3875 6.17725 11.2682C6.29659 11.1488 6.36364 10.987 6.36364 10.8182V8.27273C6.36364 8.10395 6.29659 7.94209 6.17725 7.82275C6.05791 7.70341 5.89605 7.63636 5.72727 7.63636ZM5.09091 10.1818H3.81818V8.90909H5.09091V10.1818ZM8.27273 9.54545C8.4415 9.54545 8.60336 9.47841 8.7227 9.35907C8.84205 9.23973 8.90909 9.07786 8.90909 8.90909C9.07786 8.90909 9.23973 8.84205 9.35907 8.7227C9.47841 8.60336 9.54545 8.4415 9.54545 8.27273C9.54545 8.10395 9.47841 7.94209 9.35907 7.82275C9.23973 7.70341 9.07786 7.63636 8.90909 7.63636H8.27273C8.10395 7.63636 7.94209 7.70341 7.82275 7.82275C7.70341 7.94209 7.63636 8.10395 7.63636 8.27273V8.90909C7.63636 9.07786 7.70341 9.23973 7.82275 9.35907C7.94209 9.47841 8.10395 9.54545 8.27273 9.54545ZM10.8182 7.63636C10.6494 7.63636 10.4875 7.70341 10.3682 7.82275C10.2489 7.94209 10.1818 8.10395 10.1818 8.27273V10.1818C10.013 10.1818 9.85118 10.2489 9.73184 10.3682C9.6125 10.4875 9.54545 10.6494 9.54545 10.8182C9.54545 10.987 9.6125 11.1488 9.73184 11.2682C9.85118 11.3875 10.013 11.4545 10.1818 11.4545H10.8182C10.987 11.4545 11.1488 11.3875 11.2682 11.2682C11.3875 11.1488 11.4545 10.987 11.4545 10.8182V8.27273C11.4545 8.10395 11.3875 7.94209 11.2682 7.82275C11.1488 7.70341 10.987 7.63636 10.8182 7.63636ZM8.27273 10.1818C8.14687 10.1818 8.02383 10.2191 7.91918 10.2891C7.81453 10.359 7.73297 10.4584 7.6848 10.5747C7.63664 10.6909 7.62404 10.8189 7.64859 10.9423C7.67315 11.0658 7.73375 11.1792 7.82275 11.2682C7.91175 11.3572 8.02514 11.4178 8.14858 11.4423C8.27202 11.4669 8.39997 11.4543 8.51625 11.4061C8.63253 11.3579 8.73192 11.2764 8.80184 11.1717C8.87177 11.0671 8.90909 10.944 8.90909 10.8182C8.90909 10.6494 8.84205 10.4875 8.7227 10.3682C8.60336 10.2489 8.4415 10.1818 8.27273 10.1818Z"/>
</mask>
<path d="M4.45455 12.7273H1.90909C1.74032 12.7273 1.57846 12.6602 1.45911 12.5409C1.33977 12.4215 1.27273 12.2597 1.27273 12.0909V9.54545C1.27273 9.37668 1.20568 9.21482 1.08634 9.09548C0.966999 8.97614 0.805138 8.90909 0.636364 8.90909C0.467589 8.90909 0.305728 8.97614 0.186387 9.09548C0.0670452 9.21482 0 9.37668 0 9.54545V12.0909C0 12.5972 0.201136 13.0828 0.55916 13.4408C0.917184 13.7989 1.40277 14 1.90909 14H4.45455C4.62332 14 4.78518 13.933 4.90452 13.8136C5.02386 13.6943 5.09091 13.5324 5.09091 13.3636C5.09091 13.1949 5.02386 13.033 4.90452 12.9137C4.78518 12.7943 4.62332 12.7273 4.45455 12.7273ZM13.3636 8.90909C13.1949 8.90909 13.033 8.97614 12.9137 9.09548C12.7943 9.21482 12.7273 9.37668 12.7273 9.54545V12.0909C12.7273 12.2597 12.6602 12.4215 12.5409 12.5409C12.4215 12.6602 12.2597 12.7273 12.0909 12.7273H9.54545C9.37668 12.7273 9.21482 12.7943 9.09548 12.9137C8.97614 13.033 8.90909 13.1949 8.90909 13.3636C8.90909 13.5324 8.97614 13.6943 9.09548 13.8136C9.21482 13.933 9.37668 14 9.54545 14H12.0909C12.5972 14 13.0828 13.7989 13.4408 13.4408C13.7989 13.0828 14 12.5972 14 12.0909V9.54545C14 9.37668 13.933 9.21482 13.8136 9.09548C13.6943 8.97614 13.5324 8.90909 13.3636 8.90909ZM12.0909 0H9.54545C9.37668 0 9.21482 0.0670452 9.09548 0.186387C8.97614 0.305728 8.90909 0.467589 8.90909 0.636364C8.90909 0.805138 8.97614 0.966999 9.09548 1.08634C9.21482 1.20568 9.37668 1.27273 9.54545 1.27273H12.0909C12.2597 1.27273 12.4215 1.33977 12.5409 1.45911C12.6602 1.57846 12.7273 1.74032 12.7273 1.90909V4.45455C12.7273 4.62332 12.7943 4.78518 12.9137 4.90452C13.033 5.02386 13.1949 5.09091 13.3636 5.09091C13.5324 5.09091 13.6943 5.02386 13.8136 4.90452C13.933 4.78518 14 4.62332 14 4.45455V1.90909C14 1.40277 13.7989 0.917184 13.4408 0.55916C13.0828 0.201136 12.5972 0 12.0909 0ZM0.636364 5.09091C0.805138 5.09091 0.966999 5.02386 1.08634 4.90452C1.20568 4.78518 1.27273 4.62332 1.27273 4.45455V1.90909C1.27273 1.74032 1.33977 1.57846 1.45911 1.45911C1.57846 1.33977 1.74032 1.27273 1.90909 1.27273H4.45455C4.62332 1.27273 4.78518 1.20568 4.90452 1.08634C5.02386 0.966999 5.09091 0.805138 5.09091 0.636364C5.09091 0.467589 5.02386 0.305728 4.90452 0.186387C4.78518 0.0670452 4.62332 0 4.45455 0H1.90909C1.40277 0 0.917184 0.201136 0.55916 0.55916C0.201136 0.917184 0 1.40277 0 1.90909V4.45455C0 4.62332 0.0670452 4.78518 0.186387 4.90452C0.305728 5.02386 0.467589 5.09091 0.636364 5.09091ZM5.72727 2.54545H3.18182C3.01304 2.54545 2.85118 2.6125 2.73184 2.73184C2.6125 2.85118 2.54545 3.01304 2.54545 3.18182V5.72727C2.54545 5.89605 2.6125 6.05791 2.73184 6.17725C2.85118 6.29659 3.01304 6.36364 3.18182 6.36364H5.72727C5.89605 6.36364 6.05791 6.29659 6.17725 6.17725C6.29659 6.05791 6.36364 5.89605 6.36364 5.72727V3.18182C6.36364 3.01304 6.29659 2.85118 6.17725 2.73184C6.05791 2.6125 5.89605 2.54545 5.72727 2.54545ZM5.09091 5.09091H3.81818V3.81818H5.09091V5.09091ZM8.27273 6.36364H10.8182C10.987 6.36364 11.1488 6.29659 11.2682 6.17725C11.3875 6.05791 11.4545 5.89605 11.4545 5.72727V3.18182C11.4545 3.01304 11.3875 2.85118 11.2682 2.73184C11.1488 2.6125 10.987 2.54545 10.8182 2.54545H8.27273C8.10395 2.54545 7.94209 2.6125 7.82275 2.73184C7.70341 2.85118 7.63636 3.01304 7.63636 3.18182V5.72727C7.63636 5.89605 7.70341 6.05791 7.82275 6.17725C7.94209 6.29659 8.10395 6.36364 8.27273 6.36364ZM8.90909 3.81818H10.1818V5.09091H8.90909V3.81818ZM5.72727 7.63636H3.18182C3.01304 7.63636 2.85118 7.70341 2.73184 7.82275C2.6125 7.94209 2.54545 8.10395 2.54545 8.27273V10.8182C2.54545 10.987 2.6125 11.1488 2.73184 11.2682C2.85118 11.3875 3.01304 11.4545 3.18182 11.4545H5.72727C5.89605 11.4545 6.05791 11.3875 6.17725 11.2682C6.29659 11.1488 6.36364 10.987 6.36364 10.8182V8.27273C6.36364 8.10395 6.29659 7.94209 6.17725 7.82275C6.05791 7.70341 5.89605 7.63636 5.72727 7.63636ZM5.09091 10.1818H3.81818V8.90909H5.09091V10.1818ZM8.27273 9.54545C8.4415 9.54545 8.60336 9.47841 8.7227 9.35907C8.84205 9.23973 8.90909 9.07786 8.90909 8.90909C9.07786 8.90909 9.23973 8.84205 9.35907 8.7227C9.47841 8.60336 9.54545 8.4415 9.54545 8.27273C9.54545 8.10395 9.47841 7.94209 9.35907 7.82275C9.23973 7.70341 9.07786 7.63636 8.90909 7.63636H8.27273C8.10395 7.63636 7.94209 7.70341 7.82275 7.82275C7.70341 7.94209 7.63636 8.10395 7.63636 8.27273V8.90909C7.63636 9.07786 7.70341 9.23973 7.82275 9.35907C7.94209 9.47841 8.10395 9.54545 8.27273 9.54545ZM10.8182 7.63636C10.6494 7.63636 10.4875 7.70341 10.3682 7.82275C10.2489 7.94209 10.1818 8.10395 10.1818 8.27273V10.1818C10.013 10.1818 9.85118 10.2489 9.73184 10.3682C9.6125 10.4875 9.54545 10.6494 9.54545 10.8182C9.54545 10.987 9.6125 11.1488 9.73184 11.2682C9.85118 11.3875 10.013 11.4545 10.1818 11.4545H10.8182C10.987 11.4545 11.1488 11.3875 11.2682 11.2682C11.3875 11.1488 11.4545 10.987 11.4545 10.8182V8.27273C11.4545 8.10395 11.3875 7.94209 11.2682 7.82275C11.1488 7.70341 10.987 7.63636 10.8182 7.63636ZM8.27273 10.1818C8.14687 10.1818 8.02383 10.2191 7.91918 10.2891C7.81453 10.359 7.73297 10.4584 7.6848 10.5747C7.63664 10.6909 7.62404 10.8189 7.64859 10.9423C7.67315 11.0658 7.73375 11.1792 7.82275 11.2682C7.91175 11.3572 8.02514 11.4178 8.14858 11.4423C8.27202 11.4669 8.39997 11.4543 8.51625 11.4061C8.63253 11.3579 8.73192 11.2764 8.80184 11.1717C8.87177 11.0671 8.90909 10.944 8.90909 10.8182C8.90909 10.6494 8.84205 10.4875 8.7227 10.3682C8.60336 10.2489 8.4415 10.1818 8.27273 10.1818Z" fill="#797B9C" stroke="#E4E5FF" stroke-width="0.2" mask="url(#path-1-inside-1_7651_5223)"/>
</svg>
