<svg width="44" height="44" viewBox="0 0 44 44" fill="white" xmlns="http://www.w3.org/2000/svg"><path d="M1 11C1 5.47715 5.47715 1 11 1H33C38.5228 1 43 5.47715 43 11V33C43 38.5228 38.5228 43 33 43H11C5.47715 43 1 38.5228 1 33V11Z" fill="white"></path><path d="M43 19V11C43 5.47715 38.5228 1 33 1H11C5.47715 1 1 5.47715 1 11V19" stroke="#B2B7FF"></path><path d="M1 25V33C1 38.5228 5.47715 43 11 43H33C38.5228 43 43 38.5228 43 33V25" stroke="#B2B7FF"></path><rect x="6.5" y="6.5" width="31" height="31" rx="6.5" fill="#F0F1FF" stroke="#B2B7FF"></rect><path d="M22.8664 17.9151C22.9231 17.9698 22.9682 18.0352 22.9993 18.1075C23.0303 18.1798 23.0467 18.2576 23.0474 18.3363C23.048 18.415 23.0331 18.493 23.0032 18.5659C22.9734 18.6387 22.9294 18.7049 22.8738 18.7605C22.8181 18.8162 22.752 18.8602 22.6791 18.89C22.6063 18.9198 22.5282 18.9348 22.4495 18.9341C22.3708 18.9334 22.2931 18.9171 22.2208 18.886C22.1485 18.8549 22.083 18.8098 22.0284 18.7532L18.2985 15.0234V23.0757C18.2985 23.2329 18.2361 23.3837 18.1249 23.4948C18.0138 23.606 17.863 23.6684 17.7058 23.6684C17.5486 23.6684 17.3979 23.606 17.2867 23.4948C17.1756 23.3837 17.1131 23.2329 17.1131 23.0757V15.0234L13.3834 18.7532C13.2716 18.8612 13.1219 18.9209 12.9664 18.9196C12.811 18.9182 12.6624 18.8559 12.5525 18.746C12.4426 18.6361 12.3803 18.4875 12.3789 18.3321C12.3776 18.1767 12.4373 18.0269 12.5453 17.9152L17.2868 13.1736C17.3418 13.1186 17.4072 13.0749 17.4791 13.0451C17.551 13.0153 17.628 13 17.7059 13C17.7837 13 17.8608 13.0153 17.9327 13.0451C18.0046 13.0749 18.0699 13.1186 18.1249 13.1736L22.8664 17.9151Z" fill="#8087ED"></path><path d="M20.866 28.4438C20.8094 28.3891 20.7642 28.3237 20.7332 28.2514C20.7021 28.1791 20.6857 28.1013 20.6851 28.0226C20.6844 27.9439 20.6994 27.8659 20.7292 27.793C20.759 27.7202 20.803 27.654 20.8586 27.5984C20.9143 27.5427 20.9805 27.4987 21.0533 27.4689C21.1261 27.4391 21.2042 27.4241 21.2829 27.4248C21.3616 27.4255 21.4393 27.4418 21.5117 27.4729C21.584 27.5039 21.6494 27.5491 21.704 27.6057L25.4339 31.3355L25.4339 23.2832C25.4339 23.126 25.4963 22.9752 25.6075 22.8641C25.7186 22.7529 25.8694 22.6905 26.0266 22.6905C26.1838 22.6905 26.3345 22.7529 26.4457 22.8641C26.5568 22.9752 26.6193 23.126 26.6193 23.2832L26.6193 31.3355L30.3491 27.6057C30.4609 27.4977 30.6106 27.438 30.766 27.4393C30.9214 27.4407 31.07 27.503 31.1799 27.6129C31.2898 27.7228 31.3521 27.8714 31.3535 28.0268C31.3548 28.1822 31.2951 28.3319 31.1871 28.4437L26.4456 33.1853C26.3906 33.2403 26.3252 33.284 26.2533 33.3138C26.1814 33.3436 26.1044 33.3589 26.0266 33.3589C25.9487 33.3589 25.8717 33.3436 25.7998 33.3138C25.7279 33.284 25.6625 33.2403 25.6075 33.1853L20.866 28.4438Z" fill="#8087ED"></path></svg>