<svg width="86" height="76" viewBox="0 0 86 76" fill="none" xmlns="http://www.w3.org/2000/svg">
<path d="M21.7322 0L0 24.3514L42.805 75.1947L85.61 24.3492L63.8769 0H21.7322ZM40.8483 1.917L25.3772 21.9009L23.2291 1.917H40.8483ZM21.4395 3.2067L23.6124 23.4106H3.40854L21.4395 3.2067ZM3.32901 25.3278H15.9238L37.6766 66.1303L3.32901 25.3278ZM18.095 25.3278H30.713L40.2562 66.8906L18.095 25.3278ZM41.8461 65.2496L32.6804 25.3278H41.8461V65.2496ZM41.8461 23.4108H26.6341L41.8461 3.7623V23.4108ZM62.3786 1.91737L60.2305 21.9013L44.7584 1.91737H62.3786ZM43.7631 3.76249L58.9742 23.411H43.7631V3.76249ZM43.7631 25.328H52.9287L43.7631 65.2498V25.328ZM54.8946 25.328H67.5126L45.3543 66.8886L54.8946 25.328ZM47.931 66.1305L69.6838 25.328H82.2786L47.931 66.1305ZM82.1982 23.411H61.9943L64.1672 3.20711L82.1982 23.411Z" fill="#6871EA"/>
</svg>