<svg width="86" height="86" viewBox="0 0 86 86" fill="none" xmlns="http://www.w3.org/2000/svg">
<path d="M75.9986 38.3571H35.3155C33.5336 33.1341 28.5585 29.5273 23.0091 29.5273C15.8355 29.5273 10.001 35.3632 10.001 42.5355C10.001 49.7078 15.8368 55.5436 23.0091 55.5436C28.5612 55.5436 33.5363 51.9362 35.3155 46.7139H52.0712V50.3931H55.25V52.3549H63.6073V46.7139H64.9445V55.5436H73.3011L73.3004 46.7139H75.9986L75.9993 38.3573L75.9986 38.3571ZM23.0078 54.0549C16.6562 54.0549 11.4883 48.887 11.4883 42.5355C11.4883 36.1839 16.6562 31.016 23.0078 31.016C28.0899 31.016 32.6384 34.4275 34.0687 39.3141C34.3731 40.3402 34.5279 41.4242 34.5279 42.5367C34.5279 43.6486 34.3731 44.7318 34.0674 45.7613V45.7619V45.7626C32.6385 50.6447 28.0913 54.0547 23.0078 54.0547L23.0078 54.0549ZM74.5099 45.2252H71.8117V54.0549H66.4324V45.2252H62.1179V50.8662H56.7381V48.9044H53.5592V45.2252H35.7391C35.7477 45.1853 35.7497 45.1448 35.7577 45.1049C35.8275 44.7626 35.8807 44.415 35.9212 44.0648C35.9338 43.9578 35.9451 43.8501 35.9551 43.7431C35.9916 43.343 36.0176 42.941 36.0176 42.5355C36.0176 42.1288 35.993 41.7267 35.9551 41.3266C35.9451 41.2196 35.9345 41.114 35.9212 41.007C35.8807 40.6547 35.8262 40.3045 35.7564 39.9589C35.7484 39.921 35.7464 39.8825 35.7384 39.8446L74.5092 39.8453L74.5099 45.2252Z" fill="#6871EA"/>
<path d="M26.4953 41.7124H26.4887L23.8257 41.7117H23.7539L23.7546 36.2859H28.6314V34.7972L23.7553 34.7965L23.7559 32.5781H22.2672L22.2666 34.7965H20.1346C19.4833 34.7965 18.915 34.9015 18.4392 35.1129C17.9952 35.3163 17.6291 35.5974 17.3406 35.9616C17.0848 36.2979 16.91 36.6661 16.8116 37.0735C16.7006 37.4915 16.6421 37.9766 16.6401 38.5196V39.4766C16.6401 39.9877 16.698 40.4702 16.8076 40.9055C16.9159 41.3475 17.0934 41.7203 17.3493 42.042C17.6264 42.3922 17.9913 42.674 18.4498 42.8874C18.9171 43.094 19.482 43.1977 20.128 43.1977L22.264 43.1984V43.7154L22.2634 48.7809H17.7387V50.2696H22.2627V52.492H23.7514V50.2696H26.4855C28.1489 50.2696 29.223 48.9982 29.223 47.0311V44.9556C29.223 44.3421 29.108 43.1977 28.3337 42.4248C27.8665 41.9582 27.2298 41.7123 26.4954 41.7123L26.4953 41.7124ZM27.7341 47.0312C27.7341 47.8294 27.5175 48.7811 26.4853 48.7811H23.7519L23.7526 43.2004L26.4887 43.2011H26.4927C26.8363 43.2011 27.0928 43.2915 27.2809 43.4782C27.701 43.8982 27.7335 44.715 27.7335 44.9549L27.7341 47.0312ZM18.251 40.5454C18.17 40.2238 18.1281 39.8636 18.1281 39.4768V38.5231C18.1301 38.111 18.1706 37.7541 18.253 37.4431C18.3075 37.2204 18.3952 37.0364 18.5169 36.8755C18.6491 36.71 18.8306 36.5718 19.0519 36.4708C19.3277 36.3478 19.6932 36.2854 20.1345 36.2854H22.2665L22.2658 41.7105L20.1291 41.7099C19.6904 41.7099 19.3269 41.6474 19.0644 41.5324C18.8331 41.4241 18.6497 41.2852 18.5168 41.1184C18.3938 40.9642 18.3107 40.7834 18.2509 40.5455L18.251 40.5454Z" fill="#6871EA"/>
<path d="M25.3678 82.7205C25.3678 81.4252 24.3137 80.3711 23.0184 80.3711C21.723 80.3711 20.6689 81.4251 20.6689 82.7205C20.6689 84.0159 21.723 85.0699 23.0184 85.0699C24.3137 85.0699 25.3678 84.0159 25.3678 82.7205ZM21.4135 82.7205C21.4135 81.8353 22.1339 81.1155 23.0185 81.1155C23.903 81.1155 24.6235 81.8359 24.6235 82.7205C24.6235 83.6051 23.903 84.3255 23.0185 84.3255C22.1346 84.3255 21.4135 83.6051 21.4135 82.7205Z" fill="#6871EA"/>
<path d="M1.31871 28.7804L3.44934 27.6599L5.582 28.7791L5.17593 26.4051L6.89857 24.7237L4.51665 24.3774L3.44932 22.2188L2.38464 24.378L0 24.7242L1.72604 26.4056L1.31871 28.7804ZM1.60049 25.2441L2.87851 25.0587L3.4494 23.9003L4.02229 25.0587L5.29964 25.2441L4.37452 26.1459L4.59318 27.4193L3.45007 26.8179L2.30695 27.42L2.52628 26.1466L1.60049 25.2441Z" fill="#6871EA"/>
<path d="M21.8492 4.37416L21.5581 6.06954L23.0794 5.26937L24.6027 6.06954L24.3136 4.37416L25.5451 3.17323L23.8416 2.92534L23.0793 1.38281L22.3197 2.92534L20.6177 3.17323L21.8492 4.37416ZM22.8142 3.60589L23.0814 3.0649L23.3492 3.60589L23.9474 3.69228L23.5134 4.11431L23.6164 4.70979L23.0814 4.42867L22.5484 4.70979L22.6494 4.11497L22.2174 3.69295L22.8142 3.60589Z" fill="#6871EA"/>
<path d="M78.9692 62.3633L80.2007 63.5642L79.911 65.2596L81.4322 64.4594L82.9535 65.2596L82.6637 63.5642L83.8952 62.3633L82.1932 62.1154L81.4309 60.5742L80.6686 62.1154L78.9692 62.3633ZM81.4335 62.2556L81.7013 62.7966L82.2988 62.883L81.8668 63.305L81.9678 63.9005L81.4342 63.6194L80.9005 63.9005L81.0015 63.305L80.5695 62.883L81.167 62.7966L81.4335 62.2556Z" fill="#6871EA"/>
<path d="M81.4346 8.52344L80.449 11.5573H77.2603L79.8395 13.4322L78.8553 16.4654L81.4359 14.5905L84.0152 16.4654L83.0309 13.4322L85.6102 11.5573H82.4214L81.4346 8.52344ZM82.1543 13.1484L82.5983 14.5162L81.4339 13.6708L80.2689 14.5175L80.7135 13.1484L79.5491 12.3017H80.9893L81.4339 10.9333L81.8778 12.3017H83.318L82.1543 13.1484Z" fill="#6871EA"/>
<path d="M71.187 2.34942C71.187 3.64472 72.2411 4.69884 73.5364 4.69884C74.8317 4.69884 75.8858 3.64479 75.8858 2.34942C75.8858 1.05405 74.8318 0 73.5364 0C72.2411 0.000664554 71.187 1.05471 71.187 2.34942ZM73.5369 0.74508C74.4222 0.74508 75.1419 1.46551 75.1419 2.35008C75.1419 3.23466 74.4215 3.95508 73.5369 3.95508C72.653 3.95442 71.9313 3.23399 71.9313 2.34942C71.9313 1.46551 72.6517 0.74508 73.5369 0.74508Z" fill="#6871EA"/>
<path d="M81.0615 43.5139C81.0615 44.5599 81.9122 45.4106 82.9582 45.4106C84.0043 45.4106 84.8549 44.5599 84.8549 43.5139C84.8549 42.4679 84.0042 41.6172 82.9582 41.6172C81.9121 41.6179 81.0615 42.4692 81.0615 43.5139ZM82.9582 42.3621C83.5942 42.3621 84.1106 42.8792 84.1106 43.5145C84.1106 44.1499 83.5936 44.6669 82.9582 44.6669C82.3229 44.6669 81.8058 44.1499 81.8058 43.5145C81.8058 42.8792 82.3222 42.3621 82.9582 42.3621Z" fill="#6871EA"/>
<path d="M12.3144 11.924C12.3144 10.5636 11.2079 9.45703 9.84814 9.45703C8.48839 9.45703 7.38184 10.5636 7.38184 11.924C7.38184 13.2844 8.48839 14.391 9.84814 14.391C11.2079 14.3917 12.3144 13.2838 12.3144 11.924ZM9.84814 13.6473C8.89844 13.6473 8.12618 12.8744 8.12618 11.9247C8.12618 10.975 8.89845 10.2021 9.84814 10.2021C10.7978 10.2021 11.5701 10.975 11.5701 11.9247C11.5701 12.8737 10.7978 13.6473 9.84814 13.6473Z" fill="#6871EA"/>
<path d="M17.9225 82.3592C17.6028 82.2947 17.2852 82.223 16.9728 82.1445L16.79 82.8669C17.1144 82.9494 17.4433 83.0225 17.7763 83.0896L17.9225 82.3592Z" fill="#6871EA"/>
<path d="M2.80061 67.9496C2.64709 67.3375 2.52149 66.7068 2.42777 66.0742L1.69141 66.1832C1.78977 66.8405 1.91935 67.4951 2.0802 68.1304L2.80061 67.9496Z" fill="#6871EA"/>
<path d="M4.354 73.6165C4.6903 74.1781 5.06181 74.7337 5.45591 75.2687L6.05537 74.8261C5.67455 74.311 5.31701 73.776 4.99467 73.2344L4.354 73.6165Z" fill="#6871EA"/>
<path d="M15.139 81.5853C14.5428 81.3719 13.948 81.1247 13.3704 80.8516L13.0527 81.5241C13.6522 81.8079 14.2703 82.0638 14.8897 82.2864L15.139 81.5853Z" fill="#6871EA"/>
<path d="M8.11728 78.2153L8.61971 77.6644C8.14918 77.2364 7.69459 76.7798 7.26925 76.3086L6.71631 76.8077C7.15761 77.2975 7.6288 77.7707 8.11728 78.2153V78.2153Z" fill="#6871EA"/>
<path d="M4.09188 71.5491C3.82072 70.9756 3.57482 70.3808 3.35949 69.7812L2.65967 70.0325C2.88297 70.6539 3.13685 71.272 3.41997 71.8667L4.09188 71.5491Z" fill="#6871EA"/>
<path d="M9.64844 79.4803C10.1775 79.8744 10.7331 80.2466 11.2986 80.5868L11.6828 79.9488C11.1378 79.6212 10.6028 79.263 10.0917 78.8828L9.64844 79.4803Z" fill="#6871EA"/>
<path d="M1.47363 63.2308C1.47363 63.5585 1.48161 63.8841 1.49623 64.2085L2.24058 64.1726C2.22596 63.8596 2.21798 63.5459 2.21798 63.2308C2.21798 62.9085 2.22596 62.5835 2.24191 62.2592L1.49756 62.2227C1.48161 62.5589 1.47363 62.8959 1.47363 63.2308Z" fill="#6871EA"/>
<path d="M2.60307 59.3793L1.87267 59.2344C1.80688 59.566 1.74839 59.8983 1.69922 60.2299L2.43559 60.3389C2.48277 60.0199 2.5386 59.7003 2.60307 59.3793L2.60307 59.3793Z" fill="#6871EA"/>
<path d="M84.1874 70.3363L83.443 70.3203C83.4364 70.6446 83.4191 70.9676 83.3892 71.286L84.1295 71.3538C84.1614 71.0181 84.18 70.6785 84.1874 70.3363Z" fill="#6871EA"/>
<path d="M80.0821 78.9088L80.639 79.4032C81.1334 78.8476 81.5847 78.2501 81.9828 77.6273L81.3547 77.2266C80.9793 77.8161 80.5506 78.3816 80.082 78.9087L80.0821 78.9088Z" fill="#6871EA"/>
<path d="M82.3462 75.3669L83.0287 75.6626C83.3258 74.9801 83.5677 74.271 83.7511 73.5565L83.0294 73.3711C82.8559 74.0477 82.6266 74.7189 82.3462 75.3668V75.3669Z" fill="#6871EA"/>
<path d="M79.0323 80.9427L78.5611 80.3672C78.0175 80.8131 77.4346 81.2179 76.8291 81.5708L77.2053 82.2128C77.8433 81.8399 78.4594 81.4119 79.0322 80.9427H79.0323Z" fill="#6871EA"/>
<path d="M74.9303 82.4883C74.275 82.7422 73.5952 82.9449 72.9106 83.0904L73.0655 83.8181C73.7892 83.6646 74.5077 83.4499 75.1995 83.1808L74.9303 82.4883Z" fill="#6871EA"/>
<path d="M70.8112 83.3633C70.4929 83.3792 70.1692 83.3839 69.8455 83.3779L69.8296 84.1223C69.9266 84.1242 70.0223 84.1249 70.1187 84.1249C70.3639 84.1249 70.6072 84.1189 70.8491 84.1063L70.8112 83.3633Z" fill="#6871EA"/>
<path d="M82.5864 23.0586H83.3308V25.0437H82.5864V23.0586Z" fill="#6871EA"/>
<path d="M82.5864 31H83.3308V32.9852H82.5864V31Z" fill="#6871EA"/>
<path d="M82.5864 34.9688H83.3308V36.9539H82.5864V34.9688Z" fill="#6871EA"/>
<path d="M82.5864 27.0312H83.3308V29.0164H82.5864V27.0312Z" fill="#6871EA"/>
</svg>