<svg width="18" height="17" viewBox="0 0 18 17" fill="none" xmlns="http://www.w3.org/2000/svg">
<path fill-rule="evenodd" clip-rule="evenodd" d="M9.00053 0.454742C4.55715 0.454742 0.955078 4.05682 0.955078 8.5002C0.955078 12.9436 4.55715 16.5457 9.00053 16.5457C13.4439 16.5457 17.046 12.9436 17.046 8.5002C17.046 4.05682 13.4439 0.454742 9.00053 0.454742ZM8.47461 1.56524C4.87939 1.83405 2.04599 4.83624 2.04599 8.5002C2.04599 12.1698 4.88808 15.1755 8.49114 15.4364C8.48034 15.392 8.47461 15.3456 8.47461 15.2979V13.4295C5.93376 13.0291 4.00051 10.9744 4.00033 8.50054L5.3425 7.25323C5.19904 7.65473 5.12575 8.07561 5.12606 8.49984C5.12606 10.6852 7.03136 12.4554 9.38132 12.4554C10.431 12.4568 11.4445 12.0962 12.2239 11.4437C12.4547 11.2504 12.8106 11.2674 13.0188 11.4816C13.2271 11.6958 13.2088 12.0261 12.9779 12.2194C12.056 12.9913 10.8762 13.4405 9.64128 13.4946V15.2979C9.64128 15.3422 9.63633 15.3854 9.62696 15.4269C13.1743 15.1102 15.9551 12.1299 15.9551 8.5002C15.9551 4.87533 13.1818 1.89819 9.64128 1.57478L9.64128 3.50576C10.8779 3.56009 12.0592 4.0105 12.9816 4.78432C13.2122 4.97779 13.2301 5.30812 13.0217 5.52215C12.8132 5.73617 12.4573 5.75283 12.2267 5.55936C11.447 4.90525 10.4331 4.54368 9.38206 4.54497C8.92496 4.54526 8.47119 4.61383 8.03877 4.74751L8.7763 4.0621C8.77638 4.06215 8.77623 4.06206 8.7763 4.0621L8.03877 4.74751C7.94235 4.77734 7.84641 4.81057 7.75226 4.84683C7.23574 5.04577 6.7665 5.33718 6.37133 5.70442C5.97615 6.07166 5.66279 6.50755 5.44913 6.98719C5.41018 7.07461 5.3745 7.1637 5.3425 7.25323L4.00033 8.50054C3.9999 7.84444 4.1387 7.19434 4.4088 6.58802C4.67895 5.98158 5.07515 5.43047 5.57478 4.96614C6.07442 4.50182 6.66771 4.13338 7.32077 3.88185C7.69273 3.73859 8.07992 3.63485 8.47498 3.57201C8.47474 3.56508 8.47461 3.55813 8.47461 3.55114V1.56524Z" fill="#6871EA"/>
</svg>
