<svg width="20" height="20" viewBox="0 0 20 20" fill="none" xmlns="http://www.w3.org/2000/svg"><path d="M12.2429 7.55366V7.55357C12.2429 7.10998 12.1113 6.67634 11.8649 6.30751C11.6184 5.93867 11.2681 5.6512 10.8583 5.48144C10.4485 5.31169 9.99751 5.26727 9.56244 5.35381C9.12737 5.44035 8.72773 5.65396 8.41406 5.96763C8.10039 6.2813 7.88678 6.68094 7.80024 7.11601C7.7137 7.55108 7.75811 8.00205 7.92787 8.41188C8.09763 8.8217 8.3851 9.17199 8.75394 9.41844C9.12277 9.66489 9.55641 9.79643 10 9.79643H10.0001C10.5947 9.79588 11.1649 9.55941 11.5854 9.13893C12.0058 8.71845 12.2423 8.14831 12.2429 7.55366ZM6.94392 15.6428L6.94393 15.6428L6.94516 15.6416L9.47143 13.1153V18.6964C9.47143 18.8366 9.52712 18.9711 9.62624 19.0702C9.72537 19.1693 9.85981 19.225 10 19.225C10.1402 19.225 10.2746 19.1693 10.3738 19.0702C10.4729 18.9711 10.5286 18.8366 10.5286 18.6964V13.1153L13.0543 15.641C13.1029 15.6911 13.161 15.7312 13.2252 15.7588C13.2897 15.7865 13.3591 15.801 13.4293 15.8017C13.4994 15.8023 13.569 15.7889 13.634 15.7623C13.699 15.7357 13.758 15.6965 13.8076 15.6469C13.8572 15.5972 13.8965 15.5382 13.9231 15.4733C13.9496 15.4083 13.963 15.3387 13.9624 15.2685C13.9618 15.1983 13.9472 15.129 13.9195 15.0645C13.8919 15.0003 13.8519 14.9422 13.8017 14.8935L10.3737 11.4656C10.3737 11.4656 10.3737 11.4656 10.3737 11.4656C10.3247 11.4165 10.2664 11.3776 10.2023 11.351C10.1382 11.3244 10.0694 11.3108 10 11.3108C9.93061 11.3108 9.86188 11.3244 9.79775 11.351C9.73363 11.3776 9.67537 11.4165 9.62631 11.4656C9.6263 11.4656 9.6263 11.4656 9.62629 11.4656L6.19774 14.8942L6.19772 14.8942L6.19652 14.8954C6.10023 14.9951 6.04696 15.1286 6.04816 15.2672C6.04937 15.4058 6.10495 15.5384 6.20296 15.6364C6.30096 15.7344 6.43353 15.79 6.57212 15.7912C6.71071 15.7924 6.84423 15.7391 6.94392 15.6428ZM19.1 3.26786V3.26776C19.0995 2.67312 18.863 2.10298 18.4425 1.6825C18.022 1.26202 17.4519 1.02555 16.8572 1.025H16.8571L3.14286 1.025L3.14276 1.025C2.54812 1.02555 1.97798 1.26202 1.5575 1.6825C1.13702 2.10298 0.900549 2.67312 0.9 3.26776V3.26786L0.9 11.8393L0.9 11.8394C0.900549 12.434 1.13702 13.0042 1.5575 13.4246C1.97798 13.8451 2.54812 14.0816 3.14276 14.0821H3.14286H5.43304H5.47446L5.50375 14.0529L6.36089 13.1957L6.5316 13.025H6.29018H3.14297C2.82857 13.0247 2.52715 12.8996 2.30484 12.6773C2.08253 12.455 1.95749 12.1536 1.95714 11.8392V3.26797C1.95714 3.26795 1.95714 3.26793 1.95714 3.26791C1.9575 2.95354 2.08254 2.65214 2.30484 2.42984C2.52715 2.20753 2.82857 2.08249 3.14297 2.08214H16.857C16.8571 2.08214 16.8571 2.08214 16.8571 2.08214C17.1715 2.0825 17.4729 2.20754 17.6952 2.42984C17.9175 2.65215 18.0425 2.95357 18.0429 3.26797V11.8392C18.0425 12.1536 17.9175 12.455 17.6952 12.6773C17.4728 12.8996 17.1714 13.0247 16.857 13.025H13.7098H13.4684L13.6391 13.1957L14.4962 14.0529L14.5255 14.0821H14.567H16.8571H16.8572C17.4519 14.0816 18.022 13.8451 18.4425 13.4246C18.863 13.0042 19.0995 12.434 19.1 11.8394V11.8393V3.26786ZM8.81429 7.55346C8.81431 7.31899 8.88385 7.08978 9.01411 6.89482C9.1444 6.69983 9.32959 6.54786 9.54625 6.45811C9.76291 6.36837 10.0013 6.34489 10.2313 6.39064C10.4613 6.43639 10.6726 6.54932 10.8384 6.71514C11.0043 6.88097 11.1172 7.09224 11.1629 7.32225C11.2087 7.55226 11.1852 7.79066 11.0955 8.00732C11.0057 8.22399 10.8537 8.40917 10.6587 8.53946C10.4638 8.66972 10.2346 8.73926 10.0001 8.73929C9.68571 8.73894 9.3843 8.6139 9.16198 8.39159C8.93967 8.16928 8.81463 7.86786 8.81429 7.55346ZM13.912 7.92733C14.0111 8.02645 14.1455 8.08214 14.2857 8.08214H16C16.1402 8.08214 16.2746 8.02645 16.3738 7.92733C16.4729 7.8282 16.5286 7.69376 16.5286 7.55357C16.5286 7.41339 16.4729 7.27894 16.3738 7.17981C16.2746 7.08069 16.1402 7.025 16 7.025H14.2857C14.1455 7.025 14.0111 7.08069 13.912 7.17981C13.8128 7.27894 13.7571 7.41339 13.7571 7.55357C13.7571 7.69376 13.8128 7.8282 13.912 7.92733ZM6.08804 7.17981C5.98892 7.08069 5.85447 7.025 5.71429 7.025H4C3.85981 7.025 3.72537 7.08069 3.62624 7.17981C3.52712 7.27894 3.47143 7.41339 3.47143 7.55357C3.47143 7.69376 3.52712 7.8282 3.62624 7.92733C3.72537 8.02645 3.85981 8.08214 4 8.08214H5.71429C5.85447 8.08214 5.98892 8.02645 6.08804 7.92733C6.18717 7.8282 6.24286 7.69376 6.24286 7.55357C6.24286 7.41339 6.18717 7.27894 6.08804 7.17981Z" fill="#9EA0B7" stroke="#9EA0B7" stroke-width="0.2"></path></svg>