<svg width="20" height="19" viewBox="0 0 20 19" fill="none" xmlns="http://www.w3.org/2000/svg">
<path fill-rule="evenodd" clip-rule="evenodd" d="M16.4631 11.5374C16.2075 11.2818 15.793 11.2818 15.5374 11.5374C15.2818 11.793 15.2818 12.2075 15.5374 12.4631L17.42 14.3457H13.0002C12.6388 14.3457 12.3457 14.6388 12.3457 15.0002C12.3457 15.3617 12.6388 15.6548 13.0002 15.6548H17.42L15.5374 17.5374C15.2818 17.793 15.2818 18.2075 15.5374 18.4631C15.793 18.7187 16.2075 18.7187 16.4631 18.4631L19.4631 15.4631C19.5894 15.3368 19.6533 15.1718 19.6548 15.0063C19.6548 15.0043 19.6548 15.0023 19.6548 15.0002C19.6548 14.9982 19.6548 14.9962 19.6548 14.9942C19.654 14.9077 19.6364 14.8251 19.6051 14.7497C19.5744 14.6754 19.5294 14.6057 19.4702 14.5446C19.4676 14.5419 19.4649 14.5392 19.4622 14.5365" fill="#6D6F96"/>
<path fill-rule="evenodd" clip-rule="evenodd" d="M3.00025 1.65479C2.64341 1.65479 2.30119 1.79655 2.04887 2.04887C1.79655 2.30119 1.65479 2.64341 1.65479 3.00025V13.0002C1.65479 13.3571 1.79655 13.6993 2.04887 13.9516C2.30119 14.204 2.64341 14.3457 3.00025 14.3457H10.0002C10.3617 14.3457 10.6548 14.6388 10.6548 15.0002C10.6548 15.3617 10.3617 15.6548 10.0002 15.6548H3.00025C2.29622 15.6548 1.62103 15.3751 1.1232 14.8773C0.625378 14.3795 0.345703 13.7043 0.345703 13.0002V3.00025C0.345703 2.29622 0.625377 1.62103 1.1232 1.1232C1.62103 0.625377 2.29622 0.345703 3.00025 0.345703H17.0003C17.7043 0.345703 18.3795 0.625378 18.8773 1.1232C19.3751 1.62103 19.6548 2.29622 19.6548 3.00025V10.5002C19.6548 10.8617 19.3617 11.1548 19.0003 11.1548C18.6388 11.1548 18.3457 10.8617 18.3457 10.5002V3.00025C18.3457 2.64341 18.204 2.30119 17.9516 2.04887C17.6993 1.79655 17.3571 1.65479 17.0003 1.65479H3.00025Z" fill="#6D6F96"/>
</svg>
