<svg width="20" height="20" viewBox="0 0 20 20" fill="none" xmlns="http://www.w3.org/2000/svg">
<path d="M18.4797 11.8756L17.9163 11.5611C17.6104 11.3904 17.3555 11.1463 17.1763 10.8524C16.997 10.5585 16.8996 10.2249 16.8936 9.88399C16.8875 9.54306 16.9729 9.2064 17.1415 8.90674C17.3101 8.60708 17.5562 8.35461 17.8558 8.17385L18.4075 7.83918C18.6356 7.70145 18.8333 7.52173 18.9894 7.31026C19.1454 7.09879 19.2568 6.8597 19.3171 6.60668C19.3774 6.35367 19.3855 6.09168 19.3408 5.83566C19.2962 5.57963 19.1997 5.3346 19.0569 5.11456L18.5169 4.28123C18.2286 3.83687 17.7693 3.52105 17.2399 3.40313C16.7105 3.28522 16.1543 3.37482 15.6933 3.65229C15.3833 3.83962 15.0269 3.94342 14.6612 3.95289C14.2955 3.96235 13.9339 3.87714 13.6138 3.70612C13.2938 3.53509 13.0271 3.28449 12.8414 2.98036C12.6557 2.67622 12.5578 2.32965 12.5578 1.97665C12.5578 1.45241 12.342 0.949649 11.9579 0.578958C11.5737 0.208266 11.0527 1.27633e-06 10.5094 1.27633e-06H9.48985C9.22065 -0.000293911 8.95402 0.0506165 8.70522 0.14982C8.45643 0.249023 8.23034 0.394585 8.03988 0.578162C7.84942 0.76174 7.69833 0.979753 7.59524 1.21972C7.49216 1.45968 7.43907 1.71689 7.43907 1.97665V2.30012C7.43903 2.64707 7.34436 2.98788 7.16456 3.28833C6.98475 3.58879 6.72616 3.8383 6.41477 4.01176C6.10338 4.18522 5.75016 4.27653 5.39061 4.27652C5.03105 4.27651 4.67782 4.18518 4.36644 4.0117L4.07547 3.84996C3.60531 3.5889 3.04696 3.51869 2.52316 3.65473C1.99936 3.79078 1.55299 4.12195 1.28216 4.57547L0.772392 5.42678C0.502284 5.88033 0.429497 6.41872 0.569992 6.92395C0.710487 7.42918 1.0528 7.86006 1.52192 8.1222L2.08522 8.43667C2.39166 8.60721 2.64711 8.85141 2.82669 9.14551C3.00626 9.43961 3.10383 9.77359 3.10993 10.1149C3.11602 10.4562 3.03044 10.7932 2.86147 11.0931C2.6925 11.393 2.44591 11.6455 2.14575 11.8261L1.5964 12.1586C1.36791 12.2959 1.16974 12.4754 1.01327 12.6868C0.856791 12.8982 0.745081 13.1373 0.684533 13.3904C0.623986 13.6435 0.615805 13.9056 0.660437 14.1618C0.705069 14.418 0.801652 14.6631 0.944645 14.8832L1.48467 15.7165C1.62722 15.9368 1.81333 16.1278 2.0324 16.2786C2.25147 16.4294 2.4992 16.5371 2.76142 16.5956C3.02363 16.654 3.29521 16.6619 3.56062 16.619C3.82603 16.5761 4.08008 16.4831 4.30825 16.3455C4.61831 16.1581 4.97471 16.0544 5.3404 16.0449C5.70609 16.0354 6.06773 16.1206 6.38775 16.2916C6.70777 16.4627 6.97448 16.7133 7.16018 17.0174C7.34588 17.3215 7.44379 17.6681 7.44373 18.0211C7.44373 18.546 7.65981 19.0493 8.0444 19.4204C8.42899 19.7915 8.95061 20 9.4945 20H10.5141C11.0576 19.9994 11.5786 19.7907 11.9627 19.4196C12.3468 19.0486 12.5625 18.5456 12.5625 18.0211V17.6977C12.5625 17.3507 12.6572 17.0099 12.837 16.7094C13.0168 16.409 13.2754 16.1595 13.5868 15.986C13.8982 15.8126 14.2514 15.7213 14.611 15.7213C14.9705 15.7213 15.3238 15.8126 15.6351 15.9861L15.9261 16.1478C16.3963 16.4078 16.954 16.4778 17.4774 16.3422C18.0008 16.2067 18.4473 15.8768 18.7194 15.4245L19.2269 14.5732C19.4973 14.1196 19.5705 13.5811 19.4305 13.0755C19.2904 12.57 18.9485 12.1385 18.4797 11.8756ZM9.99961 13.2098C9.34152 13.2102 8.6981 13.0223 8.15073 12.6698C7.60335 12.3173 7.17662 11.816 6.92456 11.2294C6.67251 10.6428 6.60645 9.9972 6.73472 9.37435C6.863 8.7515 7.17986 8.17938 7.6452 7.73035C8.11054 7.28132 8.70347 6.97556 9.34894 6.85178C9.9944 6.728 10.6634 6.79175 11.2713 7.03497C11.8792 7.27819 12.3987 7.68995 12.7641 8.21814C13.1294 8.74633 13.3241 9.36722 13.3237 10.0022C13.3237 10.424 13.2375 10.8417 13.07 11.2313C12.9025 11.6209 12.657 11.9748 12.3476 12.2727C12.0382 12.5707 11.6709 12.8068 11.2668 12.9676C10.8627 13.1284 10.4298 13.2107 9.99265 13.2098H9.99961Z" fill="#8087ED"/>
</svg>
