<svg class="Nav_linkImg__EhBRW" width="18" height="18" viewBox="0 0 18 18" fill="none" xmlns="http://www.w3.org/2000/svg"><path d="M8.23214 0.75C7.67986 0.75 7.23214 1.19772 7.23214 1.75V2.49885C7.23214 2.87165 7.02152 3.21246 6.68807 3.37918V3.37918C6.30915 3.56864 5.85152 3.49437 5.55195 3.19481L4.99282 2.63568C4.6023 2.24515 3.96913 2.24515 3.57861 2.63568L2.63568 3.57861C2.24515 3.96913 2.24515 4.6023 2.63568 4.99282L3.19481 5.55195C3.49437 5.85152 3.56864 6.30915 3.37918 6.68807V6.68807C3.21246 7.02152 2.87165 7.23214 2.49885 7.23214H1.75C1.19772 7.23214 0.75 7.67986 0.75 8.23214V9.76786C0.75 10.3201 1.19772 10.7679 1.75 10.7679H2.49885C2.87165 10.7679 3.21246 10.9785 3.37918 11.3119V11.3119C3.56864 11.6908 3.49437 12.1485 3.19481 12.448L2.63568 13.0072C2.24515 13.3977 2.24515 14.0309 2.63568 14.4214L3.57861 15.3643C3.96913 15.7548 4.6023 15.7548 4.99282 15.3643L5.55195 14.8052C5.85152 14.5056 6.30915 14.4314 6.68807 14.6208V14.6208C7.02152 14.7875 7.23214 15.1283 7.23214 15.5011V16.25C7.23214 16.8023 7.67986 17.25 8.23214 17.25H9.76786C10.3201 17.25 10.7679 16.8023 10.7679 16.25V15.5011C10.7679 15.1283 10.9785 14.7875 11.3119 14.6208V14.6208C11.6908 14.4314 12.1485 14.5056 12.448 14.8052L13.0072 15.3643C13.3977 15.7548 14.0309 15.7548 14.4214 15.3643L15.3643 14.4214C15.7548 14.0309 15.7548 13.3977 15.3643 13.0072L14.8052 12.448C14.5056 12.1485 14.4314 11.6908 14.6208 11.3119V11.3119C14.7875 10.9785 15.1283 10.7679 15.5011 10.7679H16.25C16.8023 10.7679 17.25 10.3201 17.25 9.76786V8.23214C17.25 7.67986 16.8023 7.23214 16.25 7.23214H15.5011C15.1283 7.23214 14.7875 7.02152 14.6208 6.68807V6.68807C14.4314 6.30915 14.5056 5.85152 14.8052 5.55195L15.3643 4.99282C15.7548 4.6023 15.7548 3.96913 15.3643 3.57861L14.4214 2.63568C14.0309 2.24515 13.3977 2.24515 13.0072 2.63568L12.448 3.19481C12.1485 3.49437 11.6908 3.56864 11.3119 3.37918V3.37918C10.9785 3.21246 10.7679 2.87165 10.7679 2.49885V1.75C10.7679 1.19772 10.3201 0.75 9.76786 0.75H8.23214Z" stroke="#9EA0B7" stroke-width="1.4" stroke-linecap="round"></path><path d="M8.99972 11.3571C10.3015 11.3571 11.3569 10.3018 11.3569 8.99997C11.3569 7.69815 10.3015 6.64282 8.99972 6.64282C7.69791 6.64282 6.64258 7.69815 6.64258 8.99997C6.64258 10.3018 7.69791 11.3571 8.99972 11.3571Z" stroke="#9EA0B7" stroke-width="1.4" stroke-linecap="round" stroke-linejoin="round"></path></svg>