<svg width="21" height="21" viewBox="0 0 21 21" fill="none" xmlns="http://www.w3.org/2000/svg">
<path d="M17.0001 15.6667V20H1.00012V3.99999H5.6465" stroke="#8087ED" stroke-width="1.5" stroke-linecap="round" stroke-linejoin="round"/>
<path d="M10.152 4.77106L10.152 4.77104C9.97816 4.76802 9.81247 4.69685 9.6906 4.57284C9.56874 4.44884 9.50045 4.28194 9.50045 4.10808C9.50045 3.93422 9.56874 3.76731 9.6906 3.64331C9.81247 3.51931 9.97816 3.44813 10.152 3.44511L10.1533 3.44509L10.1533 3.4451L16.8065 3.4451L10.152 4.77106ZM10.152 4.77106L10.1533 4.77106L15.2058 4.77102L9.68444 10.2924C9.56009 10.4168 9.49023 10.5854 9.49023 10.7613C9.49023 10.9371 9.56009 11.1058 9.68444 11.2301C9.80879 11.3545 9.97744 11.4243 10.1533 11.4243C10.3292 11.4243 10.4978 11.3545 10.6222 11.2301L16.1435 5.70874L16.1436 10.76C16.1436 10.7602 16.1436 10.7604 16.1436 10.7606C16.1421 10.8484 16.1582 10.9357 16.1907 11.0172C16.2233 11.099 16.2719 11.1735 16.3336 11.2363C16.3953 11.299 16.469 11.3489 16.5501 11.383C16.6313 11.417 16.7185 11.4346 16.8066 11.4346C16.8946 11.4346 16.9818 11.417 17.063 11.383C17.1442 11.3489 17.2178 11.299 17.2795 11.2363C17.3412 11.1735 17.3898 11.099 17.4224 11.0172C17.4549 10.9357 17.471 10.8485 17.4695 10.7607C17.4695 10.7604 17.4695 10.7602 17.4695 10.76L17.4695 4.10809L17.4695 4.10808L17.3945 4.10808L10.152 4.77106Z" fill="#8087ED" stroke="#8087ED" stroke-width="0.15"/>
</svg>
