<svg width="21" height="22" viewBox="0 0 21 22" fill="none" xmlns="http://www.w3.org/2000/svg"><path d="M4.51108 4.25206L4.51108 4.25205C4.35877 4.2494 4.21359 4.18704 4.10682 4.07839C4.00004 3.96974 3.94021 3.82351 3.94021 3.67117C3.94021 3.51884 4.00004 3.3726 4.10682 3.26396C4.21359 3.15531 4.35877 3.09295 4.51108 3.0903L4.51238 3.09028L4.51238 3.09029L10.2367 3.09029C10.2367 3.09029 10.2367 3.09029 10.2367 3.09029C10.313 3.09027 10.3885 3.10529 10.459 3.13448M4.51108 4.25206L10.459 3.13448M4.51108 4.25206L4.51238 4.25206L8.8342 4.25203L4.10158 8.98465C3.99263 9.09361 3.93142 9.24138 3.93142 9.39546C3.93142 9.54954 3.99263 9.69731 4.10158 9.80626C4.21053 9.91521 4.3583 9.97642 4.51238 9.97642C4.66646 9.97642 4.81423 9.91521 4.92318 9.80626L9.65581 5.07363L9.65585 9.39415C9.65584 9.39438 9.65584 9.39461 9.65583 9.39483C9.65459 9.47173 9.66862 9.54812 9.69713 9.61956C9.72572 9.69121 9.76829 9.75645 9.82236 9.81147C9.87644 9.86649 9.94092 9.91019 10.0121 9.94002C10.0832 9.96985 10.1596 9.98521 10.2367 9.98521C10.3139 9.98521 10.3902 9.96985 10.4614 9.94002C10.5325 9.91019 10.597 9.86649 10.6511 9.81147C10.7052 9.75645 10.7477 9.69121 10.7763 9.61956C10.8048 9.54813 10.8189 9.47175 10.8176 9.39486C10.8176 9.39462 10.8176 9.39439 10.8176 9.39415L10.8176 3.67119C10.8176 3.67118 10.8176 3.67118 10.8176 3.67117C10.8176 3.59489 10.8026 3.51935 10.7734 3.44887L10.7041 3.47756M4.51108 4.25206L10.459 3.13448M10.459 3.13448C10.5295 3.16366 10.5935 3.20645 10.6475 3.2604C10.7014 3.31434 10.7442 3.37838 10.7734 3.44887L10.7041 3.47756M10.7041 3.47756C10.7295 3.53895 10.7426 3.60474 10.7426 3.67117L10.7426 9.39546L10.2367 3.16529C10.3031 3.16527 10.3689 3.17835 10.4303 3.20377C10.4917 3.22919 10.5475 3.26645 10.5944 3.31343C10.6414 3.36041 10.6787 3.41618 10.7041 3.47756Z" fill="#9EA0B7" stroke="#9EA0B7" stroke-width="0.15"></path><path d="M17.3385 17.0958L17.3385 17.0959C17.4908 17.0985 17.636 17.1609 17.7428 17.2695C17.8496 17.3782 17.9094 17.5244 17.9094 17.6767C17.9094 17.8291 17.8496 17.9753 17.7428 18.0839C17.636 18.1926 17.4908 18.255 17.3385 18.2576L17.3372 18.2576L17.3372 18.2576L11.6129 18.2576C11.6129 18.2576 11.6129 18.2576 11.6129 18.2576C11.5366 18.2576 11.4611 18.2426 11.3906 18.2134M17.3385 17.0958L11.3906 18.2134M17.3385 17.0958L17.3372 17.0958L13.0154 17.0959L17.748 12.3632C17.857 12.2543 17.9182 12.1065 17.9182 11.9524C17.9182 11.7984 17.857 11.6506 17.748 11.5416C17.6391 11.4327 17.4913 11.3715 17.3372 11.3715C17.1831 11.3715 17.0354 11.4327 16.9264 11.5416L12.1938 16.2743L12.1938 11.9537C12.1938 11.9535 12.1938 11.9533 12.1938 11.9531C12.195 11.8762 12.181 11.7998 12.1525 11.7283C12.1239 11.6567 12.0813 11.5915 12.0272 11.5364C11.9732 11.4814 11.9087 11.4377 11.8375 11.4079C11.7664 11.3781 11.69 11.3627 11.6129 11.3627C11.5357 11.3627 11.4594 11.3781 11.3882 11.4079C11.3171 11.4377 11.2526 11.4814 11.1985 11.5364C11.1445 11.5915 11.1019 11.6567 11.0733 11.7283C11.0448 11.7998 11.0308 11.8762 11.032 11.953C11.032 11.9533 11.032 11.9535 11.032 11.9537L11.032 17.6767C11.032 17.6767 11.032 17.6767 11.032 17.6767C11.032 17.753 11.047 17.8286 11.0762 17.899L11.1455 17.8703M17.3385 17.0958L11.3906 18.2134M11.3906 18.2134C11.3201 18.1842 11.2561 18.1414 11.2021 18.0875C11.1482 18.0336 11.1054 17.9695 11.0762 17.899L11.1455 17.8703M11.1455 17.8703C11.1201 17.809 11.107 17.7432 11.107 17.6767L11.107 11.9524L11.6129 18.1826C11.5465 18.1826 11.4807 18.1695 11.4193 18.1441C11.3579 18.1187 11.3022 18.0814 11.2552 18.0345C11.2082 17.9875 11.1709 17.9317 11.1455 17.8703Z" fill="#9EA0B7" stroke-width="0.15"></path></svg>