<svg width="19" height="19" viewBox="0 0 19 19" fill="none" xmlns="http://www.w3.org/2000/svg">
<path fill-rule="evenodd" clip-rule="evenodd" d="M12.8097 1.09557C13.0634 1.34669 13.0634 1.75385 12.8097 2.00497L2.99816 11.7138H5.40042C5.75932 11.7138 6.05026 12.0017 6.05026 12.3568C6.05026 12.7119 5.75932 12.9998 5.40042 12.9998H1.44323C1.27226 13.0035 1.10011 12.9408 0.969632 12.8117C0.891381 12.7342 0.837258 12.642 0.807263 12.544C0.790976 12.4908 0.781803 12.436 0.779744 12.3809C0.779444 12.3729 0.779297 12.3648 0.779297 12.3568V8.4271C0.779297 8.07196 1.07024 7.78406 1.42914 7.78406C1.78804 7.78406 2.07899 8.07196 2.07899 8.4271V10.8045L11.8906 1.09557C12.1444 0.844446 12.5559 0.844446 12.8097 1.09557ZM18.3837 7H18.3619H18.3618H14.6165C14.276 7 14 7.276 14 7.61646C14 7.95692 14.276 8.23292 14.6165 8.23292H16.8647L7.1869 17.9107C6.9377 18.1599 6.9377 18.5639 7.1869 18.8131C7.4361 19.0623 7.84012 19.0623 8.08932 18.8131L17.7672 9.13518V11.3837C17.7672 11.7242 18.0432 12.0002 18.3837 12.0002C18.7242 12.0002 19.0002 11.7242 19.0002 11.3837V7.61646C19.0002 7.276 18.7242 7 18.3837 7Z" fill="#6D6F96"/>
</svg>
