<svg width="86" height="86" viewBox="0 0 86 86" fill="none" xmlns="http://www.w3.org/2000/svg">
<path d="M42.6816 9.57422C24.4848 9.57422 9.68066 24.378 9.68066 42.5751C9.68066 60.7722 24.4844 75.576 42.6816 75.576C60.8787 75.576 75.6825 60.7722 75.6825 42.5751C75.6825 24.378 60.8787 9.57422 42.6816 9.57422ZM42.6816 74.0855C25.3066 74.0855 11.1694 59.9498 11.1694 42.5734C11.1694 25.1971 25.3052 11.0613 42.6816 11.0613C60.0579 11.0613 74.1937 25.1971 74.1937 42.5734C74.1937 59.9498 60.0579 74.0855 42.6816 74.0855Z" fill="#6871EA"/>
<path d="M42.6809 15.9648C28.0088 15.9648 16.0723 27.9014 16.0723 42.5752C16.0723 57.2479 28.0081 69.1855 42.6809 69.1855C57.3537 69.1855 69.2895 57.2476 69.2895 42.5752C69.2895 27.9027 57.353 15.9648 42.6809 15.9648ZM42.6809 67.6968C28.8296 67.6968 17.561 56.4282 17.561 42.5752C17.561 28.7232 28.8291 17.4536 42.6809 17.4536C56.5327 17.4536 67.8008 28.7235 67.8008 42.5752C67.8008 56.4268 56.5322 67.6968 42.6809 67.6968Z" fill="#6871EA"/>
<path d="M59.8148 39.3285H50.52L57.0925 32.7561C58.3579 31.4906 58.3579 29.431 57.0925 28.1649C55.8709 26.942 53.7221 26.942 52.5013 28.1649L45.9282 34.736V25.442C45.9282 23.6516 44.4714 22.1953 42.6809 22.1953C40.8904 22.1953 39.4342 23.6522 39.4342 25.442V34.7367L32.8631 28.1643C31.6415 26.9414 29.4948 26.9414 28.272 28.1643C27.6605 28.7757 27.3229 29.5905 27.3229 30.4598C27.3229 31.3291 27.6592 32.1453 28.272 32.7554L34.8444 39.3278H25.5504C23.76 39.3278 22.3037 40.7847 22.3037 42.5745C22.3037 44.3637 23.7606 45.8212 25.5504 45.8212H34.8444L28.272 52.3936C27.6605 53.0051 27.3229 53.8205 27.3229 54.6892C27.3229 55.5578 27.6592 56.3733 28.272 56.9847C28.8834 57.5962 29.6989 57.9338 30.5675 57.9338C31.4362 57.9338 32.2517 57.5975 32.8631 56.9847L39.4342 50.4137V59.7077C39.4342 61.4981 40.891 62.9544 42.6809 62.9544C44.4713 62.9544 45.9282 61.4975 45.9282 59.7077V50.4137L52.5007 56.9847C53.1108 57.5969 53.9269 57.9338 54.7962 57.9338C55.6655 57.9338 56.4817 57.5975 57.0918 56.9847C58.3572 55.7186 58.3572 53.659 57.0918 52.3936L50.5193 45.8212H59.8141C61.6045 45.8212 63.0607 44.3643 63.0607 42.5745C63.0607 40.786 61.6052 39.3285 59.8148 39.3285ZM34.5094 44.3331H25.5483C24.5787 44.3331 23.7904 43.5442 23.7904 42.5752C23.7904 41.6068 24.5793 40.8173 25.5483 40.8173H34.5094C34.3878 41.3842 34.32 41.9717 34.32 42.5752C34.32 43.1786 34.3878 43.7662 34.5094 44.3331ZM45.9263 36.8434L46.1297 36.64C47.1592 37.2402 48.0166 38.0982 48.6167 39.127L48.4133 39.3304C47.5839 39.3344 46.8342 39.6587 46.2613 40.1771C45.9796 40.1007 45.7144 39.9644 45.5024 39.7531C45.2877 39.5384 45.1488 39.2799 45.0684 39.0087C45.5941 38.4345 45.9224 37.6782 45.9264 36.8433L45.9263 36.8434ZM49.0287 40.8171H49.3165C49.4654 41.3787 49.5524 41.9662 49.5524 42.575C49.5524 43.1831 49.4654 43.7707 49.3165 44.3329H49.0274C48.4565 43.77 47.6895 43.4782 46.9093 43.4417C46.7624 43.1845 46.6714 42.892 46.6714 42.575C46.6714 42.2713 46.7558 41.9895 46.8927 41.7396C47.7002 41.7037 48.4545 41.386 49.0288 40.8171L49.0287 40.8171ZM40.9223 25.4418C40.9223 24.4721 41.7112 23.6839 42.6802 23.6839C43.6499 23.6839 44.4388 24.4728 44.4388 25.4418V34.4029C43.8719 34.2819 43.283 34.2141 42.6809 34.2141C42.0787 34.2141 41.4899 34.2819 40.9229 34.4036V25.4418L40.9223 25.4418ZM40.9223 35.9394C41.4839 35.7906 42.0714 35.7035 42.6802 35.7035C43.2883 35.7035 43.8758 35.7906 44.4388 35.9394V36.2272C43.8513 36.8221 43.5495 37.5877 43.5136 38.3652C43.2644 38.5015 42.9826 38.5859 42.6802 38.5859C42.3765 38.5859 42.0947 38.5015 41.8454 38.3652C41.8096 37.5584 41.4919 36.8027 40.9223 36.2291L40.9223 35.9394ZM39.4355 36.844C39.4395 37.6787 39.7678 38.4338 40.2922 39.0074C40.2111 39.2852 40.0682 39.543 39.8575 39.7524C39.6469 39.9637 39.3823 40.1 39.1012 40.1764C38.5283 39.658 37.778 39.3337 36.9492 39.3297L36.7459 39.1263C37.3454 38.0981 38.204 37.2408 39.2322 36.64L39.4355 36.844ZM38.6898 42.5751C38.6898 42.8914 38.5988 43.1845 38.4519 43.4424C37.671 43.479 36.9033 43.7701 36.3331 44.3337H36.044C35.8951 43.7721 35.808 43.1846 35.808 42.5758C35.808 41.9676 35.8951 41.3801 36.044 40.8178H36.3331C36.908 41.3868 37.6623 41.7051 38.4692 41.741C38.6068 41.9896 38.6899 42.2714 38.6899 42.5751L38.6898 42.5751ZM29.3226 31.7026C28.9923 31.373 28.8102 30.9317 28.8102 30.4598C28.8102 29.9886 28.9916 29.5466 29.3226 29.2169C29.6529 28.8873 30.0949 28.7045 30.5661 28.7045C31.0373 28.7045 31.4793 28.886 31.8089 29.2169L38.1488 35.5582C37.1552 36.2022 36.3079 37.0496 35.6639 38.0445L29.3226 31.7026ZM31.8089 55.9327C31.1489 56.5939 29.9838 56.5926 29.3226 55.9327C28.9923 55.6023 28.8102 55.1617 28.8102 54.6898C28.8102 54.2186 28.9916 53.7766 29.3226 53.447L35.6638 47.1057C36.3078 48.0993 37.1552 48.9481 38.1501 49.592L31.8089 55.9327ZM39.4354 48.3062L39.232 48.5095C38.2038 47.9094 37.3465 47.0514 36.7457 46.0232L36.9491 45.8199C37.7845 45.8159 38.5402 45.4882 39.1138 44.9632C39.3929 45.0443 39.6495 45.1865 39.8588 45.3972C40.0682 45.6065 40.2104 45.8637 40.2928 46.1416C39.7678 46.7151 39.4395 47.4708 39.4355 48.3063L39.4354 48.3062ZM44.4386 59.7078C44.4386 60.6775 43.6497 61.4657 42.68 61.4657C41.7103 61.4657 40.9221 60.6768 40.9221 59.7078V50.7467C41.4897 50.869 42.0772 50.9361 42.68 50.9361C43.2821 50.9361 43.871 50.8683 44.4386 50.7467V59.7078ZM44.4386 49.2101C43.8757 49.359 43.2881 49.4461 42.68 49.4461C42.0719 49.4461 41.4844 49.359 40.9221 49.2101V48.9224C41.4917 48.3475 41.8093 47.5931 41.8452 46.7855C42.0945 46.6493 42.3763 46.5649 42.68 46.5649C42.9837 46.5649 43.2649 46.6493 43.5134 46.7855C43.548 47.5625 43.851 48.3288 44.4386 48.9224L44.4386 49.2101ZM44.4492 44.3444C44.1681 44.6255 43.9607 44.9485 43.8052 45.2902C43.4536 45.1592 43.0774 45.0775 42.6807 45.0775C42.2845 45.0775 41.9097 45.1586 41.5595 45.2888C41.4006 44.9426 41.1879 44.6209 40.9121 44.3437C40.637 44.0686 40.3106 43.8645 39.9624 43.7124C40.0966 43.3568 40.1797 42.976 40.1797 42.5739C40.1797 42.1777 40.0986 41.8029 39.967 41.4513C40.3133 41.2925 40.635 41.0811 40.9108 40.8053C41.1879 40.5295 41.3999 40.2058 41.5581 39.8602C41.9097 39.9905 42.2845 40.0716 42.6807 40.0716C43.0774 40.0716 43.4536 39.9891 43.8052 39.8589C43.9607 40.2005 44.1694 40.5242 44.4492 40.8046C44.7264 41.0818 45.0487 41.2931 45.395 41.452C45.2647 41.8036 45.1836 42.1784 45.1836 42.5745C45.1836 42.9766 45.2661 43.3568 45.4003 43.7117C45.052 43.8639 44.725 44.0679 44.4492 44.3444L44.4492 44.3444ZM45.926 48.3062C45.922 47.4707 45.5937 46.7151 45.0686 46.1414C45.1491 45.8696 45.288 45.6104 45.5026 45.3971C45.7133 45.1877 45.9699 45.0455 46.249 44.9631C46.8226 45.4868 47.5783 45.8144 48.4124 45.8198L48.6157 46.0231C48.0163 47.0526 47.1576 47.91 46.1295 48.5101L45.926 48.3062ZM56.039 53.4464C56.7235 54.1309 56.7235 55.2468 56.039 55.9327C55.3797 56.5939 54.2138 56.5946 53.5527 55.9327L47.2109 49.5914C48.2052 48.9474 49.0532 48.1 49.6972 47.1051L56.039 53.4464ZM49.6977 38.0445C49.0537 37.0502 48.205 36.2022 47.2108 35.5575L53.5539 29.2163C53.8835 28.886 54.3241 28.7039 54.7954 28.7039C55.2679 28.7039 55.7086 28.8853 56.0389 29.2163C56.7234 29.9022 56.7234 31.0168 56.0389 31.7026L49.6977 38.0445ZM59.8139 44.3325H50.8515C50.9738 43.7649 51.0409 43.1774 51.0409 42.5746C51.0409 41.9724 50.9731 41.3836 50.8515 40.8167H59.8139C60.7836 40.8167 61.5718 41.6056 61.5718 42.5746C61.5718 43.5429 60.7836 44.3325 59.8139 44.3325Z" fill="#6871EA"/>
<path d="M25.3679 82.7245C25.3679 81.4291 24.3139 80.375 23.0184 80.375C21.7231 80.375 20.6689 81.4291 20.6689 82.7245C20.6689 84.0199 21.723 85.074 23.0184 85.074C24.3138 85.074 25.3679 84.0199 25.3679 82.7245ZM21.4128 82.7245C21.4128 81.8392 22.1333 81.1194 23.0179 81.1194C23.9025 81.1194 24.6229 81.8399 24.6229 82.7245C24.6229 83.6091 23.9025 84.3296 23.0179 84.3296C22.1339 84.3296 21.4128 83.6098 21.4128 82.7245Z" fill="#6871EA"/>
<path d="M1.31806 28.78L3.45012 27.6594L5.58218 28.78L5.17544 26.4046L6.90017 24.7231L4.51613 24.3775L3.45009 22.2188L2.38404 24.378L0 24.7236L1.72474 26.4051L1.31806 28.78ZM1.59985 25.2449L2.87791 25.0595L3.44949 23.9011L4.02107 25.0595L5.29913 25.2449L4.37398 26.1461L4.59265 27.4196L3.44949 26.8194L2.30634 27.4182L2.525 26.1448L1.59985 25.2449Z" fill="#6871EA"/>
<path d="M23.8436 2.92539L23.0826 1.38281L22.3216 2.92539L20.6182 3.17263L21.851 4.3736L21.5599 6.06904L23.0826 5.26884L24.6052 6.06904L24.3141 4.3736L25.547 3.17263L23.8436 2.92539ZM23.6163 4.70798L23.0826 4.42818L22.549 4.70798L22.6513 4.11314L22.2193 3.69243L22.8168 3.60603L23.084 3.06503L23.3511 3.60603L23.9486 3.69243L23.5166 4.11314L23.6163 4.70798Z" fill="#6871EA"/>
<path d="M78.9717 62.3634L80.2032 63.5643L79.9121 65.2605L81.4348 64.4596L82.9574 65.2605L82.6663 63.5643L83.8979 62.3634L82.1958 62.1155L81.4348 60.5742L80.6738 62.1155L78.9717 62.3634ZM81.436 62.255L81.7032 62.796L82.3007 62.8831L81.868 63.3051L81.9704 63.9006L81.4367 63.6195L80.903 63.9006L81.0054 63.3051L80.5727 62.8831L81.1702 62.796L81.436 62.255Z" fill="#6871EA"/>
<path d="M81.4349 8.52344L80.4493 11.5574H77.2598L79.8391 13.4324L78.8548 16.4643L81.4355 14.5907L84.0163 16.4643L83.0306 13.4324L85.61 11.5574H82.4205L81.4349 8.52344ZM82.1547 13.1486L82.5993 14.5164L81.4349 13.671L80.2698 14.5164L80.7144 13.1486L79.55 12.3019H80.9902L81.4349 10.9334L81.8795 12.3019H83.3197L82.1547 13.1486Z" fill="#6871EA"/>
<path d="M73.5389 0C72.2436 0 71.1895 1.05409 71.1895 2.3495C71.1895 3.64485 72.2435 4.699 73.5389 4.699C74.8344 4.699 75.8885 3.64492 75.8885 2.3495C75.8885 1.05415 74.8344 0 73.5389 0ZM73.5389 3.95378C72.6537 3.95378 71.9339 3.23333 71.9339 2.34872C71.9339 1.46411 72.6543 0.74366 73.5389 0.74366C74.4236 0.74366 75.144 1.46411 75.144 2.34872C75.144 3.23333 74.4236 3.95378 73.5389 3.95378Z" fill="#6871EA"/>
<path d="M81.0635 43.5139C81.0635 44.56 81.9142 45.4107 82.9602 45.4107C84.0063 45.4107 84.857 44.56 84.857 43.5139C84.857 42.4678 84.0063 41.6172 82.9602 41.6172C81.9142 41.6172 81.0635 42.4686 81.0635 43.5139ZM82.9602 42.3615C83.5956 42.3615 84.1127 42.8786 84.1127 43.5139C84.1127 44.1493 83.5956 44.6664 82.9602 44.6664C82.3249 44.6664 81.8078 44.1493 81.8078 43.5139C81.8078 42.8786 82.3249 42.3615 82.9602 42.3615Z" fill="#6871EA"/>
<path d="M7.37988 11.9195C7.37988 13.28 8.48647 14.3866 9.84695 14.3866C11.2074 14.3866 12.314 13.28 12.314 11.9195C12.314 10.559 11.2074 9.45312 9.84695 9.45312C8.48647 9.45312 7.37988 10.5597 7.37988 11.9195ZM9.84763 10.1975C10.7974 10.1975 11.5703 10.9698 11.5703 11.9195C11.5703 12.8706 10.7974 13.6422 9.84763 13.6422C8.8979 13.6422 8.12494 12.8693 8.12494 11.9195C8.12427 10.9698 8.89723 10.1975 9.84763 10.1975Z" fill="#6871EA"/>
<path d="M17.7757 83.089L17.9219 82.3592C17.6016 82.2947 17.2845 82.223 16.9709 82.1445L16.7881 82.867C17.1138 82.9481 17.4434 83.0225 17.7757 83.089H17.7757Z" fill="#6871EA"/>
<path d="M8.11524 78.2193L8.61636 77.6683C8.14515 77.2397 7.69055 76.7831 7.26585 76.3125L6.71289 76.811C7.15421 77.3001 7.62542 77.774 8.11524 78.2193V78.2193Z" fill="#6871EA"/>
<path d="M1.47266 63.2315C1.47266 63.5592 1.48063 63.8855 1.49658 64.2099L2.2403 64.174C2.22567 63.8616 2.2177 63.5466 2.2177 63.2309C2.2177 62.9085 2.22567 62.5849 2.24162 62.2592L1.49791 62.2227C1.48063 62.561 1.47266 62.8972 1.47266 63.2316L1.47266 63.2315Z" fill="#6871EA"/>
<path d="M14.8885 82.2897L15.1397 81.5892C14.5402 81.3745 13.9461 81.128 13.3711 80.8555L13.0527 81.5281C13.6489 81.8112 14.2663 82.0671 14.8884 82.2897H14.8885Z" fill="#6871EA"/>
<path d="M4.09015 71.5492C3.81699 70.9717 3.57108 70.3781 3.35774 69.7812L2.65723 70.0325C2.87855 70.6506 3.13443 71.268 3.41822 71.8668L4.09015 71.5492Z" fill="#6871EA"/>
<path d="M2.80198 67.9536C2.64712 67.3375 2.52085 66.7061 2.42913 66.0781L1.69141 66.1878C1.78844 66.8398 1.9187 67.4951 2.07954 68.1351L2.80198 67.9536Z" fill="#6871EA"/>
<path d="M11.6829 79.9489C11.1399 79.6225 10.6048 79.2643 10.0931 78.8828L9.64844 79.4803C10.1795 79.8751 10.7351 80.2473 11.2987 80.5869L11.6829 79.9489Z" fill="#6871EA"/>
<path d="M4.35352 73.6166C4.69314 74.1821 5.06333 74.7378 5.45612 75.2688L6.05428 74.8261C5.67745 74.3151 5.31855 73.7794 4.99221 73.2344L4.35352 73.6166Z" fill="#6871EA"/>
<path d="M2.60049 59.3845L1.87073 59.2383C1.80427 59.5706 1.74644 59.9022 1.69727 60.2346L2.43366 60.3435C2.48151 60.0245 2.53734 59.7042 2.60048 59.3845L2.60049 59.3845Z" fill="#6871EA"/>
<path d="M84.1898 70.3402L83.4454 70.3242C83.4395 70.6485 83.4215 70.9702 83.3916 71.2899L84.1333 71.3577C84.1632 71.0207 84.1818 70.6811 84.1898 70.3402Z" fill="#6871EA"/>
<path d="M79.0343 80.9466L78.5617 80.3711C78.0188 80.8171 77.4365 81.2218 76.8311 81.5747L77.2059 82.2167C77.8466 81.8439 78.4607 81.4165 79.0342 80.9466H79.0343Z" fill="#6871EA"/>
<path d="M82.3486 75.3663L83.0312 75.6634C83.3269 74.9835 83.5689 74.275 83.7536 73.5565L83.0319 73.3711C82.8577 74.051 82.6284 74.7223 82.3486 75.3664V75.3663Z" fill="#6871EA"/>
<path d="M73.066 83.8195C73.7897 83.666 74.5082 83.4513 75.2007 83.1821L74.9316 82.4883C74.2763 82.7422 73.5963 82.9449 72.9111 83.0904L73.066 83.8195Z" fill="#6871EA"/>
<path d="M80.084 78.9088L80.6409 79.4033C81.1354 78.8477 81.5867 78.2502 81.9848 77.6273L81.3574 77.2266C80.9792 77.8161 80.5519 78.383 80.084 78.9087L80.084 78.9088Z" fill="#6871EA"/>
<path d="M69.8311 84.1262C69.9274 84.1282 70.0238 84.1288 70.1202 84.1288C70.3654 84.1288 70.6093 84.1229 70.8506 84.1102L70.8127 83.3672C70.4943 83.3831 70.1713 83.3898 69.847 83.3818L69.8311 84.1262Z" fill="#6871EA"/>
<path d="M82.5889 23.0625H83.3332V25.0477H82.5889V23.0625Z" fill="#6871EA"/>
<path d="M82.5889 27.0312H83.3332V29.0165H82.5889V27.0312Z" fill="#6871EA"/>
<path d="M82.5889 34.9688H83.3332V36.954H82.5889V34.9688Z" fill="#6871EA"/>
<path d="M82.5889 31H83.3332V32.9852H82.5889V31Z" fill="#6871EA"/>
</svg>