<svg width="86" height="86" viewBox="0 0 86 86" fill="none" xmlns="http://www.w3.org/2000/svg">
<path d="M74.6052 34.2167L74.4178 33.495L74.3892 33.5029C72.4817 26.8016 68.6037 20.9829 63.1054 16.6523C57.2316 12.0246 50.1792 9.57812 42.7122 9.57812C41.5578 9.57812 40.3968 9.65456 39.2456 9.77484L39.2429 9.75225L38.5045 9.84662H38.5026L37.7668 9.941L37.7688 9.95961C29.4298 11.2131 21.9909 15.5185 16.7614 22.1567C5.50147 36.4507 7.97124 57.2416 22.2652 68.4999C25.2406 70.8439 28.5604 72.6325 32.1348 73.8374L32.1301 73.8534L33.5511 74.2986L33.5597 74.2721C36.5326 75.1254 39.5665 75.5601 42.5825 75.5594C52.5444 75.5594 62.2696 71.0473 68.609 63.0002C74.9043 55.0075 77.1248 44.8223 74.7733 34.9439L74.7939 34.9379L74.6052 34.2167ZM33.1808 70.4824L29.5639 65.9677L23.4919 63.1171L20.0592 58.8277L25.5469 55.1038L28.0299 58.803L32.7095 60.5376L35.1514 64.1751L33.1808 70.4824ZM68.902 34.9415L66.4821 35.5756C66.3698 35.3682 66.2482 35.1688 66.1325 34.9641C65.9903 34.7142 65.8514 34.4617 65.7045 34.2151C65.5317 33.9253 65.351 33.6422 65.1708 33.3577C65.018 33.1178 64.8671 32.8752 64.7096 32.638C64.5208 32.3562 64.3248 32.081 64.1287 31.8065C63.9652 31.5772 63.8051 31.3453 63.6362 31.1207C63.4309 30.8468 63.2162 30.5797 63.0042 30.3125C62.8327 30.0952 62.6639 29.8765 62.4871 29.6645C62.2632 29.3953 62.0279 29.1348 61.7953 28.8723C61.6165 28.6709 61.4437 28.4662 61.2616 28.2701C61.0103 27.999 60.7485 27.7384 60.4886 27.4752C60.3132 27.2965 60.1424 27.1137 59.9629 26.9396C59.6678 26.6525 59.3608 26.3766 59.0537 26.0988C58.8969 25.9566 58.7473 25.8097 58.5885 25.6708C58.1179 25.2588 57.6367 24.8587 57.1423 24.4692C56.5169 23.9767 55.8769 23.5075 55.2229 23.0595C55.0096 22.9133 54.7869 22.7837 54.5696 22.6415C54.1236 22.3504 53.679 22.056 53.2218 21.7861C52.9506 21.6266 52.6708 21.4838 52.395 21.3309C51.9809 21.1009 51.5695 20.8643 51.1462 20.651C50.8424 20.4981 50.5307 20.3632 50.223 20.217C49.8183 20.0276 49.4148 19.8302 49.0034 19.656C48.6791 19.5178 48.3475 19.3982 48.0191 19.2699C47.6144 19.1124 47.211 18.9482 46.8002 18.8053C46.4586 18.6864 46.1117 18.584 45.7661 18.4757C45.36 18.3474 44.9553 18.2145 44.5445 18.1015C44.189 18.0031 43.8301 17.9227 43.4718 17.8363C43.0631 17.736 42.655 17.6336 42.2423 17.5485C41.8761 17.4734 41.5066 17.4143 41.1384 17.3512C40.822 17.2967 40.5083 17.2282 40.1893 17.1817L39.9042 14.9513C40.2305 14.9719 40.5561 14.9971 40.8805 15.0257C41.2886 15.0623 41.6953 15.0962 42.1001 15.148C42.5773 15.2085 43.0511 15.2902 43.5243 15.3707C43.9191 15.4371 44.3165 15.4989 44.7087 15.58C45.1819 15.6771 45.6484 15.7973 46.1163 15.9143C46.4991 16.0107 46.8846 16.0997 47.2635 16.2081C47.7307 16.3443 48.1913 16.5032 48.6532 16.6567C49.0214 16.781 49.3929 16.8946 49.7558 17.0309C50.221 17.2057 50.6776 17.4057 51.1355 17.6005C51.4831 17.7487 51.834 17.8842 52.177 18.0444C52.6475 18.2637 53.1061 18.511 53.5667 18.7522C53.8831 18.9177 54.2067 19.0699 54.5177 19.2467C55.0222 19.5305 55.5113 19.8462 56.0038 20.1559C56.2577 20.3174 56.5209 20.4636 56.7708 20.6311C57.5065 21.1236 58.227 21.6446 58.9289 22.1983C59.4805 22.6329 60.0168 23.0855 60.5399 23.5508C60.7107 23.7036 60.8715 23.8671 61.0404 24.024C61.386 24.3456 61.7322 24.6653 62.0625 24.9996C62.254 25.1924 62.4341 25.3957 62.6201 25.5931C62.9139 25.9048 63.211 26.2145 63.4928 26.5369C63.6842 26.7562 63.865 26.9835 64.0517 27.2068C64.3129 27.5205 64.5748 27.8329 64.824 28.1559C65.0094 28.3951 65.1842 28.6431 65.3637 28.8876C65.597 29.206 65.8309 29.525 66.0536 29.8513C66.229 30.1092 66.3952 30.3731 66.5627 30.6362C66.7714 30.9606 66.9787 31.2862 67.1768 31.6179C67.3396 31.8917 67.4931 32.1715 67.6493 32.4506C67.8341 32.7809 68.0169 33.1126 68.189 33.4502C68.3379 33.74 68.4788 34.0337 68.621 34.3288C68.7167 34.5322 68.8091 34.7376 68.9021 34.9416L68.902 34.9415ZM61.6166 35.4274C61.3674 35.0718 61.1294 34.7056 60.8682 34.3593C60.5027 33.8768 60.1079 33.4183 59.7198 32.9557C59.4559 32.642 59.2054 32.3143 58.9315 32.0106C58.4869 31.5174 58.0117 31.0515 57.5398 30.5843C57.2906 30.3364 57.0573 30.0739 56.8001 29.8353C56.0577 29.1415 55.2875 28.4755 54.484 27.8421C53.9623 27.4314 53.4312 27.0359 52.8922 26.6571C52.7168 26.5341 52.536 26.4218 52.3585 26.3029C51.991 26.0536 51.6248 25.8037 51.2506 25.5691C51.03 25.4322 50.8047 25.3073 50.5827 25.1763C50.2431 24.9736 49.9061 24.7696 49.5605 24.5789C49.3146 24.4426 49.0634 24.321 48.8155 24.1907C48.4871 24.0199 48.1595 23.8451 47.8259 23.6856C47.56 23.5573 47.2889 23.4437 47.0197 23.3221C46.6954 23.1772 46.3737 23.027 46.0453 22.8914C45.7655 22.7751 45.4798 22.6707 45.1966 22.5631C44.8723 22.4381 44.5486 22.3112 44.2203 22.1955C43.9272 22.0925 43.6294 22.0021 43.3337 21.9064C43.008 21.8034 42.6824 21.6951 42.3534 21.6C42.049 21.5117 41.74 21.4346 41.4336 21.3548C41.1877 21.291 40.9451 21.2166 40.6979 21.1581L40.3882 18.7375C40.6261 18.774 40.8634 18.8113 41.1006 18.8538C41.4343 18.9143 41.7679 18.9741 42.0982 19.0432C42.501 19.1276 42.9011 19.2246 43.2992 19.3243C43.6288 19.4054 43.9585 19.4858 44.2848 19.5782C44.6789 19.6885 45.0697 19.8122 45.4598 19.9378C45.7822 20.0408 46.1058 20.1411 46.4255 20.2535C46.8143 20.3904 47.1965 20.5426 47.5806 20.6934C47.8923 20.8164 48.206 20.9347 48.5138 21.0663C48.8999 21.2311 49.2781 21.4139 49.6569 21.592C49.9527 21.7322 50.2517 21.8652 50.5442 22.014C50.9343 22.2114 51.3151 22.4288 51.6986 22.6421C51.9684 22.793 52.2436 22.9352 52.5094 23.0927C52.9275 23.3406 53.3342 23.6098 53.741 23.8756C53.9616 24.0198 54.1869 24.1514 54.4042 24.3016C55.0223 24.7263 55.6291 25.169 56.2207 25.6355C56.6892 26.005 57.1458 26.3845 57.5911 26.774C57.736 26.9009 57.8743 27.0352 58.0178 27.1648C58.3129 27.432 58.6087 27.6978 58.8931 27.9736C59.0599 28.1351 59.2194 28.3039 59.3823 28.4688C59.6322 28.7207 59.8834 28.9732 60.126 29.2331C60.2954 29.4159 60.4576 29.6046 60.6231 29.79C60.8484 30.0433 61.0724 30.2951 61.289 30.5543C61.4545 30.7511 61.6134 30.9531 61.7736 31.1538C61.9789 31.411 62.1836 31.6682 62.381 31.9301C62.5399 32.1408 62.6914 32.3548 62.8456 32.5694C63.033 32.8326 63.2198 33.0951 63.4012 33.3637C63.5507 33.587 63.697 33.8123 63.8418 34.0382C64.0133 34.3074 64.1834 34.5779 64.3483 34.8524C64.4892 35.0857 64.6261 35.3216 64.7623 35.5589C64.8388 35.6938 64.9112 35.8307 64.9863 35.967L62.4582 36.6289C62.1943 36.2162 61.8972 35.8281 61.6168 35.4273L61.6166 35.4274ZM56.2798 38.2466L52.8218 39.1518C52.768 39.0933 52.7088 39.0428 52.655 38.985C52.0741 38.3636 51.4759 37.7581 50.8539 37.18C50.794 37.1241 50.7329 37.073 50.6731 37.0171C50.0111 36.411 49.3326 35.8255 48.6314 35.2725C48.1063 34.8584 47.5673 34.4604 47.0177 34.0755C46.8329 33.9466 46.6409 33.8283 46.4528 33.7027C46.0812 33.4535 45.7111 33.2036 45.3316 32.9683C45.1102 32.83 44.8823 32.7051 44.6577 32.5742C44.3001 32.3635 43.9439 32.1515 43.579 31.9528C43.3391 31.8225 43.0938 31.7035 42.8512 31.5786C42.5581 31.429 42.2697 31.2689 41.972 31.1273L41.5087 27.4939C41.5346 27.5046 41.5625 27.5139 41.5891 27.5225C42.3195 27.7977 43.0373 28.1021 43.7458 28.4257C43.8648 28.4802 43.9838 28.5327 44.1021 28.5892C44.7906 28.9136 45.4685 29.2618 46.1344 29.632C46.2527 29.6978 46.3704 29.7663 46.488 29.8327C47.1573 30.2155 47.8152 30.6176 48.4579 31.0456C48.543 31.1035 48.6267 31.1626 48.7118 31.2211C49.3857 31.6777 50.049 32.1529 50.6917 32.66C51.2493 33.0986 51.7903 33.5592 52.3194 34.0324C52.4962 34.1899 52.665 34.3567 52.8378 34.5189C53.184 34.8426 53.5283 35.1669 53.8619 35.5045C54.0567 35.7019 54.2448 35.9066 54.4355 36.1087C54.7339 36.4264 55.0303 36.7467 55.3161 37.0757C55.5069 37.295 55.693 37.5183 55.8791 37.743C56.0146 37.9071 56.1462 38.078 56.2798 38.2468L56.2798 38.2466ZM42.5063 33.0699C42.7057 33.1742 42.9024 33.2846 43.0998 33.3935C43.448 33.585 43.7923 33.7837 44.1339 33.9884C44.3273 34.1047 44.5207 34.2203 44.7115 34.34C45.0657 34.5626 45.4153 34.7926 45.7602 35.0265C45.9217 35.1355 46.0859 35.2432 46.2447 35.3542C46.7419 35.7058 47.233 36.0647 47.7096 36.4408C48.4121 36.9944 49.0893 37.586 49.7513 38.1974C49.958 38.3868 50.154 38.5875 50.3554 38.7829C50.6266 39.0461 50.8851 39.3199 51.1476 39.5911L43.3138 41.6428L42.1992 32.9157C42.3016 32.9676 42.4059 33.0161 42.5063 33.0699V33.0699ZM43.2706 43.1919L47.3101 42.1339L47.8072 42.0036L40.9012 50.7693L43.2706 43.1919ZM40.5298 46.9703L38.6774 47.173L38.5625 46.2731L41.3353 44.3915L40.5298 46.9703ZM37.1814 47.2095L37.3867 48.8106L39.5048 48.5793L39.6557 49.7657L37.9795 55.1297L37.0969 53.3638L33.6602 52.5676L32.5517 50.3512L37.1814 47.2095ZM31.3076 51.196L32.6415 53.8631L36.0775 54.6593L37.3389 57.1801L35.7213 62.3548L33.6775 59.3108L28.9979 57.5762L26.7774 54.271L31.3076 51.196ZM39.6558 54.757L50.1952 41.379L52.3254 40.8213L53.3455 40.5535L53.945 40.3967L54.9891 40.1235L55.568 39.972L36.849 63.7339L39.6558 54.757ZM57.2178 37.0351C57.0031 36.7712 56.7951 36.5034 56.5724 36.2462C56.2807 35.9066 55.9729 35.5809 55.6685 35.2539C55.4532 35.022 55.2439 34.7827 55.0225 34.5561C54.673 34.1998 54.3068 33.8595 53.9439 33.5179C53.7505 33.3352 53.565 33.1457 53.367 32.9683C52.7981 32.4572 52.2139 31.9641 51.6125 31.4902C50.8615 30.8973 50.0859 30.3411 49.295 29.814C49.2551 29.7881 49.2179 29.7595 49.178 29.7336C48.413 29.2271 47.6268 28.7579 46.8267 28.3126C46.7562 28.2741 46.6878 28.2322 46.618 28.1943C45.8357 27.7677 45.0368 27.3749 44.2241 27.0073C44.129 26.9648 44.0353 26.9189 43.9403 26.8764C43.1421 26.5248 42.3286 26.2045 41.5025 25.9094C41.432 25.8848 41.3656 25.8509 41.2958 25.827L40.9037 22.7571C41.0499 22.7937 41.1974 22.8289 41.3423 22.8674C41.6082 22.9392 41.8734 23.0143 42.1365 23.0927C42.4662 23.1911 42.7939 23.2934 43.1188 23.4004C43.38 23.4868 43.6399 23.5739 43.8991 23.6663C44.2214 23.7813 44.5404 23.9022 44.8588 24.0265C45.1127 24.1269 45.3679 24.2259 45.6191 24.3322C45.9368 24.4652 46.2492 24.6054 46.5629 24.7483C46.8088 24.8606 47.0554 24.9716 47.2986 25.0886C47.613 25.2414 47.924 25.4029 48.2337 25.5658C48.467 25.6881 48.7023 25.807 48.9336 25.9353C49.2513 26.1121 49.5636 26.2995 49.8767 26.4863C50.092 26.6152 50.3113 26.7395 50.5247 26.8744C50.8649 27.0877 51.1986 27.3144 51.5322 27.5403C51.711 27.6613 51.8918 27.7756 52.0679 27.8999C52.5743 28.2561 53.0735 28.6263 53.5646 29.0138C54.3196 29.6093 55.0447 30.2367 55.7433 30.8888C55.9766 31.1074 56.1919 31.3414 56.4179 31.5654C56.8711 32.012 57.3231 32.4593 57.7497 32.9311C58.0036 33.2109 58.2402 33.508 58.4855 33.7965C58.8577 34.2351 59.2292 34.6751 59.5781 35.1323C59.8233 35.454 60.0533 35.7877 60.2866 36.1166C60.5013 36.419 60.7086 36.7261 60.9127 37.0365L57.8693 37.8333C57.66 37.5582 57.4333 37.301 57.218 37.0351L57.2178 37.0351ZM39.4312 11.2382C40.5198 11.1252 41.6204 11.0674 42.711 11.0674C49.8409 11.0674 56.5741 13.4034 62.1837 17.8225C67.4268 21.9512 71.1447 27.4907 72.9692 33.8762L71.3734 34.2943L70.3798 34.5555C70.2615 34.2903 70.1266 34.0344 70.003 33.7726C69.8588 33.4708 69.7192 33.1684 69.567 32.8707C69.3836 32.5111 69.1868 32.1582 68.9914 31.806C68.8306 31.5162 68.6751 31.2244 68.5063 30.9393C68.2996 30.589 68.0783 30.2474 67.8603 29.9038C67.6835 29.628 67.5127 29.3482 67.3286 29.077C67.0973 28.7354 66.852 28.4045 66.6088 28.0708C66.4194 27.8109 66.2359 27.5478 66.0392 27.2925C65.7813 26.9569 65.5082 26.6346 65.2383 26.3089C65.0396 26.0697 64.8475 25.8244 64.6422 25.5885C64.3504 25.2542 64.042 24.9332 63.737 24.6102C63.5382 24.3988 63.3468 24.1815 63.1435 23.9748C62.7952 23.6232 62.431 23.2869 62.0675 22.9486C61.892 22.7851 61.7239 22.613 61.5457 22.4535C60.9968 21.963 60.4318 21.4878 59.8523 21.0312C59.1146 20.4503 58.3589 19.9027 57.5867 19.3856C57.3235 19.2088 57.0477 19.0573 56.7805 18.8885C56.2634 18.5621 55.749 18.2305 55.2193 17.9314C54.8897 17.746 54.5494 17.5872 54.2151 17.413C53.7326 17.1618 53.2541 16.9019 52.7622 16.6733C52.398 16.5038 52.0219 16.3616 51.6523 16.2041C51.1758 16.0034 50.7033 15.7933 50.2194 15.6126C49.8346 15.4683 49.4405 15.3514 49.051 15.2218C48.5685 15.0623 48.0893 14.8934 47.6002 14.7532C47.2014 14.6389 46.794 14.5498 46.3906 14.4495C45.9001 14.3285 45.4123 14.1996 44.9158 14.0979C44.5057 14.0155 44.0903 13.9557 43.6763 13.8872C43.1758 13.8041 42.678 13.7144 42.1716 13.6533C41.7569 13.6014 41.3368 13.5742 40.9181 13.537C40.5153 13.5024 40.1159 13.4479 39.7112 13.426L39.5988 12.5467L39.4312 11.2382ZM17.9287 23.077C22.9154 16.7472 30.0041 12.63 37.9526 11.4269L38.3109 14.2356L38.3434 14.4935L38.39 14.8617L38.7828 17.9361L39.2839 21.8613L39.6301 24.573L39.9319 26.9383L40.3718 30.3803L41.6034 40.0225L41.8845 42.2177L16.2016 59.6436C9.1268 48.6468 9.39528 33.9097 17.9282 23.0768L17.9287 23.077ZM23.1832 67.3308C20.7785 65.436 18.7316 63.2547 17.0375 60.8787L18.8233 59.6671L22.5458 64.3181L28.6178 67.1687L32.6441 72.1958L32.5723 72.4238C29.1722 71.274 26.0159 69.562 23.1832 67.3308L23.1832 67.3308ZM35.6035 67.7229L57.955 39.3467L58.2228 39.2769L59.128 39.0397L61.7771 38.3472L62.8731 38.06L63.2838 37.953L63.3277 37.9411L35.5198 73.2421C35.0107 73.1238 34.5002 73.0128 33.9945 72.8679L35.6035 67.7229ZM65.7152 37.3152L66.9912 36.9816L69.9143 36.2166L70.1382 36.1568L70.971 35.9382L71.0873 35.9083L41.0607 74.0268C39.7567 73.9643 38.4535 73.8015 37.1534 73.5735L65.7152 37.3152ZM73.3663 35.4217C73.7165 36.9211 73.9471 38.4271 74.0781 39.9325L47.4968 73.675C45.9901 73.9109 44.4649 74.0405 42.9323 74.0578L73.3663 35.4217ZM74.199 42.1835C74.2309 44.2218 74.0581 46.2456 73.6966 48.2336L55.5374 71.2878C53.6685 72.1205 51.7284 72.7792 49.7352 73.2398L74.199 42.1835ZM67.4372 62.0765C64.9855 65.1882 62.0039 67.7442 58.6923 69.6857L72.8559 51.7034C71.7327 55.4067 69.923 58.9219 67.4372 62.0761V62.0765Z" fill="#6871EA"/>
<path d="M25.3679 82.7206C25.3679 81.4246 24.3138 80.3711 23.0184 80.3711C21.7231 80.3711 20.6689 81.4252 20.6689 82.7206C20.6689 84.016 21.723 85.0701 23.0184 85.0701C24.3138 85.0701 25.3679 84.0173 25.3679 82.7206ZM21.4128 82.7206C21.4128 81.8353 22.1333 81.1155 23.0179 81.1155C23.9025 81.1155 24.6229 81.836 24.6229 82.7206C24.6229 83.6052 23.9025 84.3256 23.0179 84.3256C22.1339 84.3256 21.4128 83.6058 21.4128 82.7206Z" fill="#6871EA"/>
<path d="M1.31805 28.7772L3.4501 27.6567L5.58214 28.7772L5.1754 26.4019L6.90013 24.7217L4.5161 24.3755L3.45006 22.2148L2.38402 24.3755L0 24.7217L1.72472 26.4019L1.31805 28.7772ZM1.59984 25.2408L2.87789 25.0554L3.44947 23.897L4.02104 25.0554L5.29909 25.2408L4.37395 26.1421L4.59262 27.4155L3.44947 26.8153L2.30632 27.4155L2.52499 26.1421L1.59984 25.2408Z" fill="#6871EA"/>
<path d="M23.8436 2.92605L23.0826 1.38281L22.3216 2.92605L20.6182 3.17328L21.851 4.37424L21.5599 6.06834L23.0826 5.26948L24.6052 6.06834L24.3141 4.37424L25.547 3.17328L23.8436 2.92605ZM23.6163 4.70913L23.0826 4.42801L22.5489 4.70913L22.6513 4.11364L22.2193 3.6916L22.8168 3.6052L23.084 3.0642L23.3511 3.6052L23.9486 3.6916L23.5166 4.11364L23.6163 4.70913Z" fill="#6871EA"/>
<path d="M78.9707 62.3634L80.2022 63.5643L79.9111 65.2604L81.4338 64.4596L82.9564 65.2604L82.6653 63.5643L83.8969 62.3634L82.1948 62.1155L81.4338 60.5742L80.6728 62.1155L78.9707 62.3634ZM81.435 62.255L81.7022 62.796L82.2997 62.8831L81.867 63.3051L81.9694 63.9006L81.4357 63.6195L80.902 63.9006L81.0044 63.3051L80.5717 62.8831L81.1692 62.796L81.435 62.255Z" fill="#6871EA"/>
<path d="M81.4339 8.52344L80.4483 11.5574H77.2588L79.8381 13.4329L78.8538 16.4648L81.4345 14.5912L84.0152 16.4648L83.0296 13.4329L85.609 11.5574H82.4195L81.4339 8.52344ZM82.1537 13.1486L82.5983 14.517L81.4339 13.6703L80.2688 14.517L80.7134 13.1486L79.549 12.3018H80.9892L81.4339 10.9334L81.8785 12.3018H83.3187L82.1537 13.1486Z" fill="#6871EA"/>
<path d="M73.538 0C72.2426 0 71.1885 1.05408 71.1885 2.34949C71.1885 3.64482 72.2425 4.69897 73.538 4.69897C74.8334 4.69897 75.8874 3.64489 75.8874 2.34949C75.8874 1.05415 74.8334 0 73.538 0ZM73.538 3.95375C72.6527 3.95375 71.9329 3.2333 71.9329 2.3487C71.9329 1.4641 72.6534 0.743655 73.538 0.743655C74.4226 0.743655 75.143 1.4641 75.143 2.3487C75.143 3.2333 74.4226 3.95375 73.538 3.95375Z" fill="#6871EA"/>
<path d="M81.0635 43.5139C81.0635 44.56 81.9142 45.4107 82.9602 45.4107C84.0062 45.4107 84.8569 44.56 84.8569 43.5139C84.8569 42.4678 84.0062 41.6172 82.9602 41.6172C81.9142 41.6172 81.0635 42.4686 81.0635 43.5139ZM82.9602 42.3615C83.5956 42.3615 84.1127 42.8786 84.1127 43.5139C84.1127 44.1493 83.5956 44.6664 82.9602 44.6664C82.3248 44.6664 81.8078 44.1493 81.8078 43.5139C81.8078 42.8786 82.3248 42.3615 82.9602 42.3615Z" fill="#6871EA"/>
<path d="M7.37988 11.9234C7.37988 13.2839 8.48647 14.3905 9.84694 14.3905C11.2074 14.3905 12.314 13.2839 12.314 11.9234C12.314 10.5636 11.2074 9.45703 9.84694 9.45703C8.48647 9.45703 7.37988 10.5636 7.37988 11.9234ZM9.84762 10.2014C10.7973 10.2014 11.5703 10.9737 11.5703 11.9234C11.5703 12.8731 10.7973 13.6461 9.84762 13.6461C8.89789 13.6461 8.12493 12.8731 8.12493 11.9234C8.12427 10.9737 8.89722 10.2014 9.84762 10.2014Z" fill="#6871EA"/>
<path d="M17.776 83.0896L17.9209 82.3592C17.6006 82.2967 17.2829 82.223 16.9698 82.1445L16.7891 82.8683C17.1147 82.9487 17.4444 83.0232 17.776 83.0896H17.776Z" fill="#6871EA"/>
<path d="M2.80099 67.9536C2.64614 67.3362 2.51987 66.7048 2.42815 66.0781L1.69043 66.1865C1.78746 66.8378 1.91772 67.4924 2.07856 68.1337L2.80099 67.9536Z" fill="#6871EA"/>
<path d="M4.35352 73.6198C4.6938 74.1887 5.06532 74.745 5.45612 75.272L6.05427 74.83C5.6781 74.3209 5.32053 73.7853 4.99221 73.2383L4.35352 73.6198Z" fill="#6871EA"/>
<path d="M1.47266 63.2309C1.47266 63.5572 1.48063 63.8842 1.49658 64.2092L2.24029 64.1726C2.22567 63.8609 2.21769 63.5452 2.21769 63.2309C2.21769 62.9085 2.22567 62.5855 2.24162 62.2592L1.49791 62.2227C1.48063 62.5603 1.47266 62.8966 1.47266 63.2309L1.47266 63.2309Z" fill="#6871EA"/>
<path d="M11.6831 79.9489C11.1375 79.6205 10.6025 79.2623 10.094 78.8828L9.64941 79.4803C10.1771 79.8731 10.7321 80.2466 11.301 80.5869L11.6831 79.9489Z" fill="#6871EA"/>
<path d="M14.8891 82.291L15.1404 81.5892C14.5409 81.3745 13.9454 81.128 13.3724 80.8555L13.0527 81.5281C13.6476 81.8105 14.2657 82.0671 14.8891 82.291H14.8891Z" fill="#6871EA"/>
<path d="M4.08917 71.5478C3.816 70.9709 3.5701 70.3768 3.35676 69.7812L2.65625 70.0312C2.87757 70.6506 3.13345 71.268 3.41724 71.8661L4.08917 71.5478Z" fill="#6871EA"/>
<path d="M8.11523 78.2193L8.61635 77.6683C8.14514 77.2383 7.69054 76.7817 7.26585 76.3125L6.71289 76.811C7.1542 77.3001 7.62541 77.7733 8.11523 78.2193V78.2193Z" fill="#6871EA"/>
<path d="M2.60146 59.3832L1.8717 59.2383C1.80524 59.5706 1.74742 59.9022 1.69824 60.2339L2.43463 60.3442C2.48248 60.0232 2.53831 59.7035 2.60145 59.3832L2.60146 59.3832Z" fill="#6871EA"/>
<path d="M84.1888 70.3402L83.4445 70.3242C83.4385 70.6485 83.4205 70.9702 83.3906 71.2899L84.1323 71.3577C84.1622 71.0207 84.1809 70.6811 84.1888 70.3402Z" fill="#6871EA"/>
<path d="M80.083 78.9074L80.64 79.4019C81.1331 78.847 81.5857 78.2508 81.9838 77.6273L81.3564 77.2266C80.9782 77.8167 80.5496 78.3823 80.083 78.9074L80.083 78.9074Z" fill="#6871EA"/>
<path d="M73.0637 83.8195C73.7875 83.666 74.5046 83.4513 75.1978 83.1821L74.9286 82.4883C74.2713 82.7422 73.5914 82.9449 72.9082 83.0898L73.0637 83.8195Z" fill="#6871EA"/>
<path d="M82.3486 75.3695L83.0312 75.6666C83.3269 74.9867 83.5689 74.2782 83.7536 73.5598L83.0318 73.375C82.8577 74.0542 82.6284 74.7262 82.3486 75.3696V75.3695Z" fill="#6871EA"/>
<path d="M79.0337 80.9466L78.5611 80.3711C78.0195 80.8151 77.4366 81.2198 76.8291 81.576L77.2053 82.2174C77.8466 81.8432 78.4621 81.4152 79.0336 80.9466L79.0337 80.9466Z" fill="#6871EA"/>
<path d="M69.8311 84.1229C69.9301 84.1249 70.0284 84.1256 70.1268 84.1256C70.3701 84.1256 70.6113 84.1196 70.8512 84.1057L70.8114 83.3633C70.4937 83.3799 70.17 83.3839 69.8463 83.3779L69.8311 84.1229Z" fill="#6871EA"/>
<path d="M82.5879 34.9727H83.3323V36.9579H82.5879V34.9727Z" fill="#6871EA"/>
<path d="M82.5879 23.0586H83.3323V25.0438H82.5879V23.0586Z" fill="#6871EA"/>
<path d="M82.5879 30.9961H83.3323V32.9813H82.5879V30.9961Z" fill="#6871EA"/>
<path d="M82.5879 27.0312H83.3323V29.0165H82.5879V27.0312Z" fill="#6871EA"/>
</svg>