<svg width="32" height="32" viewBox="0 0 32 32" fill="none" xmlns="http://www.w3.org/2000/svg">
<path d="M25.7425 3.40002H6.25675C4.78979 3.40002 3.59961 4.6094 3.59961 6.10002V25.9C3.59961 27.3906 4.78979 28.6 6.25675 28.6H25.7425C27.2094 28.6 28.3996 27.3906 28.3996 25.9V6.10002C28.3996 4.6094 27.2094 3.40002 25.7425 3.40002ZM23.0355 12.3325C23.0466 12.49 23.0466 12.6531 23.0466 12.8106C23.0466 17.6875 19.393 23.3069 12.7169 23.3069C10.6576 23.3069 8.74782 22.6994 7.14247 21.6532C7.43586 21.6869 7.71818 21.6981 8.01711 21.6981C9.71657 21.6981 11.2776 21.1131 12.5232 20.1231C10.9289 20.0894 9.58925 19.0263 9.12979 17.5638C9.68889 17.6481 10.1926 17.6482 10.7684 17.4963C9.10764 17.1532 7.86211 15.6681 7.86211 13.8738V13.8288C8.34372 14.1044 8.90836 14.2731 9.50068 14.2956C9.0027 13.9591 8.59447 13.5025 8.31242 12.9665C8.03037 12.4306 7.88327 11.8321 7.88425 11.2244C7.88425 10.5381 8.0614 9.90815 8.37693 9.36252C10.165 11.6013 12.8498 13.0638 15.8612 13.2213C15.3464 10.7182 17.1898 8.68752 19.4041 8.68752C20.4503 8.68752 21.3914 9.1319 22.0557 9.8519C22.875 9.6944 23.661 9.38502 24.3585 8.96315C24.0873 9.81815 23.5171 10.5381 22.7643 10.9938C23.495 10.915 24.2035 10.7069 24.8568 10.42C24.3641 11.1569 23.7441 11.8094 23.0355 12.3325Z" fill="#D3D6E4"/>
</svg>
