<svg width="18" height="18" viewBox="0 0 18 18" fill="none" xmlns="http://www.w3.org/2000/svg"><path d="M18 5.00391C18 4.875 17.9854 4.74316 17.9561 4.6084C17.9268 4.47363 17.8711 4.31543 17.7891 4.13379C17.707 3.95215 17.5664 3.78516 17.3672 3.63281C17.168 3.48047 16.9219 3.36328 16.6289 3.28125L3.91992 0.75C3.61523 0.75 3.33398 0.826172 3.07617 0.978516C2.81836 1.13086 2.61328 1.33594 2.46094 1.59375C2.30859 1.85156 2.23242 2.13281 2.23242 2.4375V4.6875H1.66992C1.21289 4.69922 0.820312 4.86914 0.492188 5.19727C0.164063 5.52539 0 5.91797 0 6.375V15.375C0 15.8438 0.164063 16.2422 0.492188 16.5703C0.820312 16.8984 1.21875 17.0625 1.6875 17.0625H16.3125C16.7812 17.0625 17.1797 16.8984 17.5078 16.5703C17.8359 16.2422 18 15.8438 18 15.375V5.00391ZM3.35742 2.4375C3.35742 2.28516 3.40723 2.15625 3.50684 2.05078C3.60645 1.94531 3.73242 1.88672 3.88477 1.875L16.2949 4.38867L16.251 4.46777L16.0752 4.62598L15.75 4.6875H3.35742V2.4375ZM16.875 15.375C16.875 15.5273 16.8193 15.6592 16.708 15.7705C16.5967 15.8818 16.4648 15.9375 16.3125 15.9375H1.6875C1.53516 15.9375 1.40332 15.8818 1.29199 15.7705C1.18066 15.6592 1.125 15.5273 1.125 15.375V6.375C1.125 6.22266 1.18066 6.09082 1.29199 5.97949C1.40332 5.86816 1.53516 5.8125 1.6875 5.8125H15.75C16.0547 5.8125 16.3184 5.7627 16.541 5.66309C16.7637 5.56348 16.875 5.42578 16.875 5.25V15.375ZM3.36621 9.75C3.05566 9.75 2.79199 9.86133 2.5752 10.084C2.3584 10.3066 2.25 10.5732 2.25 10.8838C2.25 11.1943 2.3584 11.458 2.5752 11.6748C2.79199 11.8916 3.05566 12 3.36621 12C3.67676 12 3.94336 11.8916 4.16602 11.6748C4.38867 11.458 4.5 11.1943 4.5 10.8838C4.5 10.5732 4.38867 10.3066 4.16602 10.084C3.94336 9.86133 3.67676 9.75 3.36621 9.75Z" fill="#9EA0B7"></path></svg>